<mxfile host="app.diagrams.net" modified="2023-05-25T07:48:10.889Z" agent="Mozilla/5.0 (Windows NT 10.0; Win64; x64) AppleWebKit/537.36 (KHTML, like Gecko) Chrome/113.0.0.0 Safari/537.36" etag="2wsgu_WyfNWTS76a9Gp1" version="21.3.3" type="github" pages="2">
  <diagram id="C5RBs43oDa-KdzZeNtuy" name="自动线程的启动">
    <mxGraphModel dx="2390" dy="1290" grid="1" gridSize="10" guides="1" tooltips="1" connect="1" arrows="1" fold="1" page="1" pageScale="1" pageWidth="827" pageHeight="1169" math="0" shadow="0">
      <root>
        <mxCell id="WIyWlLk6GJQsqaUBKTNV-0" />
        <mxCell id="WIyWlLk6GJQsqaUBKTNV-1" parent="WIyWlLk6GJQsqaUBKTNV-0" />
        <mxCell id="8aclwCr9dmyu_neGaCuD-8" value="" style="edgeStyle=orthogonalEdgeStyle;rounded=0;orthogonalLoop=1;jettySize=auto;html=1;entryX=0.5;entryY=0;entryDx=0;entryDy=0;" parent="WIyWlLk6GJQsqaUBKTNV-1" source="WIyWlLk6GJQsqaUBKTNV-3" target="8aclwCr9dmyu_neGaCuD-1" edge="1">
          <mxGeometry relative="1" as="geometry">
            <mxPoint x="1183" y="130" as="targetPoint" />
          </mxGeometry>
        </mxCell>
        <mxCell id="WIyWlLk6GJQsqaUBKTNV-3" value="开始" style="rounded=1;whiteSpace=wrap;html=1;fontSize=12;glass=0;strokeWidth=1;shadow=0;" parent="WIyWlLk6GJQsqaUBKTNV-1" vertex="1">
          <mxGeometry x="1111" y="60" width="120" height="40" as="geometry" />
        </mxCell>
        <mxCell id="IPkqfVPRR-V6l_qu7a_b-27" value="" style="edgeStyle=orthogonalEdgeStyle;rounded=0;orthogonalLoop=1;jettySize=auto;html=1;" edge="1" parent="WIyWlLk6GJQsqaUBKTNV-1" source="8aclwCr9dmyu_neGaCuD-1" target="IPkqfVPRR-V6l_qu7a_b-0">
          <mxGeometry relative="1" as="geometry" />
        </mxCell>
        <mxCell id="8aclwCr9dmyu_neGaCuD-1" value="手动加载运动模板完成" style="rounded=1;whiteSpace=wrap;html=1;" parent="WIyWlLk6GJQsqaUBKTNV-1" vertex="1">
          <mxGeometry x="1086" y="126" width="170" height="50" as="geometry" />
        </mxCell>
        <object label="yes" id="8aclwCr9dmyu_neGaCuD-4">
          <mxCell style="edgeStyle=orthogonalEdgeStyle;rounded=0;orthogonalLoop=1;jettySize=auto;html=1;" parent="WIyWlLk6GJQsqaUBKTNV-1" source="8aclwCr9dmyu_neGaCuD-2" target="8aclwCr9dmyu_neGaCuD-3" edge="1">
            <mxGeometry relative="1" as="geometry" />
          </mxCell>
        </object>
        <mxCell id="8aclwCr9dmyu_neGaCuD-6" value="No" style="edgeStyle=orthogonalEdgeStyle;rounded=0;orthogonalLoop=1;jettySize=auto;html=1;" parent="WIyWlLk6GJQsqaUBKTNV-1" source="8aclwCr9dmyu_neGaCuD-2" target="8aclwCr9dmyu_neGaCuD-5" edge="1">
          <mxGeometry x="-0.1429" relative="1" as="geometry">
            <mxPoint as="offset" />
          </mxGeometry>
        </mxCell>
        <mxCell id="8aclwCr9dmyu_neGaCuD-2" value="PLC是否发来启动信号" style="rhombus;whiteSpace=wrap;html=1;" parent="WIyWlLk6GJQsqaUBKTNV-1" vertex="1">
          <mxGeometry x="1086" y="990" width="170" height="50" as="geometry" />
        </mxCell>
        <mxCell id="8aclwCr9dmyu_neGaCuD-3" value="开启自动线程" style="rounded=1;whiteSpace=wrap;html=1;" parent="WIyWlLk6GJQsqaUBKTNV-1" vertex="1">
          <mxGeometry x="1111" y="1100" width="120" height="30" as="geometry" />
        </mxCell>
        <mxCell id="8aclwCr9dmyu_neGaCuD-5" value="等待PLC发来 启动命令" style="rounded=1;whiteSpace=wrap;html=1;" parent="WIyWlLk6GJQsqaUBKTNV-1" vertex="1">
          <mxGeometry x="1301" y="997.5" width="160" height="35" as="geometry" />
        </mxCell>
        <mxCell id="IPkqfVPRR-V6l_qu7a_b-3" value="No" style="edgeStyle=orthogonalEdgeStyle;rounded=0;orthogonalLoop=1;jettySize=auto;html=1;" edge="1" parent="WIyWlLk6GJQsqaUBKTNV-1" source="IPkqfVPRR-V6l_qu7a_b-0" target="IPkqfVPRR-V6l_qu7a_b-2">
          <mxGeometry relative="1" as="geometry" />
        </mxCell>
        <mxCell id="IPkqfVPRR-V6l_qu7a_b-5" value="yes" style="edgeStyle=orthogonalEdgeStyle;rounded=0;orthogonalLoop=1;jettySize=auto;html=1;" edge="1" parent="WIyWlLk6GJQsqaUBKTNV-1" source="IPkqfVPRR-V6l_qu7a_b-0" target="IPkqfVPRR-V6l_qu7a_b-4">
          <mxGeometry relative="1" as="geometry" />
        </mxCell>
        <mxCell id="IPkqfVPRR-V6l_qu7a_b-0" value="PLC是否发来机械手1或机械手2回原点命令（使用绝对编码位置时不判断）" style="rhombus;whiteSpace=wrap;html=1;" vertex="1" parent="WIyWlLk6GJQsqaUBKTNV-1">
          <mxGeometry x="1041" y="200" width="260" height="90" as="geometry" />
        </mxCell>
        <mxCell id="IPkqfVPRR-V6l_qu7a_b-2" value="等待PLC发来对应机械手回原点命令" style="whiteSpace=wrap;html=1;" vertex="1" parent="WIyWlLk6GJQsqaUBKTNV-1">
          <mxGeometry x="1381" y="215" width="120" height="60" as="geometry" />
        </mxCell>
        <mxCell id="IPkqfVPRR-V6l_qu7a_b-11" value="" style="edgeStyle=orthogonalEdgeStyle;rounded=0;orthogonalLoop=1;jettySize=auto;html=1;" edge="1" parent="WIyWlLk6GJQsqaUBKTNV-1" source="IPkqfVPRR-V6l_qu7a_b-4" target="IPkqfVPRR-V6l_qu7a_b-8">
          <mxGeometry relative="1" as="geometry" />
        </mxCell>
        <mxCell id="IPkqfVPRR-V6l_qu7a_b-4" value="相应的机械手回原点" style="whiteSpace=wrap;html=1;" vertex="1" parent="WIyWlLk6GJQsqaUBKTNV-1">
          <mxGeometry x="1111" y="360" width="120" height="40" as="geometry" />
        </mxCell>
        <mxCell id="IPkqfVPRR-V6l_qu7a_b-6" value="No" style="edgeStyle=orthogonalEdgeStyle;rounded=0;orthogonalLoop=1;jettySize=auto;html=1;entryX=0;entryY=0.5;entryDx=0;entryDy=0;exitX=0;exitY=0.5;exitDx=0;exitDy=0;" edge="1" source="IPkqfVPRR-V6l_qu7a_b-8" target="IPkqfVPRR-V6l_qu7a_b-0" parent="WIyWlLk6GJQsqaUBKTNV-1">
          <mxGeometry relative="1" as="geometry">
            <mxPoint x="1081" y="495" as="targetPoint" />
            <Array as="points">
              <mxPoint x="956" y="485" />
              <mxPoint x="956" y="245" />
            </Array>
          </mxGeometry>
        </mxCell>
        <mxCell id="IPkqfVPRR-V6l_qu7a_b-8" value="机械手1和机械手2全部回原点完成（使用绝对编码位置时不判断）" style="rhombus;whiteSpace=wrap;html=1;" vertex="1" parent="WIyWlLk6GJQsqaUBKTNV-1">
          <mxGeometry x="961" y="450" width="420" height="70" as="geometry" />
        </mxCell>
        <mxCell id="IPkqfVPRR-V6l_qu7a_b-17" value="yes" style="edgeStyle=orthogonalEdgeStyle;rounded=0;orthogonalLoop=1;jettySize=auto;html=1;exitX=0.5;exitY=1;exitDx=0;exitDy=0;" edge="1" parent="WIyWlLk6GJQsqaUBKTNV-1" source="IPkqfVPRR-V6l_qu7a_b-8" target="IPkqfVPRR-V6l_qu7a_b-13">
          <mxGeometry relative="1" as="geometry">
            <mxPoint x="1171" y="600" as="sourcePoint" />
          </mxGeometry>
        </mxCell>
        <mxCell id="IPkqfVPRR-V6l_qu7a_b-12" value="yes" style="edgeStyle=orthogonalEdgeStyle;rounded=0;orthogonalLoop=1;jettySize=auto;html=1;" edge="1" source="IPkqfVPRR-V6l_qu7a_b-13" target="IPkqfVPRR-V6l_qu7a_b-14" parent="WIyWlLk6GJQsqaUBKTNV-1">
          <mxGeometry relative="1" as="geometry" />
        </mxCell>
        <mxCell id="IPkqfVPRR-V6l_qu7a_b-13" value="PLC是否发来机械手1或机械手2回待机点命令" style="rhombus;whiteSpace=wrap;html=1;" vertex="1" parent="WIyWlLk6GJQsqaUBKTNV-1">
          <mxGeometry x="961" y="640" width="420" height="70" as="geometry" />
        </mxCell>
        <mxCell id="IPkqfVPRR-V6l_qu7a_b-23" value="" style="edgeStyle=orthogonalEdgeStyle;rounded=0;orthogonalLoop=1;jettySize=auto;html=1;" edge="1" parent="WIyWlLk6GJQsqaUBKTNV-1" source="IPkqfVPRR-V6l_qu7a_b-14" target="IPkqfVPRR-V6l_qu7a_b-19">
          <mxGeometry relative="1" as="geometry" />
        </mxCell>
        <mxCell id="IPkqfVPRR-V6l_qu7a_b-14" value="相应的机械手回待机点" style="whiteSpace=wrap;html=1;" vertex="1" parent="WIyWlLk6GJQsqaUBKTNV-1">
          <mxGeometry x="1111" y="770" width="120" height="40" as="geometry" />
        </mxCell>
        <mxCell id="IPkqfVPRR-V6l_qu7a_b-15" value="No" style="edgeStyle=orthogonalEdgeStyle;rounded=0;orthogonalLoop=1;jettySize=auto;html=1;exitX=1;exitY=0.5;exitDx=0;exitDy=0;" edge="1" target="IPkqfVPRR-V6l_qu7a_b-16" parent="WIyWlLk6GJQsqaUBKTNV-1" source="IPkqfVPRR-V6l_qu7a_b-13">
          <mxGeometry relative="1" as="geometry">
            <mxPoint x="1321" y="775" as="sourcePoint" />
          </mxGeometry>
        </mxCell>
        <mxCell id="IPkqfVPRR-V6l_qu7a_b-16" value="等待PLC发来对应机械手回待机点命令" style="whiteSpace=wrap;html=1;" vertex="1" parent="WIyWlLk6GJQsqaUBKTNV-1">
          <mxGeometry x="1421" y="645" width="120" height="60" as="geometry" />
        </mxCell>
        <mxCell id="IPkqfVPRR-V6l_qu7a_b-22" value="No" style="edgeStyle=orthogonalEdgeStyle;rounded=0;orthogonalLoop=1;jettySize=auto;html=1;entryX=0;entryY=0.5;entryDx=0;entryDy=0;" edge="1" parent="WIyWlLk6GJQsqaUBKTNV-1" source="IPkqfVPRR-V6l_qu7a_b-19" target="IPkqfVPRR-V6l_qu7a_b-13">
          <mxGeometry relative="1" as="geometry">
            <mxPoint x="931" y="875" as="targetPoint" />
            <Array as="points">
              <mxPoint x="941" y="875" />
              <mxPoint x="941" y="675" />
            </Array>
          </mxGeometry>
        </mxCell>
        <mxCell id="IPkqfVPRR-V6l_qu7a_b-26" value="yes" style="edgeStyle=orthogonalEdgeStyle;rounded=0;orthogonalLoop=1;jettySize=auto;html=1;" edge="1" parent="WIyWlLk6GJQsqaUBKTNV-1" source="IPkqfVPRR-V6l_qu7a_b-19" target="8aclwCr9dmyu_neGaCuD-2">
          <mxGeometry relative="1" as="geometry" />
        </mxCell>
        <mxCell id="IPkqfVPRR-V6l_qu7a_b-19" value="机械手1和机械手2全部回待机点完成" style="rhombus;whiteSpace=wrap;html=1;" vertex="1" parent="WIyWlLk6GJQsqaUBKTNV-1">
          <mxGeometry x="1021" y="840" width="300" height="70" as="geometry" />
        </mxCell>
        <mxCell id="QOJpFYP4T8yH6UuzxTqu-1" value="PLC to MC commands variable" style="swimlane;whiteSpace=wrap;html=1;" vertex="1" parent="WIyWlLk6GJQsqaUBKTNV-1">
          <mxGeometry x="210" y="410" width="460" height="300" as="geometry" />
        </mxCell>
        <mxCell id="QOJpFYP4T8yH6UuzxTqu-0" value="" style="shape=image;verticalLabelPosition=bottom;labelBackgroundColor=default;verticalAlign=top;aspect=fixed;imageAspect=0;image=data:image/png,iVBORw0KGgoAAAANSUhEUgAAA1MAAAGQCAYAAABLWzqvAAAgAElEQVR4nOydd3gU1ffG382mQAAJSo10pNkQKSJdAaUXUUSKiiKIooINlK8giCIKCoiK9A5SpSNIEUI19K6hdwKBFELKZvf3x/u7z8zuztZsgITzeZ59kp2dcufOzL3nvefcMyabzWaDj8yePRtnzpxB//79fd00RyP1Igj3LnXr1kVUVNSdLoYgCDkIaVcE4c7gi00fdBvKIwiCIAiCIAiCkOMQMSUIgiAIgiAIguAHwf5stG/fPsycORPz588PdHmyNXFxcUhLS5N6EYR7kGPHjqFatWp3uhiCIOQgpF0RhDtDXFwcqlev7tW6fompKlWqoECBAjI3yAGZMyUI9y4yt0EQhEAj7Yog3BmUTe8NEuYnCIIgCIIgCILgByKmBEEQBEEQBEEQ/EDElCAIgiAIgiAIgh+ImBIEQRAEQRAEQfADEVOCIAh3C0eOABkZgdmXzQbcuMH/r14Fbt4MzH69Zc8eftxx4YLv+506FYiL4/8JCUBKiu/7EAThzpGaCly75vr3hAQgMfH2lSer2LYNWLgQSE/P3H4OHwbOnnW/zsaNQFpa5o6j58qVwO0rKwlUHWcSEVOCIAh3C19/DTz1FJCU5P8+bDZg61agWTOgTh0gORn45x+gQgX34mX7duDdd53XWbQI2L8fuHRJ+3z6KXDokPtyTJkCdOpEw8kVzZsDkya538/s2ZohYbMBPXuyrABgNgPduwPffMPzFATh9nPwILB5s/2y6dOB998Hvv8eGDXK/vP880DjxkB8vPH+NmwAqlUDrl/P+rJnJadOAYMH2y87f57tmJ5//3W/n717WV/uBOawYcDw4cCSJcB77/kuhq5dA9atYx9Uvz5QtCgwbZpv+/CWGTMofiwW7z7z57NPMyJQdZxJ/EqN7hPHj/OBefLJLD/UHT2mcPs4dw4wmYAHH7zTJXFPTAwQEQEULHh7jnf1KnD5MvDII75tl5YG7NoF1KrFeg0kViv3XaNGYPeryMqy3wlCQoA2bYC8eX3bLjkZ2LIFWL2anzJlgHr1gEcfBW7dAnLlAkqXBiIjXe+jVi1g7lwKsBMnuF14OHDgAJe/8IK27owZwMMPu77XLBaOFs6fD4SGAgsWcPsgh/G7oCCgRQvXZbJagU8+Afr1o2EWG8tOskkT/p4nDzBxItC0KY+xdSvPVRCE20flykDt2kD79hxoAYBXX+Xn6lW2IfXqsY0ePBioVAno1g0ICzPe39atwMsvAwUK3L5zyApCQ4FixdiuK0aP5uDQU0/xe3Iy8L//AX/8AbRu7Xo/1asD+fK5P9bTT1N0rVtHcfXjj9rvN24AO3ZQNF25QqEaH8/rs2YN2/OyZWlXdexIQXb//WxvA9239uzJOrjvPu/WnzmT51W7tvNvgarjTJL1YmrIECAqigLndnEnjukLW7Zw9ODYMW1ZeDhv4mbNgGef5c176hSwbBnw119cJ39+/vbii56NrS1bgJ9+4gh3eDj398gjNEKWLeNIrjf8/juwahUfPJMJaNQIeOkljlrs2wfMm8dRKYAP4osv0hjLCg4dAoYOZZkmTwZef137LS2NI2GTJzuPYCxYwHO4epXfg4PZiJvNHK1v354NSaDYuZMdxsqVwNq1bATccesW8NtvvM558/J7SgrPr2NH7xuy7t2B5cs5epU7t/fl/fVXoE8fHr9RI++388T48WzQk5Mp8m7cABYvBlas0FzyZjMFZ5UqQOfOvgvPrCr7nSIkxLeO6/RpYP16en/KlgVatuT9vny5/Xre7nPwYGD3bv6/aBHQpQvDDqtV472oGDSInbsrli5le7ZzJ8szahSvfZs29uuZze7L8/ffLPs77/D7f//RcNN3nLly8RiPPUZD4W4fZBGErEIZyAD7uSJF7J8VgCF0587xOXLXLlit7HOvXOEgTKVKrtc3m4GPPwY++EATU4qCBdlO9ejB9uSNNziw447VqzkYo4iLo3FcpQpw8iS315dl+3YOnoeGGu/v0iW2Y5GR7s/52jX2nyVKGLdN164x5M5kAh5/3LMYMNpHcDBQsiT7LVW2ESOAVq1c7yfYC1Ndf6xvvmE/qyc0lINrefNyEErt02LhPfLHH+yL/eXCBd5blSp5Xjc4mPdB0aLe7XvPHtf9TaDqOJNkvZgSnKlTh8KmQAH+XbuWxtDIkTS8X32V8wJKl+bowOLFdHtv2sTRHXdkZLAxmzWLo8L69Tdt4miPl290BsD18+alkda5M8ujqFKF5S9VShvp8HVE3RcqV2ZjPXeu/fKLFymkhg83bihffJENSZs2wNtvU2SazcCZM3RpP/IIjciBAwNTzurVOeq2cqXndc+cYahTrVq8XkoEnTkDtG1LsTp7tnfi6NNPKcZ9EVIA6ycpiWUIJN27sw62beP3iAjWy759HDmaMAFo146epTffBL78ks+CL/dnZsoeF8fnrlgx37fNKnwdASxVinWqiInJ3PHz52fs/alTHJUEWL++dLIWC/DVVxz0qFCBRtaqVQztAWgUlSjB//Xnu28fDRS1zGbjs/r221rHf/Qo13GkYEGKwEKF6MF6912gYkXfzl0QsjuVK3PgShEayn579GjNqzF+PL29Fy+6NmaXLgV697afp1OuHPDLL8Bzzxlv07q11mYAbJe6dWMZKlViv3TrlhYqvH491/v8c/v9/Pcf2+blyzkgXro07Z+rV1muyZPZzimvA8C+/7PP+Ow78u+/WlvQvz8H+IyIjuY+rVbW0Vtvab/duMH6mD1bCx8zm4GuXVknrvpc5YlPTmb/NnAg2zLHebEmk3Pbb7MxQsBm4zVNTOSga65cPN6hQxRzSkwcP85BpYMH2WaPHs36VoPO4eH8BJr0dNqugwaxn9Dff67wNIjmC5mp4wAiYupOERHBhyJPHs2YGzOGhuX06TSk27XjchWaU7as5/1+8w3www80YB0NzPr16ZX66CPfyqrKZxQiFBwMFC7MhzYrhRTAh8bI8C1WjGFAx47R42eEGq0OD9cMs1Kl2DidOcOGoHlz3wx5d+UsXNjzejdv0sDMnRsYN85+9KlkSY7MVarEUfkpUzzvr3ZtYze4Jx58EBgwwPftPBEUZNxZq/uoeHHggQfYOU+ezL9vvMH5Od6SmbKPHctj3k1iyhU3b2oe5kATH89RyU6dOEIZFMQBnF69+PuZM76FaY4dS0/x7t30TJ0/zxHdhg05SPTOOxzAePBBGlXjx9PQGziQo6n162vH3bqVXrFRo7hswQIKJvXdkVu32In+8QcHF3JC6KcgeEtiIgdAhw5lm/HHHzQwr11z3Tc68scftD3q1GF4Vdmy9AZNmEAh4kpMhYXZRwcsW0axobxFFgufZcXZs8Zha1OmsJ1o1Ij9w7Fj9jZLSAgHcpXXAWDYcfPmxuVKSODf8uWBn38GvvjCWFSMGMHBn6NH7ZP1pKezn967l/O/2rXjss2bGQW1cyfQoIG2fmIi26d8+SgYT51iGxcZyb4tJMT9PFKFycTwyNhYCqf4eLaZQUEUzQ0a0I5MS+OxduzggHGzZtz+f//zfAxXpKfz2r34Ij+u+O8/RipdvUqx7S6piB59uPeKFbSBSpbUliUkULh++aWxXRmoOg4gt09M2WwcdT54kPH8rVo5uy4vXWLsZmwsK6VZM+MRUW/Xu9txnD9gMvGh3baNYYpKTCkV70nNnzrFm69JE9cj9VWqAM884185XRkmQUG3z2hxrDM9efK4/s1V3ZlMNPL+/JOT9AMhptR+PfHjj2y4p00zduOXKUNRPXUqR+f1I3HZBaPrZbRMhbYeOMBRtawW5ps20XviyjC4k8TF8VlWJCczxK5VKxpJgXjWLBbtnsufn2E4VarQg1SyJEM2cufmKO0//9jH3iuMsidt3aqFGTVuTI9vx468d/v1Y3sdHMzQ2lq1gDlzGP5TtChFmBJSAAc7YmLs74V584C+fe3XEwRBI39+4KGH+H+VKmxLpk5l5IinOUipqexrKlSgjaVER/HijHJRWTT1XL7MQQyAA7l9+7LvMpuBmjW15zdfPqBqVa1sGzc67yspiQa5u5Btf70a3buzDfr9d3tvPkCbcuFCelg++MD+t3HjKJgmT7bfrmJF4JVXnPvufPko2AAKnNKl7YWf8sh5Q9u2/Pvxx6zjqlUpqKKi6IVbtAioW5dtdJ48WhKetDSGPurbSZsN+PZbXsNixbR+WHlwfv1V87Clp1McHTpEm9TVXK3oaIrYAQPYjqspKZ7Q92ExMfQ8du+uLTt6lBFIjl5LRSDrOEDcHjGVkkIX8IYNHLE/eZKGwYIF2qjFnDkclQ4J4cN29ChHOpYutQ9V83a97IpqrPyJ+582jcaPGplwhT5UL6v491+ONBcvznjX8HA2Sg8+yEZ9+nSOJEyeTG/ct99yu3Hj7EeYEhLovlcjRVar62O6E1ru2LGDf/WT6d2VX7F7N72JwcEcDWnThmU1EpdHjjC0IiyMRmbXrlqmnIYNXZetYUMakDNnMiZ8yRJ60xo1YpmGDAE+/JDCe9w4isKjR7Xt09M5mmaxsNHcto3PXkgI55hUqMCRwAkTOCL5yCMMFxg/np3O4cPsgGbPpnG7cCE7SoAdX79+PN/YWIYkjBxp/xx6a/gnJrKxz5dPE8VWK0efVNjHqVP0NrRvz99jY/0r+4YNDH2wWFh/hQoB333H+QV3A5cva/MQFWqOY1KS1rGlpzuPvt28yXpzzAaoPDZJSXz+Wrbk/dilC3///HPW2dq12n0BsI1u0kQLy1NERnLbxx7j9fnqKz63DzygdfIFC/IezZ9f+z801HkOh8Ix+xJgL6SSkzk6rB/d1rN+PY0Hb+YXCMK9ghIvly55FlN//sn2Z+hQY++NPoxPoTzIJUqwT3vjDS4PCqInSCWZuHiR/b2K2ti82dlmW7nS9XxuNQDk72DSww9zAGfcOGcxNWEC25qXXnIWU5Mn0w547TXnfbobwLXZ2CZFRLDvadPG/7Zp61bWW+vW7O/LlaOnLX9+trnFirFfUKI2KoqJfXbt0uaDm0y0TxyxWCjWevXy3Snxyiv8+Ir+GgYH83xattSWFSxIW9/oftMTyDrOJLfnqBcucGTy4kVe8JEjefEWL6ZL+sQJ3qht29JoDA3lNvXr80KdPMkO2Nv1sivnz/O8IiLsJ3t7y86d/KsaT1d4m0HFEYvF+J0ujgLHZuND364dwwJu3eLDPmQIhcC5c7yWhw8z3rhZM8ZHv/4645RVtr6MDBr+jRtroxCffOJf2RWxsdy/2cz7cdo0GuJ9+mijOJ7KD3AkqEMH/i1YkMZj+/b8v2dP5+MmJ9PQnTCB+0pO1ua3FC/uurxKuOzdy/LevMnRH4uF90j9+uy0Ll6ktyU21n77AQNYxg0b+P3zz2nsfvMNz/PsWQq9mBjNmL1wgaLr3Dl6Fl54ga7+li25v9mzud7HH3Oei5oT1bQpR5f0iVW8wWZjzDvABl01tO+9x99+/ZXfZ85kOWbO5DwAf8v+zDNMx92kCQVzoOeKZZbKle07FlckJ/P+LFpU6wTPnaPAWrDAft0jRxiKoZb37cs6S02lsRMczHv4wQcpWD//nPfNqlVa/etZtIgddkaGltwG4GhtXBzvw1GjuI+kJHbqCleDHkZiSs+mTTQGP/9cey4U6em8voMGZU3IqiBkR2w2eoBy5/ac9AHQXjngasDCiBo1tDDgXr20BAQmE+cuqgERNRCu7BNHW8JiYTa6W7fYjgFsX1Rig1df5f5ciSlP7QfA/ql7d/ZbVapoxx03jvaH49ynlBSu27Kl74O1O3awLXziCfZVFSo4J4XwhthY2nYvv8xBq+HDKagArUw2G/sBlTp96VLayoFIrBUX51nU+Ir+Grqy2d0NnCsCVccB4PaIqcKF6bJTXqj336dhqsTUzJnsDEeN0taJjKTh/PbbfMDr1fN+vezE2bMsf1wcDd4nn2TsrrsUxq5Q74fJqpDHP//UMuLpOX3auYELD9fm7+TOzQZUTWZ97DEKqDFj6KFR2e46d6aBfu0aRcn06XQjr16t7bdLF9aPv+zZw+3T0ym+169naJ+j8equ/AAbsy5dtOxzzz5LkV+qlPMxN2zgCN2yZVrHohq90FD3jbRaPymJ4VedO7PRf+ghija9cKtenaOECpuN4u3VV7VlSiAWLszwAICiYupUbZ169dipbd1K41SNUDZowI5FERRkHyv+6KM0eL1l8mRe2wMHKIiGDdNi4w8coNDeu1dbv3Nnetk+/pjC9ckn/S97TiB/fs2jq9iwgUJHn+kSoEEVFeW8XE/FijRkDh+mULtwgW1TQoJzuvECBXivW63syPTYbPT29elDkd+sGe+18eP5u8VifHxPLyteuJD7bNJE26/il19YfsdMYoJwr3H1Kvu5xES2jX/9xUEjbxITqcE4dwN8vpCSonkKrFYO3igRlZ5ub0ibzTSEg4LYfthsXPfECf7+8cdsh/Qh0L7y8sv0PP32G9sMgMLjwgXakI7ExbEc/tTH77/TRrhwge3WiROMLNFHF3jD4sVaOu/ISHoAZ8zgoOWvvzL5V7167OMuXWK9LlpkbzfFxrqeQ6Ta4/PnnSMa9uzhXNoZM7SQw9uFN2IqUHUcAG6PmMqb1z5lZUgIXZTK8Dt8mA+Po4BQWZtOnuTN4u162YkSJWggpqX5nhbZEeVyVhMuA02LFpoHQU+1avYNnMnEEDibjQJs5Uo+qA88oK2j4p71YTxq9EM1tjNn0v2r7wT0+/CH556jZ1Rx4QLPq3Fjjk717Om5/ElJNEz12X4iItjoObJoERvrf/+1D5tQgjctjR9XKV2V275QIf5V9WYk2hxHeFRnpPdW5c/Pv3oBZzQyZDbzoy/z/ffTw6FQndHBg7xWmzZ5Noj1vPEGr0dGhnMZFi3iX314mclE79d337EtePJJ/8ueU4mJcfba+MLvv3PieYUK/Pz+O0N+jLytCxeyjpcvt2+3PHWCFgtTnl+6RGNl1SqKs6Qkbms0uJCUxE7y8GEOYIwfTw9jrlxs7wYP5vOXnSMTBCEQLFqktZ9ly3LQ8t13vdtWCR9f2nFX2GwcRFcDMVev8hlWYX67d9vPAzaZ7AXN8ePsr9q0sW9f9uxxfTxP5M2rDeB//z1tprFj2ZZUrMisfXr8rY9bt+iN//BDzbP//fcMofzyS+8zjdpstD86d2YETZEiHOA6cIDi6J136PGLiqIzYcAAfq9a1d4rdeIEwyojI51tDXVu0dHGYYtTprBNdtU2+4P+WmVk8JqOHWtfXleDbopA1XGAuHPB5TabZiSHhBg/CKpTVh2kt+tlR1wZ075QrRrfL3XokPsXYd4O9u/nCNDrr1O8REfb/24kGh2XnTjhf0iit0RGsrOpX58udGU0uiu/anC9yVwTGkohNmgQH3RFWBjFwO7dNPJVyIEjJ0/yr/IiuRPbjr8FBTGkYfp0zVW/ZQvDDPXvW/DmWhgtu3aNjXm5cgy9Mpt99/4EBRk30MrLGh9vH2KgRKTykPpb9pzKzp2+J1GxWumJSkhgxMDMmdpv6n0dvXs7b3fyJO8lx7pNT+e94SrML18+hlaWK8fOu0oVGlidO7s2iH75hV5s5Qnu1o1lmjCBoUUdO/qXyVIQchpduzIRhD+psFUo4NGj3r8DyBU2G/tPNWA6YQJD41WYn1GUi57oaA66f/wx5756ypDrjZgCOAg6eTIHip5+mt78efOM133gAdahfh6yN8yapYWsq3KFhbEtPXWK18gb1q1zXrdwYQ5ElShhf84PP0zbb8QI+zYcoGh1lcBKiZY2bW5fIjd9udPSaLvq+5jt2z17IANVxwEiQDLTA0lJ9i7G5GTenGoEtWxZPlj6ECVA64CVoentevcaixfzgVATJOfOdT86vH8/b+Cs4tIlupzffptlUqM73jZ2iqJFKaiMyurrvtyhvB/Kpe+p/A88QAFgFJur5iYpWrbkfK8RI5wbbOXZcvc+qnXrOEjw5pu+nxfATrVWLY5mjRxJ8bZ9u+8vx3XEZuO5FSjA+VdK9AbquqjXADh6k9SggzcvBrzXsFjo5VFZQL3FauU7zp5+miEjNWtqv/kjQi9fZufYpw//vvii/aTuWbP4fBUvzs4vMpICTL3/zZHr1xmupH8PXI0aHLVu1Yodp36gQhDuZXLn1hK++IrKojdjRubL4cmz4MkGmTiRnpbevZmISfWtrvoYb71HTz3Feakq1K9wYeeXiSvMZh47Ksr78MLUVE596NiRZdWX9+ZN2r5qcNQIleXQamVES/v2zvZcdDQjCPTL77uPtsxTT2nRWocOeVfm242+Ttq3Z/SDnqee0ryrRtsEqo4DyO0RU1eusEO9fp0Xf9AgCirV6au/772nhTUdPMj5ALVr88b3Zb3sQkaG5wYH0NYxWvfaNc77CQ6mp6NXL7pMjVIZA2wQNm70zROmjutKoFks9r9t307vjcqOprKIZWTwpk9P19bXPwTqf/W3YUNuN2mS8zpGDbHV6rqhdVfPSuS0bUvj0VP5g4PZ6axbZ//ujg0bmNnM8VwGDWJ60ddft58D9OabDEsdNYrPhiP79jGU6ocftCyCar9G18KxUQEYEtemDevwo49osOrf5+BYVoVRXer3Hx/PetJnwEtIsL/GrsqkOj1316RDB9azY6d+9CjrXp2DP2UHNG9YaiqXqzls2ZlZs9iB+Co0g4Pp6fniC26rz4bkj5g6dEhL6mG1Ot+rRvt0J4g++ogv11YhqoonnuCARpUq947nURCykmrVOP938mSG0urb140bXWcCtlo5iFukCAdmAOeXpBYrRi/VypU0gocPd/2Ov/37ads8/zwH3b/+miHhBw/yWFu2MCxMfa5c8W6OjSrXW2/Riz9+PKM33NlD/fpx3x06MMpEceMGs+NFRdmv//ff2jvuHNu/FSvYH7uLolJRMDablnVQ9atq+e7djKbR96EbNjBxx/HjPGZcnHNE0N2Cvi9Wg2p6jNpzfT0Gqo4DyO0RUw0a0BgtWpSjACNG8GZWKbCfeIIG5YoVnBtSogSTFKj0iKpivV0vO3D8OA25kyfdG3Lp6dro/NixnFS4di3nKYwdS6NFH9YzZgznonz8Md2cO3bQ8D1/nm72iRO1l3F6i0rTfOCAc4MVH09DKD5eS9Dw+OM0Vt97j6KuRw+ex969LFdyMkcVAPukDqqhUp7H/v1pNL/3HudE/PEHlwHMwrdqlX1ZTp9mXRoJE/Ui2CNHWH8HDlCE9u7NBrF+fSaJ8Lb8o0bRuGvblqKvQQO+JE9N8FfZiC5c4OjWrFn83qKFJrhCQjif6okn+Cz8+y+XW628x1u14rOid3+r/e7Z4ywYTp2ioNHHfc+ezRC82rU5L6xVKzbQS5fab6evd1WX6en2bzM/f56e4eRknnuZMnzL+vff04t39CjL/u67rF+17xs3tHcP2Wzab+qvEWXK8JrPnctwDJuN9b96tX12OX/KDmjhLMOHMyGOKt/dTHo6B46MMmoeOkTBPG6c6+09eQ1PnXKetOtpG6Pf16/XspFmZBi/j0rP2bMM95s1S3sGFXPm8F7Qe9syMjhIMG4cn4P//tNeG+CtQSUI9zp16nBeifqMGEEbauZMDlD07Mmw6gYN+Aw+84xx2unz5zmIs3cvBwCDg9lnLV9uPwdn0SLagM2b0w75/HOG9jqSmso+d+ZMbdCrbVv20Tt38hmvU4fHUJ/Chb0bmFZ07cpypqXxWO6oX5+DkLt3s9+oVYue8WLF2OY6vlLjuee0djQjQ2uTLBbabEOGOB9DP7i8di3/ms3aVBirVRuEXL5ci5hR6eKjoyn6oqMpDIcO5fxZb+rEU/vsjo0bObjZqBETncTFad/1od1G57trFwdkvflcuWJfzkDVcQDJ+jlT/fvzZCtXZmWfOcMHVR9KAjAMpH17TmK/eZOTn+vWdQ778Ga9zz4zNqjvFqKiOLKiwlYmTeLN99hj9uudOsVRnFattDkuKg21olMn+/kvwcHc35tv0pD+4gveROXKMatb9+6+ic7582nsqLL+8gu9jEWLsuFcv157Wdr06RQWdepQDMydq4Xv/P03l/Xpw3sgNpb7PH6cjZR6z9DAgTzHyEg24Dt2MMvbli00hAcN4vn07Kllkrt5U5t0WbUqQ4KaNdNG6OfPZ4OvzkGNJIWGss63bWPjqOqlbFn35c+fn5/oaBp1qjPp04f7/OcfiuSBA5l1TL1QT6V1X7iQjcGTTzJGefVqCsPhw7X3AZUty7rVp7m/cIHnos5j1iztPUFLlmgpamfOZGeRPz/DJNQbxhMSOKhx5AgFyrx5vI6pqdznoUN8nk6eZKz6wIGsg/btef516/IzdSob81WrGDoYG8uOMS2N16pzZ57b8uVamaZP5zXZtIn34sCBXH/mTL7WwCi86/PPKWxnzKCQLluWbYiK5Y+O9r/sZcsyPHbNGj4Tgcpe5Q3//MP6iIx0zrB18aL2dndHDhxg53X2LO9JZWhERfG8li51HfOu9xa6YudO5843I4N1qp8crNizR8vEqbh+nYaNCuFOS+MylQTlp5846h0fz8GwatU4WFO1Kp/t/v21yfI7drAN1Kc6j4qi0ffcc6yLkBA+P6NHsy0sWJBCrlEjXm9/Qp0EIbvSvz/bXne0a2c8gKsGZYsVY9u6eDGTFiQl0VvVujWfU0eWL2fo+7Bh7ENfeYXibMAADrCVLauFHdps7L/VvMoFC9iGDBjAtisjgx6Hr76yT6BgMrGvKVaMbYhjooTgYNfvFypRgn2vfn8FC3IwJjXVPplTeDjr0HH+Ze/eTH40bx5FSp48HGx94QX3L5jXG/qjRnEwViWTUuTJw+vxzjtcf80atsX6OU5WK9vmxERmqv36ay7Pn5/lGDOG20VEsG+pWZM2gZFYBWgzDRvGAcaLF9mX+NNWFimihdM5htW5Sxbmj4BzlY0wULs+ZWEAACAASURBVHWcSUw2m+/ybPbs2Thz5gz6Ky+BAEDqRbjLOH2aXpc//nAW0Js2cWSob987U7YcSN26dRHlGPJhhM1GkeEY2uAr6ekUmuplk+4GSVav5milu/KtWUMBr0+3Pns2l+vTzyuGDuUgmXqJMsD12rfXRg0TEzkI0r07O9f+/SmSjCY7p6eznK1aUYBFRzMNekoKhfuRIzSMXnzROM3zlSsUWpMmsQzffJP5uYGCcIfxul25kzimOVfcuKENipw7x0GUmze5fno659z+/DPbrrQ0hrQ//7yxaFNcvEgjXp+4KD7eOQz4bmDmTEZSqARNTZsar7drF9u3oCAKUcf3fE2bRs/ehx9ybmtoKOtrzBi2ca+9Zt/+nzvHwaVSpVzPf7PZaBt07Eg74XbOO61endMkvL1mixaxToyyGAeqjg3wxaYXMRVApF6Eu4o33uCo/9q19o1WaipDAvr2NW6cBL+47UaP1coO1fEdUEYkJlKA+Pp2+MREijUjoWazOS93lT43OZnl9Ce17unTFGLuRoD1pKTQsDPydgpCNiNbiKlAoLzivrZRdzMnTtArEhGRucGzs2c5QKUfgLp2jW26O4/StWueXydz+vTttwOM+g5/CVQdG+CLTZ+D7lrBJ/buZdY6d4SHM15YyJ507swwwKJF6YIvXJihfnFxDJkQIZW9CQryTkgB/r/A0N12Rp2hK7GUmXA7X+9Tb+tEEIS7h5wkohQqK21m0b9vUeHNOze9WedO2AGBzG8QqDrOJDnw7hW84vRpzy8xjYgQMZWdadSI13n9ei3Dz6OPMoNgTuy4BEEQBEEQbjNiUd2rtGnj+t0KQs4hNNR1DLEgCIIgCIKQKW5PanRBEARBEARBEIQchogpQRAEQRAEQRAEPxAxJQiCIAiCIAiC4AcipgRBEARBEARBEPxAxJQgCIIgCIIgCIIfiJgSBEEQBEEQBEHwAxFTgiAIgiAIgiAIfiBiShAEQRAEISdw4wawc6f7dXbtAq5d87wvm83741qtwJ9/er8+ACxdCiQm+rbN3UxCQub3YbX6Vu8pKZ7Xv3jRePmyZcDNm94fyxsSE3kOnrh4Edi+3X7Z8eOAxeL9sbw5dz3nz/u2vg/IS3sFQRAEQRByAsnJQL16FEyPPmq8ztq1wLp1wOjRwLffAh9+CDzxhPN6o0YBly4BxYp5Pu6OHcC8ecCIEUDfvt6V9YsvgK5dgY8/9m59f0hIAPLmBYIy4TtITgYGDgS++grIndv1es8+Czz3HPDNN9zGSFytWAEUKQK0bGm8j+vXgddeA1580buyzZ8PPPQQr6UR58/z9yVLWDZFWhrr/ssvgT59vDuWN2zbxuu/YgVQurTr9ZYt43XfsQOoXJnLLBagdWueU548no8VFQUMGAA0bszv168DqalA0aL8fvEi93Pfffw+bRrw6afA++/7f34uEDElCIIgCIKQEwgNBQoWdC2k1Do1awIPPwy0awe88Qawe7fzeunpHP13NLZtNqBVKwox/XHmzPGtrCEhQK1azst37aIAyJ/ft/05smoVEB8PdOzo+vc//wRKlmSduOLKFeCXX4DOnYGqVY3XOXyYn99/5/fUVG5TvLhmzMfHA++8Q7HRogVgMjnvJywMWLkSmDnTfvnkycDp08DgwfbLlyxxf61//hno1MleSAHAH38AFSoAH3zA7zduAP/8AzRp4npfevbtAx55BAh2kBFhYaxLd0IKAFavBt5+WxNSAFCxIsVqr17A9Omey6Cu2ddf8+/YscCBA9r3N98EGjTQhOnq1TznLEDElCAIgiAIQk7A0bg1wmzW/m/XjqFZ6ekUN3ocvyu2bQPKlqUYU9y8SUPYFw+Q2UzxER2tLbPZaEg//jgFhL6svjBuHMv/5puu12nWjB9PnDpFr4YrIQXQgB8yBChXjh6WiAh+19OzJ4Xd998bCymA189k4vZ6wsOBXLmcl4eGuvaWXbzIUMpt2/h9506eQ3Aw8N13QP36FFsABdzWrRQjJUpo+9i/n3VZujTLAPAa/e9/wOuvO3vEzGb3whSgx055Rh1p3x6YNct+WWIikC+f87oZGe6PY4Q3IYh+IGJKEARBEAQhO3PhAkPLkpJozG/YACxfDnToQEM5PJxeAwD4+28aqKNG0TAePx7YvBn47Td7MaQ3+JctY+hWpUrApk1A7drAmDHa73/+CZQqRcPbW0wm4OWXgbp17Zd7GyboihUrKAqUUAgE7ubaHD7McDrlTZk6lR6jGTM08bNmDcPSduxwLaQA97/5ypAhvKb58tHD2Lo10K8fhVHRosDIkTxeejrLumWLvZACKGp/+cV+WUwM8NFHwKBB7o+/cSPQsKHz8t9/p4gtVsx53lSJEvSWqeVnz9KDNWsW0LSp/bppacC5c1o5Ll3iM9CtG72Nqaksw4ED/F09I1mAiClBEARBEITszKVL9CyEhNA4vnkTeOYZCpx27YAqVYC4OOCBByisYmK08D1vxIvNxjkpffoYz7GJjdXmqnhLIIWD4to1zgHbs8fzuqdP05NSvLjndV15NCwWzqeaOZP7Skmhl2rgQC287+BBoHt3el1iYzmHyxWBqpO//qLnsE4dfv/pJ6B5c+CttyheV63SjjVrFueDPfIIr7NjGebOBdq2pWcMoDB8/nlgwQImjYiM1DyIMTG8Fz//nKJp4EDOAVPYbBR4zZpxm8uXKeALFuRxQ0I0j6jNRnG1YoU2EKDn4Yc5/0/vIQUopAYPtg+JtNl43zdv7l99ekDElCAIgiAIQnbmySf5WbGCBn6xYkC1avytcmWG0rVrB/z4Iyfl60fo16+n8HJnyHsTbudue6sVePddlkF5v+LjOU8nJUVbZ+RIYPhw44QY3vDLL5zPpULS3LF7N/DeexQ7juFzjhiFlKWmUpw8/TT3tX49PYItW9I7AlDU9ejBOUqlS1O4JiYy8cPjjxsfy2bj/B89mzZRDDsu//df5+3XrgX696eAGzYMuHWLnsVNm3gNrFYKJCVaVq6kyNi/n/PeNmzQhCDA3774gnPkzGbuq0sX4KWXGDKo92ZGRTGs8Jtv+HFk/Xrg2DFen/R0oE0b3gdG8+NGjmSI5dChzr8nJlKohYRoQkzV3cWLvKYDBmjr37rFeV4AvXMBRsSUIAiCIAhCTmDLFno+Ro+mQTx2LP+WK8ffq1WjUX3rFr/fvEkvwW+/cQ6MK4KCaASPGmX8+44d9F642/6337iO8gQtWuS83qZN9Gz4y/LlwGefebducDDnG02d6n69a9cYUuZIaChw6BDrsEQJoHBhemr++otG/bx5wOLFnLekMiJOmwZMmQI89RQwcSKTWuixWOgB6t3buawnTzov37zZuVwFClAw58vH0Lh+/RjK+fvvFH+DBlEAVq9O70379vQe/f035zLphRTA7x060CP51VecezV/Ps9/5Uoew9u5cj/8wPlW//6rza3atAkoU8Y5kcbBg6xfo8x++fKxHgFg715NfJ87x/ofOVJbd/t2Jtj44QfvyugHIqYEQRAEQRByAitWcJT+l1+YyQzQDN2gIBr5RYpo73f66y8mk9CHYilsNm1bm43Z1lyl0Y6N9fwOn9BQirqHHnK9TlCQcYY/bzl1ynnejyvMZoaEeUoNfuGC5j3TYzLRE5M7Nz197dsz3O/SJQq0KlXo6XH02HXrxmVz5zqLqZQU45A2X6hencLIZKLgqF8fqFGDy1VZgoM1r5LZzP/NZtfJLGrUoNBq2pTZ8VSo4pUr9IBNmuQ5RPHPP7l9kSL2HrVnn6VYW77cfh/79zNc0FNSlRYt6D2LjKS3q3Zt+/lcmzczRLVxY+8StPiBiClBEARBEITszrFjFCtXr9K70bo1Q+bi4+lRio2lwd+mDfDff9xm9mxO+DcyhNPTNeM6I8PeM5WRwXAxFSq2Y4dz+m1HXGUHdCQzGdfCwty/C0qPt/OTIiOZgc+I3LlZ3k8/pTekZEl6sr74wvX+L1yg0HIUUgAz3XkTougJk4lhbQcOaF4ab87XXYa8jz9mFkC9d6xTJ763qW1b3m+uSE+nB2roUHq19OTJw5DJlSspjAB6Ak+e9G6OU1gYsza6EuEjRjCRRRYJKUDElCAIgiAIQvZn3DiGdL3wAg3Hd9/VwqH69GGI2aJFDNv68ksKqqgoLjciNVXzQOTOzXck9ejB7wsWMInBpEn8XqCA53cLWSzenYc/Ka8VTzzBOTOOSQmM8OdFvhkZ9vPHUlI4P+mFF+jtmzKFQqBVK3qnkpKYmGPnTs6RCg/n/LWEBK7rOBfo8mXWk2M4ZVQU50w5Lj92jMdyZPt2CpehQ/l+pTNnKDqUOJk7l+scPcr6Skqit8gonFHx++/M5vjFFzzf8HB6G595hiF57sRUfDzDL00mejAdvZh16jA0VYmpPXuYCdAbYWwyARMm8H40YutW7+6HTCBiShAEQRAEITtz9SoNT30IXcGCTNkdGcnvyoANCqIHq2dPGrgqS5sjZ88yaxvAEKnUVCYf0Bvv164B999vHCboSFoa3x1VuLD7ddLTPe/LFY0a0QPSqJHndf3JnDd+PF8qq5g2jSnYly+nd6RdO4ZDmkwMUVOUK8e5QpUqud//qVMUFo6hh6GhzD7ouFy9Q0pPWhpD8ZKTOWeuWTOWS1/vHTsy7E/vZdqzx/jlzQDD5L7+mmGhXbrQ46my5XXo4Lm+CxbU/jcSU1WrMlmGxcKBgC1b6EX1lm7dXHumRo6kNzALETElCIIgCIKQnVmyhB6DpCT75bt2aemx9eFzzzzD+VU9e/L7oUNMja0nJoahXQCN3759OQdoxw5tncREioTHH2cCC1eeBKuVRvenn7rPnBcWxvTt/tKjB+eKffihcYa4zHLunP337t3plWvf3v8XDOvZu5dzfhyxWj3PSVOEhtJLU66cc8igO+9g1aqcb3brlvN17NOHoY6RkTzn3r15vwUHG4crusNITFWsaB+G988/vr2zbPp0vlPKiM2bPYvYTOKHj1MQBEEQBEG4a+jYkQZwRoa9obpiBV+MC2iG9PnzXJ6YyCxnANNp60lNpTeifHl+Hz6coVyHDwMVKmjrlS5N78exY/zfVWa8hQspxCIi6N1Sws5m4wtjVZlfe43p2/31TuXOze179vQ898ofz9Tff9t/N5spEs1m1u/+/fS+rVzp+74BiqAOHZyXO15XTzz2mCakrl9n5sCxYxnS546dO+kB0zNpElCzphaC16IF752YGO/Lo8dmc742ZcrwPggO5rmGhPgmhl99leGWRp9nn/WvnD4gnilBEARBEITsjEofbbVqc45UinGVctpqpXh65RWO+m/dSiN00SLOndGzaBHnXAE0SG02viNIeQ/076kymzmXJ18+hlu1a2dvCF+5QvH20kv8fvYsPUgTJ1LQxMQAQ4YwA1t4OLO9vfIKU4v7M6+pTh2KwfffZzpslYLbkbAwziVKSXEd6qhnzx6Gny1ezHNU6c937KAICQ1lIoaXXtJSobsjKcn+Bb7Hj1NUlCzpvG56uvFcMv110HP5MoXZ8uXAgw/SU1eqlPa7K2GWkMCQOOXJWb+eYYPqXgB4bRs3tg/d87RfPUbCMFcuLaxv1y6gSRPtt/R03p+PPeZ6n1OmOA8IKGTOlCAIgiAIguAVVis9JDYb3+s0dKj2208/AZ98Qk/Dww9TdERFAXXravOqABq7W7YwIcCoUczSp0b3V66k4bpuHd9ZpGfIEBrieo9PXBwFht7b8tJLNM6HDOFxu3Thi4U/+ojiomtXCqvZs/mbPzz7LIXJDz9wv0aZBKtXBwoVonjxlOjAauX7pJ5+WvPMmUwUVvfdR2GoBMjq1awfPYmJfN9UdDS/nz0LjBnDF+Sq7X7+mdnyjLBYNG/d9u304pw9y3TjeqEDUHg8+ijFyfffsx705MkDrFnDlPiOoYm7dtH7+MwzFKSpqfZzxBQrVmhC98gRpuK/dYtJTTzVZUYGz+fQIZ6/Ixs3MuRQvaD4zz8p6lavBurVM97nW295zuYHsN6uXfOcDt9HREwJgiAIgiDkBJSheuQIEyIUKsTl8+czFG/aNC38y2xm+N1779G4Vvz9NzBgAH//4AN771Dz5hQUvXpRpOgxmbTsfoqFCykCunbVlhUqRG+XSohQvjzDCJV3LTiYxq7ek+IPZcrwOK4ID6fXIjPMnu3sPatQgd61yEhNrDRt6rztW29pHrHTp5kuXYVVOlKjhpb4o1Ytfn/3XV4LxzC2SpWYFt1xDpyiXz8mxzB6aXJYGL2VJhPL1qyZ8T7051y5MoX39OnM+DdvnvE2ivR0ZjisWJH7KVXKfm6X44uJHb9v3UqRXKIEhWzz5hSqrrL5JSfznho0iIlaAHoB1YusA4DJZvMlCJPMnj0bZ86cQX93N+k9iNSLINy71K1bF1FRUXe6GIIg5CB8bleSkvg+Kb03IiODYV9675MjKiufP/OIhMyTmMgwSV9QL/i9m65ZfLznuU5JSRTOd1O5DfDFphfPlCAIgiAIQk4gb177eTgAvSPuhBSQuQx6QubxVUgB3s3zut14kzTC8f7MAUg2P0EQBEEQBEEQBD8QMSUIgiAIgiAIguAHIqYEQRAEQRAEQRD8QMSUIAiCIAiCIAiCH4iYEgRBEARBEARB8AMRU4IgCIIgCIIgCH4gYkoQBEEQBEEQBMEPREwJgiAIgiAIgiD4gYgpQRAEQRAEQRAEPxAxJQiCIAiCkJPIyADOnw/Mvm7cAG7dcl5+5QqQmBiYY2SGtLSs27fVmnX7dkVamudr50+5kpOBs2f9K1MgSUwEDhwIzL6uXnX/e0JC1t4f/4+IKUEQBEEQhJzE9u1ApUrA+vXaskmTgKVLAZvNN2N8717g4YeB+Hj75f/8Azz2GHD9uvvtExK8P5Y/9OgBdOsGJCVlfl/nznFfP/3E74MGAW+/DVgsrrfZuROYP9+5TnfvBlJT7ZctWeJZgG7bBjz0EHDsmOt1BgwABg7ktXTHvn3a/0ePAhUrAqdO8fv27UDfvtp3V8TGer7GjmzZ4rrOEhKAxx8HjhzRlmVkOK+Xnu75OPXrAzNnuv794EEe6/RpYNiwLBOTwVmyV0EQBEEQBOHO8McfNMjr1tWWnToF/P470KIFsGYNMGMG0LMn0KCB+32FhADFi9O4XbwYaNeOy0NDgfLlgQIFuN9mzYD77nPe/vp1YPRo4IMPjH8PBBERQN68/m176RLrY+FCio8nngDi4jQxkD8/EOzGXK5WjeJmyhRg5Upt+ZIlwJdfAs8+qy0bOhT47DPgo49c72/RIqBDBwqfCxeAokWBIAffR0oKr6/J5Ho/sbFA1arAhg28xmfPUvyWLs3fa9Wi1/Gxx4CxY4HXXjPez4kTQMeOvH7eMmQIMG4cz8ORsDDeO5Ura8v+/BNYsACoWVNbNmkS8MorwIcfuj/WU0+5/i0sDHjgAaBUKaB6deDRRymY8+Xz/ly8QMSUIAiCIAhCTsFiAebMAaZOpdGqyJ8fKFkSMJspfHLlAho3BkaOBN5/334fiYnAd99RKJ04QXExZgwN9DJlgOXLKUIuX+byQ4do4BsZ5KVK0bvz9tvAiBFAZGRgzzckhAazL/zzDz1H8fEUicePA3nyACdP2guUoCD3QgpgfY4bR+FqswHLlgGtW3Pb2rWBPn20dX/9FXj+edf7unULmDsXeOstYNQo4IcfKEhGjHA+Zp487su1YAHLpMTyiRMUTnqaNuV1/uIL12IqJIT3kf48PPHTT8Bzzxn/ZlSfwcEM/fvlF23ZyJEUg+4IDnYvKM1m7f8mTXieYWHu9+kHIqYEQRAEQRByCqtX05PUqJH98gIF7Oc+PfMMPUYXLzrvI18+4Kuv+P/Chdxu8GCKj4gIem8WLWJonRJi5865LlOhQsDXXwNdu1JshIdn7hz1OHptvKFGDX4UEycCmze7N8zdUa4cw/3088tu3vQseBz5+WfgjTfowYqOpsdmwAD+lpGhiQP9OaekUCDoy26zAb/9Ri+Y4sgRhrw58vbbQNmy3P/cuUCnTvb78iQmfUVf9k2bgCef5DGCgijw9esVKuR+X2YzwytnzqRIPXTI/vcTJ3jPbtzI72fPAp07c7AhgOclYkoQBEEQBCGn8P33QK9ezsLg/vud5+t0724/r0axYgWwZw9D5zZt4nYffsh5Nn36MGRw1y7ORfnxRwqH8eMZ6uYo4hRlygDt21N8TZwYmHO9kyQk0DNXvjy/lyjB0LTWrfn90iXOW/OWy5fpJdq8mdvOn8/wu2nTgLZtGWJ58iSFT3Q0RfClS/RAtW4NfPqptq8FCzhH6swZergAYN06ig/13ZFlyxgSaLVS9CocxerWrQyt03t9Tp6kkHTlSbLZKBTT0xn2abHwvtm6ld67atW8r6f//qPXqkQJJuqYOJFCsGxZ1mGxYhwMMJk4gABwAADgfDiAgjeAoX4ipgRBEARBEHICUVH8nDsHvPgiM5klJFAMXboExMRwFP/GDf62axfDqyZMsJ970rQp0Lw5DdLFiznf5IsvaJRarVz+7LMUViEhPNb//ue5fN26cR7Rv/8CFSpkXT1kZHA+WNu2QMuWWXOMfPl4PvffTw9feDgNfeVN2bPHeG6UUdIIi4UJJcLCKFiPHaNXZc8ehgZWrsztIiNZ5xcvUrh07MiQxTp17Pf3wgucU6XEjcXC6zd8uO/z1hxF+fDhPMdHH9WWrVkDXLvGxBNGHh+TCejdm//Pm8d1+vblB+A96y3lyzOsMi2N3tKXX9bEWMeOFIKrV9Nb2KQJRd8TT/D32FjP3i4/EDElCIIgCIKQ3bHZgM8/Bz75hEZ9SgqTTJQuTQO6bFka4c8/z/lT+vlUjiivw7ZtFCY9ejBhwTff0FCfM4cegFdeYZhYuXKe57cAQO7cnMOzYAHLGii2baMXR5GaynPcupXHC4QX4soV1u3o0RSVJhO9Ig89RCHaqJHmAdm9m/87htWFh1OM1KtHQdm9O4XS3r1M2rBtG9CmDQWVEqk//ghUqcL1XaX51nuJ1Hf99di/n54cV0LKnchwFFPBwc4iNSWF+/AmdG7dOt5TBw/aCzJf2bePnq4hQ5is49tv6fUqW5ZiKm9efpKTtW3eeotz+EaP9v+4BoiYEgRBEARByO5Mn06hVLEixdQDD9gnDbDZaPTmyuVeSCni4jhfZ8YMhuj99BPnT4WFMcX65Mlcb/BgoGFD4PXXgTffBAoWdL/fRx91ntuSWZ5+WvN8eCI6muGIpUtT3AEMrTt1yl6QAZwHlZHB5WpO2Jw5DKMEGEY2eTLFzrRpzHR47Rq9TLNnOwuRceOY+fDwYf52+TLFVPXq/N1m43YxMUyKMXUq1wGcBZMeT6nu//qL1/zbb+3nJQH0Wo4YAaxda59NzxUhIcbLPaVpV+usWsXQwVWreM1+/tnzdkasWsW/335L71TXrtyvycS6CgujoFUCNCWF57hhg3/Hc4OIKUEQBEEQhOzMuXMc8Z86lYkhjDCZKLQOHqT4cMeZM1qWt6JFuaxhQx4nKcleKGzdytCtV16hYT5ggCZSjChQwPn9S7eT6tU18aKIj+d5Ogqy2FiGyLkTam3aUMxs2MA6mD6dno/ixZ3XfeophqmZzfScGdGiBUP3QkLoAfr1Vy53J5g8iaklSyh6L1xgaKJeUPXvTy+WCoVzxFEQukr44Y2Y2r6d4Z2XL9PLFx8PfPwx//dG4OvZsIFeqJAQoF8/vsD3xg16+S5d4hywlBSum5rKUMQnnvBOMPqIiClBEARBEITszPLlNLo9ZbZ78kmKH3diKiGBgmvMGO5zwABmeLPZ+Ll5U/MmWK1MTDFxIkPJvMmsd/kyUKSI9+d2Ozh1iuF6/rJuHZNNPPQQ5wEp75VKRqFn+XL+XbXKWahYrRRZefNS8EREaKFz6ekMWbtxgyLh5k1t7pu7lwofP84sdi1aUEyNGaMlqzh7ltd4507XYsZRJGVkUKjoX/a7ZYv2/ip3TJtG8bZ5M78PHsz6uHLFt5T5O3dynlhcHL9XqkThm5KiCfkKFRh+WqIEMxmOHEnRlQWImBIEQRAEQcjOvP22d+s1bMhkE+5eGnvffUw+AdDALlPGvWfms8/oQfE2RfnGjcB773m37u1izx7OBfOHjAymMv/kE60OQkL4Maq3kyc538woDXtGBsXNyZPMlDhqFDPWARRMx45RfMTEUFyFhVH8uksqMWIEBW9wMN8zdv48Qx2rVeN989FH9Fh6S3o60KqV/ZyppCQKM3fExfHYNWpoAs1spmfvhx+ABx/0vgxz5jDhyZIl/K4SUHzyCd+htmEDz6lGDeCRR5hpMjExy5KRiJgSBEEQBEG4F2jWjJPw9++3T45w/bqWRlqPq/kx/rJtG0VCmzaB3W9miI2lSFEvt/WW9HS+y2nCBM4BW7lS+82fd18BTNndrx8TKOzYwTlv8+fzty5dtOyJBw4wNO+FF+g1dHW806fpNdInXBg8mC/UbdSI56DeY+UKR8/U6687Zw987TXPc+WmTqU4VB5OPRs3Au++63rbY8c0wbd/P+cGPvAAxaciJUV7wbB+/w0a8N1SGzawnrIgo5+IKUEQBEEQhHuBQoX4UtjevWlcqqQGM2cae4vMZoZIuXo3EcAwM09zdgB6Bnr2BGbNcj+n6nbz228UmL6+SFh5ntLT+X4p/Qt6/Xn57/XrvD5BQRQDeqEA0JvlSEwMk0uoFyfrsdlYvh9/tA/hi4igmPr6awo2d4ktAOdraxS6aFQ2/Xbnz2thd9ev24udW7cokJ591nUZ1qzRxFTevEzd73iMqCiGMgL2YY9HjtCDp8IQFy9mdsoAImJKEARBEAQhp2A08q/n228Z+vT++8xSd/48J+wbYbUy25w+K6AjAwZ4FlMpKTRghw713QOUWbZtcz1HbP9+hs2tW+f//i0Wekn0eErGYPR7VBTwwmwEpQAAIABJREFU0kv8PyPD/TwoxcMPM0PgiBFM5KBnwgTgmWfsX6JsszHkbdkyJhhp2pThcr16uRa43ghlI/Tlj4jQQuwyMuz3qeZwufOCHjzI/QUHM+mEvmxKdM6aRYGoP/bYsfQajhpF79maNRRXAUbElCAIgiAIQk4hI8P1+4gAJjhYs4aegCtXGC7mypDOyOBHZUUzwmZzb3Bfvsw5MV9+6dvcHD1HjrhOp378OBMxLFjg/NuePXw31sCBDG/Ts3s3MGwYsGKFvVfJEU+iRiVT0GO1ct6TY6p1VabnnnNe/tdffGcSwOunMh7abHyn0siRnHd07Roz18XH82+1aszQ162bJuqiopggQokLgOXp359z4LZtoyeuYUPg1VcprLp0ATp0YJIS/fuiMjJ4XHfeSUdu3LDP2Kiv34wMTUxeuMDMhfPmOe8jJASYO5dlXL6cSSbUS371+7JYeD5162pJLF58kUkqYmO5b7OZgrlFC/v3TgUIEVOCIAiCIAg5hdRU9+IHoEdj+3Ya0gMG0JB2ta+TJxkG6AqLhaFurggKojfMn9A3RfHi9KCVKuUs/GrVcr1drVraO6GsVpbFaqUXIzGRxrq7MLf0dM91Wa8ehZAei8V14o6TJ529MIcO0WOn0qVXrcpr9O67wNGj9CT+/DPQvj1FcIkS9tsfOKC9mPjQIYqsb77h9717GdoWFERBpk/ZXqMGhdrEiRSWI0dSlP36K0PjAAq7Bx907510ZN8+huMZocTp9eucyzVlivGcr++/Z5r/OXN4nxrdo1Yr93PmDN9xBlDIrVhBr5x+bt706dzPunWsH09zvHzAZLN5kxjentmzZ+PMmTPo379/wAqSE5B6EYR7l7p16yIqKupOF0MQhByEX+3Kzp0ULjVqeF7XauWo/+HD9Fo4sn07jU53acN37sySd/dkGefOUSh4k4Rg1y6KD19TucfEUEyod3TpuXbNOSzQVbr41FR65Vy9A8oIm00Trlu28FyrVvU8N8pioUerQQN74ZuYSE9VoOa5KW9R8+as28wkOZk4EejY0V64bdzI+9FoDpzNxnOsUMHjNfXFphfPlCAIgiAIQk7BF2ETFMSEAkZJBQD3Xh9/jnc3YPQyXVeolNu+4k58OgopwLVhHxbmm5AC7IWQY9Y9dwQHM6TOEeXxChSFCrnP3OcL3bs7LzM6B4XJRE9igPEzd6MgCIIgCIIgCMK9jYgpQRAEQRAEQRAEPxAxJQiCIAiCIAiC4AcipgRBEARBEARBEPxAxJQgCIIgCIIgCIIfiJgSBEEQBEEQBEHwAxFTgiAIgiAIgiAIfiBiShAEQRAEQRAEwQ9ETAmCIAiCIAiCIPiBiClBEARBEIR7kdhY39a/cCFryiEI2ZjgO10AQRAEQRAEIQDs3w9ERwOPP+553StXgC5dgM8+Az75xLv9N20KdOsG9O2buXIKQg5CPFOCIAiCIAg5geRk4OuvgZQU58/EicC2bdr3++4Dli4Fnn4aSE/3bv/BwUCNGs7Lr18HrNbAnosgZBPEMyUIgiAIgpATCAsD8uYF6ta1X2610vvUowfw5JP+7z84GNiwAbh0SVtmswGDBgGNGwOjRwMmk//7F4RsiIgpQRAEQRCEnIBeyNy4AUyYQE/SwYNA8+ZAQgKwcSN/P30aWLMGmDyZIswbgoKARx4Bata0X75mDf9arYDZnPnzEIRshIgpQRAEQRCEnIbJBAwbBqxf7+ypAoCjR+lhCg31bZ+FCwPFiweunIKQzRExJQiCIAiCkNMIDgZCQoAnnjD+/epVICLCdVie1QosWAC0bUuPlMJi4Uet88MPQM+eQIECgS2/IGQTREwJgiAIgiDkNIKCgJs3gVGjjH8/etT99iYT8PLLwODB9EYBwGuvcTv9tgMHAoUKAW++GZhyC0I2Q8SUIAiCIAhCTsBm0zxNNhuQJw/Qp4/xun/9Bfzyi+t9mUwMAezUCXjoIdfrffQR0L69/2UWhGyOiClBEARBEIScgMUC5MrF/61WIC0N2L7deN3Dh/m7O0JCvDuupEUX7mHkPVOCIAiCIAg5gbQ0TUylpQFFi2q/3bhh70EymYAHH3S/P29Fkogp4R5GPFOCIAiCIAg5gdhYoEwZ/p8/P1OiX7gAlCjBhBO5cgG1avH3mjXtE0sYkZbG1OlqzpSrdVRCCkG4BxExJQiCIAiCkBOIiQEefZT/m80UUzVrAlOmAI0acfnly8DYsUD9+nzRrrtsfkWLAu+9BxQr5vqYO3YA4eGBPQ9ByEZImJ8gCIIgCEJOYOdO4Nln+f/580CbNsDQocCLL2rrFCkCfPEFMH8+06avWGG8r+hovti3WDGKNIXNBuzdq32fNAnYujXw5yII2QQRU4IgCIIgCNmdpCQgPp4CKSYG6NgRmD4d+PBDeqn085pCQ4HffuM7pFq2BLZssd9XWhpFktnM71OmMNwPoCfr11+BZcv4PTwc2LgR+PHHrD9HQbgLkTA/QRAEQRCE7M7kycDXX9NrNGUKsHAh5zrt38+X7x45oiWnACiKvvwSuHiRXiyF1cp06oUKacu6dQMqVaKn64EH+L1ZM87Hyp0bGDCAySyqVWP4oCDcQ4iYEgRBEARByM5cucKEE9WrA2fOAGPGaL89/jhD+xo35juh9JhMnD+l91qNHg1MnQrs2aMtK1eOiSuUGKtZE6hTR0udni8f0LkzcPZs1pyfINzFiJgSBEEQBEHIzuTNC7z6Kv8vWdL59yJFKI6CDcy+0FD77717A1262HumTCZg82YtWUVQELB8uf12I0ZIIgrhnkTElCAIgiAIQnbGGxFjJKSMCAmxF1IKV1n/FHnyeLd/QchhSAIKQRAEQRAEQRAEPxAxJQiCIAiCIAiC4AcipgRBEARBEARBEPxAxJQgCIIgCIIgCIIfiJgSBEEQBEEQBEHwAxFTgiAIgiAIgiAIfiBiShAEQRAEQRAEwQ9ETAmCIAiCIAiCIPiBiClBEARBEARBEAQ/EDElCIIgCIIgCILgByKmBEEQBEEQBEEQ/EDElCAIgiAIgiAIgh+ImBIEQRAEQRAEQfADEVOCIAiCIAiCIAh+IGJKEARBEARBEATBD0RMCYIgCIIgCIIg+IGIKUEQBEEQBEEQBD8I9mej06dPY/Xq1bh+/Xqgy5OtOXz4MBISEqReBOEe5NSpU+jXr9+dLoYgCDkIaVcE4c5w+PBhFCtWzKt1/RJT+fPnR/ny5dGkSRN/Ns+xmM1mXLlyRepFEO5BVqxYIc++IAgBRdoVQbgzmM1mZGRkeLWuX2IqIiICDz30EBo3buzP5jmWK1eu4MyZM1IvgnAPEhERIc++IAgBRdoVQbgzKJveG2TOlCAIgiAIgiAIgh+ImBIEQRAEQRAEQfADEVOCIAiCIAiCIAh+IGJKEARBCDxeTty9a/YrCIIQSJKTAZst8/vxZh+BOE52JFB1nElETAmCINwtfP01MG0akJaW+X1t3w789hv/37YN+OYbIC7O9fpHjgDnzjkvN9rm5EnPHdjPPwMvvACkprpeZ+BA4MAB9/tJSbH//thjwPLl/P/iRWDsWCAhwf0+BEHIOm7edG4PYmKAgweNPwsXApMnu97fvn3At99yv9mZRYuAp58Gbt3K3H7mzQPeeQdITHS9zptvAnPnAjt3sl30l7Q0YMMGoHdvIDbW//24w12fYERCguv+JlB1nEn8yuYnCIIgZAH//gtERwMdO/q3/Y0bwMqVwJQpwObNwKOPAi1a0CiZPh3o29f1tsWKAbVrA506Af/7n7Z81Cjg0iXg4Ye1ZSNGAB9+yI8rli8HqlQBwsIAqxUIMhi7W7oUqF+fAskVrVrxHPr0YYd55AhQq5ZW5vLlgUqVgJEjgVdecb0fQRCyhosX2bb8+itQvDiXXb4MHD7M7yEh2rpnzgCffMJnuEULoEgR5/1t2wb89Zf79io7EBoK5M8P5M6tLZs6FShVim0XAKSnA999BwwbptWdEefOAXnzuv798mX+XqIE0KABMHiw+/bw1i3g/Hng1Cngv/+AQ4eAvXuBPXuA8HCgUCFetx9+AEwm387bE9WrA6+/DpjN3q2/eDH7kjFjnH8LZB1ngqwXUyNHAvv3c7T1dnEnjukLJ08C8fH2y8LDgaJFgfvu05bFxbHhcaRyZRoonjh2DPjnH+DqVd5YTZrwYdu5E6hZ07uyHjjgHFZTtizLef6888hF/vxAmTLe7dsf9u0DfvkFaN2aDbFi715g1y42AM88A+TL5/4cgoK0hkff0AeK48fZsZQvD/Ts6Xl9q5VG9K5dHIkvWxZo3BjIk8f7Y27fzpH+SZN4Xt5y7RrQtSuN1eee8347TyQnc0Rt5Ur+vXWL96QesxmIiAAefNDY2PZEVpX9ThESAlSr5t3zDfD8N2xgO3HhAjvGjRuBP/8EHn9cu7djYoAHHrDvcByJiOCz1bw5MGAA246aNYHgYD7Tffpo6/76K9Coket9nT4NrF/PTv2HHyjupk0DnnzSfr3gYAo+V1y5Avz9N+9ptd8iRYCCBbV1nn+e4q5TJ6BuXd/ufUEQMs9DD3FAo2VL9sUAUKcOP1evAkOG0IAuWZL2z9697p/TtWuBXr28bwfvVoxsi6NHgRUr6EkCaOfNn0/h6MrQDw2lTeNO1AQHA7lyUUBMmsT2V8/Fi8Dq1bQvkpMBi4U2UHg4vV6rVwP9+tEOzQqbSM/Jk0DnzjyWNxw4ADRsaPxboOo4k2S9mNq/H4iKyvLD3PFj+kJYGA3fXr0oPjp0oNtz6VLgkUcYtvLEE3w4EhOBl17iqMObb9L16mmU4NQpoHt3/v/WW8BTT9EI6dyZBm3BgsDs2d6V1WzmyPTkyRQGkyZpowmhoTSOu3al8lciJ6s4eJB1M3Ei3bqKPn2A0aNZrowMPizLlrEOVTlHjOB2jz/O0KOwMD5wf/xBI/yHHwL3kJ07x3oaORL4/HPP60dHU3DVrg20b8/G4e+/eV4DBwLdunl3XGVIX73qm0EZH8/tWrQIrCBZsAD48kvN/R4URFd9jx48Z+WR2LWL1+K994BBg7wfrcrKst8pfDl3gPfx889rgwcxMRQ51ar5d/yGDRmCk57Oa1KzJq9frly+lXXkSODHH3lN588HChemmHPEU1s2fTrPr2RJfj92jM+wI506cXS1SBF21KVLB340VRDudgYPBk6c4P/BwXwOXnmFYkexejX7p8mT7Qcd9aSnAzNm0Lt85QoQGcm+/eWXXRvaPXrQa6w4coQDvwULUkxVqkSj/auv+PvZs+ybHT1TqakcyPnpJ/ZlANuQPXsYtjx5MtuTQoW0bb7/nsd//nnnciUlAR99RNugd2/NLnAkOZmDSHFx9LhXqWL/+5EjPP7+/WxbqlWjfVW+vPH+APsBwthYljk4mIOlTZty+aVLHDR1HGgy2s/16/xboID7Y1WtygGsS5c0wVKsmLEtYbEAb7xBOzEiwnUZjEhJYRu9YgUH9sqVY5tfvbr77YL9kB6uBlsDVceZRML87gSRkTSe330XqFgRGD+ey0+c4IPeoAHd4w8+CNSrR6Nz/nw+6J68PocOcZuXX6a4UQbF009z2aefUpR4y8MPs6yTJ9NgrVdP+61QIe5z6FCKtV69fKsHX3n0UY6cTJyoLVu5kqFNV66wIZg9mw1Dhw40vEwm1vEbb3C7xo1psCuOH6fBWLs269ydG91bihdnhzFsmOd1//6bImD0aODtt7Xldepwea1abCA+/dTzvjp2pPD21SAvW5ai3dftPPHqqzw/Nb8lLIyNfJs2FFOffcbGzmYD3n+fdXbrFjvG21H2DRt4vWvU8H3bu4VA3K8WC/+qDq5ZMw7sqAGLa9fo2faWf//lYNaPP/La/v03O9sdO7if4cNpZIWGUgyvX0/jYNIkzuuqUIH7OXOGoqxdO2DmTC5btYpeXPVdT7lybKc+/ZTP0vDhIqiEe4vvvqPR/NRTfLYWL2a7Ons28OKLXOfgQQ50/fSTsZi6fp1twI4dHFypWJEDFK++So+Rq4if8uW1th6grfDRR5o3PF8+7nvUKH5fvZp9wpIl9vtZtowe5vXraXuMGMFt69enuDp3jv3Ha69p2xw86NqLdfQobayQEK63fbvxer/9RpspLY39lF5MzZhBIVKwICN80tOBOXN4Lvv3UygqEhM5XzRXLv526hTbtbFjGX4WEsLtPWGzcZD38mXaAEeOsJ8MD2efdeQIbUnV9504QTtR2XePP04PoBIUvhIdzWvvSnADHKBfs4YitnRpHn/GDGDLFvsBb0f0Auj6ddpu+rbaZqNNZxQCCgSujgOIiKk7hcnkPNpbtixHkcaP5w0xYACXq8bIaHRYT3o6DepcuWiEOBoSJhNvOH0j5A2hofZ/jX7ParewwrHB/O8/GlDq4XztNWDrVtbh6dN8wAHX4U3lytHj9/33NCA7dQpMOc1mz4ZcQgI7OCVYHalenSKwXz+GLnpj9PsriAItpBRGHZzjfWwy8V4fO5Yx0cOG+TZy5U/ZU1JodP/0k+/b3glmzKDgL1cu8PtOTeWgSKdObH9MJoYCKy/z4cPsNL3d1+efM+Tw11+BTZs46DJuHMXz/v2cy1WqFEVTrlz0ohYqxHkS+jDn4sU5t6JzZ+0a//47y+rOQFBGoyDcizRqpCWeiYujsOrVC2jb1rt2tVcveoaWLuV8RcV//9mLJSPOnNG8yEFB9FKoAZ85cziArLxkjollFEuWsO3Inx/44AMOEOrDes1mth9q3iTAY3iKLHnhBbYf+/c7e7etVhrnHTo4D9QcOMB+uF49Cj11PhYL2zXHfj5fPorIkBC2eaVLs01UUSo7drgvp8Jk4n4ADkylpbEfAOili49nez1zJut5924OeKt222ZzFiizZnHwWY+aAjF+PIUaQC/d4MH05Kxa5XrQrmtXDoIpj9aGDcCzz7If91ZMTZ1K8VW3rrbswgXew4cOGV/XQNVxALl9YmrrVp78wYP0rowdy5EGRWIiPQaLF1OFR0YCXbqwovSGurfrZVciI/nXKDuVJ+N85UrW77vvag+FIyEhdE3fDvbs4SiQxUJDUB96lJamjX7nz88RDYBi0FH4nDmjNeKO4UsffOB83KeeYsPgSXwqlEh0bNzdlV+xfTs/99/PRkzvJtdfr6QkLZYcYIcyZw5H2j780PW1ffllYMIEjrIvWMAGcds2/lahAjuH55/n/m7d4nPRpIl9CITFwlHAkyfZMDVvbi9yrFY2ghER2jl6e31u3uS1OX+eI6ItWtgbxN56BgoVYgOblsaP6vT1+69Ykd46/XNuVPbr15nh5803ee8sXcrOt2VLlufmTYru6GjOwbNYuK27+US3k23b2D4q1NyzRYsYUuFupNBb5s/nfRIRwfCH776jgREaSmPMauV6Fy8yRKJ2bfvtzWaOHIeE0MiqW5f7WriQnXCnTgypOXuWo9x162pzCFX4UaVKrPPy5RmKkiuXfQx9UJB9ggubjc/QqFH2xpX+d/FECYLG/ffTozRwIAcXPQ3G/Pcf+5QePeyFFMDn1CghxIoV9FiVLMlwvhkzuG1QEI+p5v2mptKrpNr2uDiWT8/27dw2f37XZfT3GW/fnsLgt98onPSsXcsolWnTnMXUt9+yPZw+3V5UBAezjTNC9VEbNrCN07dN/pR/507aIx98QPs3JYXzYl99lQOCPXqwbMnJXP/sWQrAWbMYEqmO26ABy1K0qCZoLBZOKXjjDXv7RbW97uYyt21r/71BAx7HUzZBfR0EB7N/1s/J3b6dCUjcCeRA13EmuT2p0S9coAHXtCndqBkZNIpiYvi7xcLfJkxgeMacOVx/0CD7EXtv18vObNnCv3qV7i0LF/Kvo+HjyDPP+L5vXxkwgA/j88/TUK5enY0RwNHq2rU54vTXXxQMS5dS5L3+uv1+5s1jI1i9Oj0z3lznixe5rjeTG8+e5chKoUL2DYO78gM0+Dt2BNato1G6cSMFzdGjxscJC2M45LffsnG67z4KHMA5NluP+m3tWj4vr7zCEMCFCzli37s30L8/Xe3VqnHZ5cva9vHxFJfp6WxwV6zg3JXKlTmCf+QIw+4aN9ZEmrfX5/RpdrBmM4XkuHGsd3/Seu/cyQ6ralVtICA6muUqUoTnPGwYQzLV+RmVfdo0isx33uF8uLffpght3VobrT14UJtTdvIkr1kgUpEHiqef5nVVn08/ZV0sXmwvpK5d429Dh1J8jR3L809I0L6rz6JFbIfHjmXYzyef8H5QKWoffpj3fGQkn7kmTXg9PvyQz4fjQFXfvhxR7NCBmf9WreLyTp0oqtPSGHrxf+ydd5QURdfG72wg58ySMyhKkiRJXkBAQbIgCAoCgi8KCAqCoiBBhVeSkgVhAclxEZCcc05LWmDJG4DNYUJ9fzxfne6Z6Z7pmd0Fd7m/c+bsTk9Pd3V1T1U99966FRUFMXb7tvJdPaOXFHB63LwJA1pICJ5Lx1fLlggpZBhGQc6zMWJclH3S++8bP/4778DA8eWX6OeaN8d2Hx94gc6exSsuDm22fP/ggfOxcuXSP/eWLRBg3g6Us2aF4T0w0Dnl+m+/Ycz16qv224VAndSv73limydPlARgnTphDpO7Nk4Lmw3jjFq1UD+DB6PPzZsXxq98+SCC8uVT5icHBWEc5CiESpSA6M2UCSJGvojs36tfniSGun0bdSZDtY2QEidIatVxKvB8PFMWCwZ7cr7Nm29i4Ckt7uvXw3O1YQMGR0SwTsTFYZ7LuHFQqEb3S0/ExsJ67uMDobljBywEbdp4fiw58VRaIlKbvXsRcuaI49o0Mtb3xx8Ruli2LATvhg2wpDRuDE9i584YyG7ahMZhyBC4h//8Ew3f9evY//BhZeLgmDH40eghBCxreuFbGzfCze3ri8Zm9240oMuWKVYyd+UnwrMmJ6wSoYFbtAgD0TFjnM/7xx8YsE6ZojROst60JpNKZJmioyEq5s3D9e3bB9Fz7RosUuXLY4Dbv7/993/8EQPaDh3w/uefUZbu3Ym++w7bfv3VPnzD6P1ZuRLHlmFVAwdC7F296jrVteTOHTSCly/jmS9YEG0CEeq2Y0eEq8osPuvWoSMYNAielSpVnMv+0UdoXGfNQkfw99+4nzVqQGgMGABxGRODAUD79vbhIumJ/PmR4EPthT5xAkLb0WK6dy8Sfcjt8t6rGTsWf8eNwxyLsWNxz+vWdd63Xz/cMx8f7cFNQgIGTI8fwwig7jD11gtx1wkGBcEId/48RLvaqh0cDAulkbmFDPOycP062uuaNTEH2x3XruGvJxl5taYTSNq2Vbw5kybBSCPD/BwNjxYL2h2TCWMYkwntyJ9/op1ZtgxjSL3xjZGFW/v2Rd+wapWSjOH2bbQtWkm5nj7FgN2bDMXr1+NaAwJgaHzjDRg1rVbPQtOPHVPaz2+/hRNB7YERAuUvUkQxNG7ciEgwLQ++JyQloT8YNcpYZuFZs/DX3VQS9TOiVxdG7mdq1XEq8HzEVMmS9okLypWDRfvcObzfuRMWDUe3cqdOEEnHj0MkGd0vPSHDqe7fx2Dy4EFY4b1BWlvS6iGqUUM7ycSWLfZuXZMJDZP0kJ0/j+tUW4Okhb1dO6W8r7yCH9DTpxis//or6kSdgcVdlpjAQLiamzTR/rxZM4Q0mc3wSpQtC+HVuzcWvCte3H35bTY0GuPHK8etVg2DR3XWJCJcz9ixaAwd57FJi5BMAKCFev9MmZSQxPfewyBanZlIHV4nOXXKfq5b/vwQZWfOuP6ekfvTvbuy9lBcHESR/N8IN26gAUxMRCfRvr0SZrBuHbyG6t9CoUKwWgYG4vdSrJh+2f39FYOEyQThdfKksXKlJxzDee/dsw/x9JSLF1GniYkwCqxfD+GqnmAtOXAAg5yFC51j83Pnxv08cgQW34YNlXh2vYnB7sTU8uX47dapAw/vuHHKZ6NHY/AgreIM87KybRv6h5gYGCILFrSPqnCFDBNzZeDzhLlzlZDyR49QDimGDh2yb9/9/PCblsbGmBj0C8OH470MOzOS2EmPGjXwmjNHEVOzZ6Nf7NjReeHXlNTHmjUwRm3YgGteswZjjgsXXGcAdGTxYhhKz5yBIfjcOQismzcxDgkPR7udKRPGKnLNKPX87y1bEBZYvLjz3Hc5Z2r2bOdQ90uX8AxFRcGQ6spLdf48Eml16+bZGNZmg1FVnRjt5k3n5Wy0SK06TgVeXAKK/PkV93NkJBS0442SqlrOHzK6X3oiXz79uFtPKVUKA/qUrH7tity5lYQOarSSDLRvD5G4bh0GUo6NkZY1W/7I5aBq/35l0TWJqx/z9esY/K1apb9PjhxKPHaBArBwFyqERrtfPyVcyVX5Hz9WBIUarXC9Xbsg8ufPd77mcuXQAGmFO0jkZNGSJe3rWasetER0lSoY0D57BqFitcIbWqOG6+8ZuT9yMcavvoIg9DQMolkz/UQCcgKpYwhAlSr4e+UKxJQnZX9B7v/nysWL9ovresrUqZj3JuduCoFjqg0HkgsX0H451rfVis53wwZYunPmRNstsVjwGz15EgOshQsh4GJj8ZnWJPljxyDwZEx+1qwQc40aYfB47hwstgzzspM9O9ribNkwb7RDB+PrFUpjVlhYygWVEAjLl56pwEBEdkiDY2ys83fU/ZoUCKdOGVvqwWj73rcv5pWfO4d5uH/8AS975szOYkpdH55w8SLa0IAAxcNSpw5ea9fqG3sdefIE3y9bFmKqcGG00Zs2oV4/+wzt3siRECCLFiGZ1rBh9uOFd97BS6tvtFggWAcO9Dw1uuTRIxhe1dmpXaH2OlksqHeZBp8I/Ye70PvUquNU4vnMmdLi8WPFi1S0KCrS0UL/6JHyuSf7vWzcu4c6ad0a73ftcr2/EfdpShACwmTZMvyw+vVzFh5G4p4tFuONWEQELOmLF3seg9uzJ/7u3Yss69MlAAAgAElEQVSyuyu/HMBrpZh3zJTTrBlC3z77zDnDjPSw6qVqJVKSVjhO9DTK2LEIY/z8c4TfffcdxKG09ulh5P6cPg0x2rEjGnit9X+8RXYE9+/bb5fz4FylBH+ZkxDs3o1QGk8wmzEhu18/CBu1wPX1xStLFueXn5/2IC0mBp1+9eowVJQvb29o+OwzPJeDBuF+9umD/8+e1c829sMPeMbkvR06FN6oY8dQ7tWr9ZPuMMzLRKNG+D1Pnow5Qp4s/C6jQPbvT3k5jHgWXBEUhHZh+3a0F3Lc522YsKR7d/Qvc+ei3YiM1J+LnSMHjJ4HD3pmjFu8GAYox7IKASOSq8y8UVHK/0uXIgOz47lv3UK7qt5epgzE18GDSgSR/NxkSrt+8elThF/bbLhXRhIkqeulcGHMxX7rLeXVti08Za5IrTpOJZ6PmAoNxUBVcvo0HgYZolS9OmIz169X9hECLuFs2ZRwK6P7pRfkwN3Ifuq/jixejEHIhx9CoP71F+aj6B1rxgzPJty7O7/jdezfD2uPnJDqeByjVKqE69BK6qBuRJ4+xZylGTPsw76uXzd2bjl3qUQJNDjuyl+wIAaBixdj4ChJSlJSl0pMJnilKlaEhVAKfyI06jKrnwwncGTxYnjSvJ0Lkj07LDX9+6Meu3WD9y01Mtd9+SU8RY4pUN3dZ3fPE5EyT2fnTvvtz57BYppai++ltWHheXL7NkInpVHFKP7+6HwzZYIFVL22hzcd8K1bmDNXujQ61kKF7D3a777r3OGuXatvBAkKwnPcrJmyLUsWGAbq18faK+l5rTCG+bcg5zj99JPzgFMIhH3pYbVC8EiPk174+s6d8Frv26c/JSEpCXOl+vbF/N1LlxC2nZSUcjGVJw/m+S5diqkELVq4znLYoweMenPmOH8m14BSc/48xEXRoiirulxXr2Ls4GrdvhUr8NdiQT+YP7/zte3Zg3ulFqxmM8YKHTti3GI2Y15zWhIbi/4mIgKGPCPz8ojs72HnzvCaqSlRwjlRmroOUquOU5HnI6by50cH+vXXyJrSrh0GRHKy/AcfYODcqxfRhAmwjnbpAqvBpElKx2t0v/SA1YqwFS1XtyNyH3WoDBEeoN9+Uwb02bNjUGIy4QFXiwki/DgnToTlSm/NKFfnd3SBS2JicC3yByKF2p492Pb333BBP3kCb05kpJKGXD1/QjYM8vsyVWa/fkrDfuoU/j54gOuJiMC1vv46rCKBgcoaXdOn25dRi3v3lDBLGYvtrvxPnsAyHhmJBn7fPhgLOndW5gZarbg/ZjPuy/r1KEP79ko9Zs6M7VYrjufYSaxejRjgNWuURkrWkdZzI8utFso//ojwgJgYhGQlJeG5UHd0Wt8zcn+Sk9GoRUaiTqSQDA+HdUzu4yjcZdldPfsdO8KjNmuWMgdLCMR+f/ed8vzqld1isa9Pq9V+H+nFCAlBKNrVq/pl+Teh9xwLoRgUvBHKPj5YFDs1vPvqNapsNmMW6hYtkDXS0RMZGYlEIX/8Yb/9yRMkhWnbFnMRV67MWMKYYdKaDRswqJSvS5dgjJw2De1i3boIG9u7F0a9t95S5hk5sm0bxngzZ0L83LiBEEO1MfK77xCu3rgxftdHj+I7WkyZglC8gACMZ2bNwv6rV6NNOXTIPltpWJhnnrB+/dCWnj0LT7krvvoKc0YHDUKZtm/HmGDUKBhJHefi5sqlRAfYbPYD/Zkz7Zd70OLmTfz181OMinI8QQSDbNasqBvZj1ssGB+3bYt7dusWnBh6a3mlFl27Ijrgiy8Q9r1hg/Jy5f3xJuRefX9Tq45TE+EFy5YtE5MmTTK288SJQowaJcSOHULUrStE0aJCtGolxPnz9vs9fizEgAFClC+PfZo0EWL1aufjGdlv0iQhunb15tJShOF6OXAA1yB9Oj/+6FwfQghx65YQ06YJkT079itQQIg6dYSoX1+ImjWFyJ8f248csf/e5ctCNG8uhJ+fEC1bCjF4sBB9+wrRp48QV654dlGrVgnRrBnOkz+/EDNmCPHwIT47e1aIMWOU6/j0UyEOHhQiOVmIhg2xrUQJIRYvFuKjj/B+7Fhca8uWeN++vRCnTgmxdy+eDyKUMyQE55g0SQhfXyFy5RKiXj0hRo/GPm+9JcTGjUJUqaKc3/G1c6dyDU2bYlvu3Ki/jh2xrXRpPI+7dinX7K78QghhsQgxaJByrty5cR4hhLhzR4gRI7C9YkWU88kTIWrUwLY33xRiyxblfLdvozxNmggxfboQs2YJ0akTynfunLLf/ftCfPkljlG4sBCBgcpnJ04I0agRPuvWTYhr15Rr9/NzrpuCBfEchoYK0b8/tlWvLsS+fcbvz4YNQmTKJESWLEK8+64Qhw4J4eOD3+bNm0Js3ixEkSL4zvjxQly/LsQffwhRsiS21a6Na7BYtJ+9kBA85zVrCjF1qhDdu6P+rVZ8rlX27duFKFMG2775Roi7d4VYuhS/HSIhJk8WIjZWiIQEHNfHB9cjj5kCGjRoYGzH6GghwsO1Xz174tnR+mzHDiHy5RNi61b741mtQgwZIsT8+frn3LMH988V3bvjd6VmzRr8xmbOdH41bSrEzz9rHyc5Gf8PGoTnwGzGb+HCBfweFi4UYsoUIQIChPjqKyHmzROiVy+0WxKzWYgePYS4etX++Fu3oi3YtAnvd+3CcWrUwPMVFeX6OhkmHWG4XRFCiJw5hfjsM9f7BAZq95fDhyv7yN+9/MzfX4j33sPv15GZM4XIk0fpc2Ji8Fvu1Qu/8wMHMO64cwd9XUgIftPbtyttwdOnyvGOHROiTRvnfmH8ePzWx4zBuEBNzZrop7Q4fRrXoG43bTa0R8WKoZ2RREVh3xkz7I8RFoYxQNasSp2ULo3+RP19R1auRL8uBK65e3fnfR49Qv0+foyxVb58QgQH2++zdKkQnTvj/1GjUI9C4DvjxqEfnDMH25YsQdlmzhRi9mztciUmCnHxIs597Biux5t2U/arWq/du/W/lzMn+vKpU4296tRBHWiRWnWsgSdaxySE5+a85cuXU2hoKI0cOTL11V065l9XL2FhUOA2G8J3nuecMpsN2dgCAhC+k5yMEC1v0raHh8PSVbkyPAq3b8NDmZYYLf/9+0j4UaWKZ7HpWjx5Ag+J2YxMNKlxv5YuRdhGw4Y4flwcruPsWbjlN29O2fGjomD9kqFhjx/DA5ZaC2gLgTqJjsY9d7WYo6fYbLCQpiT7nYqGDRvSQemRc8WVK7gvpUt750XKkgWeOx8f/MYnT4ZXVCuFuWTXLsyTU2dxdKRnT3jp1HP7Vq5EGPWWLc77DxuGZ0umVJfnkesIEsHinTs3LNf79sGyO2kSPLRNmyItvaz/O3cQrbB9OyytM2ci8qB4cTwHBw9iHqNcR0y9bk5UFLzuM2bgu//5D8JrS5Z0X58M8y/GcLtChMgDP7/Uy+j79CkiCAoX1o9mefwY7YpjMqFjx9B+HD6MPlu9/qEkWzYs5yCT5hw7ht/4lCnaWed8fJDVs1w5+yUtpk1DxJLjIsCShAS0F+qwZRm94NhXJSbCo6YV4pycjOvInh3RVe7CoJcvh1dt82Z45iZMcO7DrFa03+fP4/oqVUKUhzoBSGAgoo6+/BJllskV7tyBh75/f/tpLhMmIKnWN9+gXXTEbEbEy5QpmHZTpgzGis9rvnHWrPCeGVkLlAjX9+67ypJIalKrjjXwZEzPYioV4Xph/lVcvIgQyLt3nT+LjERc/OTJz79cGRSPBj2pQVISOpB27dyL19OnEYbhav0PqxWhIeo1VQ4dwnw+raQWx49jzp96AHPmjH2mSIlc1qJePQz09LJyyvVBYmJwTVmyQEyfOIEY+AYNXGf0jIhAmO+77yqZHxkmHfPc25W0wmLB7zouDoN5sxm/cdnexMfDYCINMRmB9esxV7lePYgdrczHRggKwpSE7t2VeeGPHsFI1a2b9oLMe/YgdNNVtujkZIToDR78fNvLjRsxRcKo6E9M1F90OrXqWANPxvQvLjU6wzBpy7VraIB79MAgumRJDFYvXEDK97lzX3QJmZSQObOyYLI7atZ0n7TD19d5cUpX64XUqeO8TUtIERlf/0l2rur5r5UqGfdEFyjgPlMlwzDPHz8/eAL0vAHZsmUsIUWEpFOpgVwzUU2RIsiCp0fTps5JHBzJlEk7sUZao+VhcoWekCJKvTpOISymXlbGjXOfQr1YMe1VwZn0QceOWI/it9+Qfjo6GoPlTp0woT89JWxhGIZhGIb5F8Ji6mVlzBi8mIxN27bKelYMwzAMwzBMqvLiFu1lGIZhGIZhGIZJx7CYYhiGYRiGYRiG8QIWUwzDMAzDMAzDMF7AYophGIZhGIZhGMYLWEwxDMMwDMMwDMN4AYsphmEYhmEYhmEYL2AxxTAMwzAMwzAM4wUsphiGYRiGYTICQqTOPml17udRDsYYVuuLO3cGu/csphiGYRiGYTIC9+4RtW5NdP26/j7TpxN99x32uXBBf79Tp4iePTN23rNnierXJ7p/33hZW7cmWrLE+P4vkkeP3O8zZw5RSIjrfZ49I4qP1/88Jobo2DHj5frnH6KLF/U/t1qJhg4lCg93/qxVK6KlS42fywhnzhCtWkVks7neb/duopYtia5dU7bt2EG0a5fxc126RLR+Pa7fyGvUKKKTJ727Ljf4pclRGYZhGIZhmOdLpkxEJ04QlSypv4/FggF96dJE7dsTlSlD9Ntvzvtt20a0fTtRx47Onx05QlSvHpHJhPeJiURt2hAdPEjUtauxsj5+TFSihPN2IZTjpgSzmWjzZlyjj4bvYP9+otOncS5fX/3jREURTZyIgX69etr7JCYSff010d27RBMmQFROnEhUuDBRrlzKfn/+iXpfv177Gm02ogYNiKZMsd9+7hxRdDRRo0b22xctIqpdm2jBAu1ybdtGtHIlUc+eRAULKttDQogOHbL/ns2mXU+e8OwZ0X//i3py9Qxu20YUF0dUtqyy7a23iF57jWjqVAhtd4SHEw0fjvqWx7x7l6hfP7yfM4eoWjWIfCKiv/4iqlyZ6I03vLs2F7CYYhiGYRiGyQhkykSUOTNeevj5EWXJQuTvTxQYSPTpp9r7Zc1KVKMG0ZAh9tufPiX69Veib7/F4Ndb/P0xoI6IULYJQTR4MFG7dsZFmRaRkUTff4+XnkCoWZOoVCmiYsVQJ3rcvk30++9Edero7xMYiLr48Ue8L1aMaNo0XKPkn38gsjZu1BeL/v6oA8c6nzOH6NYt5+1HjkCEaCEE0fjxRIsX41rVTJsGEXbgAF537sBbFBSE+y65dw8vR2bNIvroI6Jmzey3+/lBILkSUkIQ/f03RJC63v39id5/n+iHH4yJKR8fogIFiLp1w/uICDz38v2OHRCfnTvj/eTJRIUKuT+uF7CYYhiGYRiGyQhI4WCzEYWGwguitw8RUd68RBUrwqPUsKH+fjduQIAVL44wrs2b7YXU1q1EefIoXgAjmExER486hxK+8w7+Wq2uPUZ6REcTffghQgjV3hhHcuTAywj+/vqizGyGN2XdOuxz9SoEp9qLFRdHNHAg0fLlEHB6eHO9eqxfT1SrFlGLFnjfuzdRhw64R+vXwzOXNy8+69sX9zYuzl5MZcuGcNBSpfA/EVFCAsRjkybO5zTiUTx9Gsdo29b5sw8+wPMoMZuJ/vc/iMgsWez3TU7Gs7NtG95fuoRnXr6/exfnkvc4KoooKcl9+byAxRTDMAzDMEx6JigIlvj8+THv5uuvic6fJxo0CKF6JUoog9EDBzAInTYN7wsWhAB48019wXDhAtHYsUQff4z3e/bgpT5/+fKei6lWrZxFXEoQgqh/f6LRo10LKU9xNQdo5kyiL75ACBkRPC7Bwaj3vHnx3V69iLp0UYSNHqkR3kgEUbR8uTIn6tw5eMZGjEBo3PjxCO8kwrylbNkQguh4/nz5EHaoDsf75x98t1MnZyEcE4Mw0itXiAYMgFfMUdDPnw/voxBEI0fimStY0P7c8tl8+BDz8TJnxtwvNT4+RI0bQ8QTwVNGRPTll/Bsjhtnv3+LFkTlyrmvOy9gMcUwDMMwDJOeadMGrzNniObOVebcCIHBb+/emF/TqxdR7twQWjJkzMgcJX9/okqVnMPMJOHhREWL6n/fZkOIm3qOlNY5Dx2CIPN27s7OnUgWYUSgbdsGb9IvvygDcj30Mt+dPo0wwOnT8f7kSXh8Tp2CkBKCaNgwouzZiYoUgXdq4ECi11/XPp7JhLpynMO2fz/RkyfO29UJHCRmM0TTr79ChCQkEH3+OTx19+4RHT+OZ0Hy118I27NaEX733nv2xwsJQYihDOnbsgXheEFBOF7RoopHLTgYXrlTpzB36c4dezEVGQmBV7ky6uGnn7TrQdZlkSLwmDkSEwPPlJagCw6GcFVvT0iAEeHdd4mqVtU/p5ewmGIYhmEYhskInDiBgWafPvBAvPIK0erVGLQGBhK9/TbCnmRGOSGQVW3SJISE6SHD16THwJFjx5DoQQ+TCV6BH35QEjK8+irRvn3wPBBBRAwbhpC5QYM8v3YiJFT48ENj+yYlYc7RjRuu93vwQFtMJSXBs1a5Ms5ZpQpEyYYN8BAmJkJQVKiAUDUfH4Side2K+zJ7NvZTY7Vi3pvj9fv5QdA4bj9wwLlc8+ZBOJ05gzq+fRvzvYoUIfr5ZwjH4cMxr2nfPpxvwQKE823ZgjlY6qQZzZvDK5k3L+bQbdyIV7VqEDSZMin7HjwID6nePZg+nahuXYQNyu8dOICQSPX8MiKEky5YgPuTL5/9ZzlyIJzT3x/zpqQwl8/1G2/YJ0fJmxfzzlzNJUwBLKYYhmEYhmEyAjt2EOXMSdSjBwb6oaEI4cqRAwPPsmXhOUhIwP7BwUR79zoPZB0xmdx7ptx9Xwh4NMqX19/vm2+Iund3fSxXnDiB8DIj+PlhQJ+Y6Hq/pCSErjmSOTOSGtSsiflj48ah/HXqoByzZ8MjpE5c8eqrRIcPQ8AOGgSvkBqz2V6ceEPv3hBrb72FMLnevRF6ePIkQvlatEAdv/EGnoUyZRC+uXcvvHpqISUZORLzrXr1gnipVg3bx41DtkfHBBdaPH0K4dy/P7ylkgIFILKGD7ff/9IliFFHIUWE5+n99/F/jx4IUfX1xfUWL47vSvbuxfZdu1wnGkkBLKYYhmEYhmHSO0lJyppDzZoh2x6RYqE3mRAuVrAg0pITEW3ahOxnWmFnVqtiyXe3bhARhIArjIqElMwbio1FOnIj+PjAS+MuJDA+HnOAtJDzdHbtwrm/+w6CISKC6I8/tK8lVy54dnbv1i6/OgGEN2TLRtS0KQTgV18RLVyI+9iggfvv6t3nzJnhMaxZE38lH36I4164QBQQ4PrY06bh5bjWU5UqOE6vXvbZ9s6etT+XHocOQRxKz+rAgfaf378PY0IaCSkiFlMMwzAMwzDpn7VrYfWfMgUD6Xv3EL4XFYVBbFgY5rJUrw7RZbFgftXGjdrHS05WxJTZbB/md/485uvItNPHjiEczBVGRZIR4aZHiRKK180dRsuTLZuSyU6Lc+eQzXDyZCWcsVw5e++Ims2bEVKntTbU06cQeXv32m+/ehVeI8ftYWHa5xAC86YGD0aadiL7THZJSfDIWSy4t4mJuN9aHjiJFHkyLJMIIY4BAUTLlkG46SHnsZUtC6+dEPafV6uGOV5yDtXDhxC66sx+evj6Yv6W3gLUJ08aO04KYDHFMAzDMAyTnhEC811+/RViys8PIVjR0UiyMGQIMqsNHYpB6uefQ0i99pr+WlHPninJA954A96XPHkweF2zBsJBhv116uQ6AQURBuurVrle68dsdj2gd0ft2vAiuZr/JfHGA3biBM4h+ftvZPJr0wZpvUuWhFht25bo5k14tQoXhuflp5/wef36eMXGOofU3b+PuU2OCTGyZIGwddyuFZ6ZnIz5a6GheOXKhVC+smWRgEGW+8oVJaPf0qUI+XQlZEeORObCkSOxCLDM3NiwoevQTSJcU5Ei+N9RSBFhHtWECYqYOnTI9Rw8R7p1wzG0EAJiLg1hMcUwDMMwDJOe2bmT6LPPnNcpunVLSQetHijXq4cwwEOHlM8cM+jdvKkMvosXh/fpv/9FaKDk9GkkCOjQwXUYlRAQSu+9p732lWT8eO8z+RFhvaQffzSWhMIbMbV3r72YKlcOgqZmTWSQU4fotWun/J81K+ZOyfTpely9CnFSvbr99kOHcI8ct8t1otRkygRx06QJwt/UGRQlHTpAIKt5+lQ/FHPLFnizevdGGUeORPIKIoj2AgVcX5caIZwFVdWqWBcqMRHC8eBBhP0ZZckS7bBJIsxRe+UV48fyAhZTDMMwDMMw6Zls2TB3xTHsa/duxcKvzkiXOzeSIchB5rJl8DaouX4d2duIMNDt1AkiJWdOZZ+aNZGy+403kMRgwADtOT8PHsDzUamSfQY4IZB9UHpozp1zTnXtCW+8AU/Qpk3OKb4d8UZMOYbuVapEdPmy87GePXOfbl2L/fuVeVhqrFbPwh9nzLB/b7EgOUmVKvrfyZsXgrl4cSU0kAghd9OmIYzUZIIX6JdfkHSkYEHP1/MSwvlaypYlatRIWQvt/n3l2TNCv372iySrmTIFz28awmKKYRiGYRgmPSOTC6gH3UJgYV2ZMU6Gz02bhvV+kpORNr1LFwgdNdeuwVuQMye8W927I6FCy5bO527eHKGE//kP0nJfumTvXRICg/uff8b70aMREiczwH3+ObxkFSpAVA0dCg9Io0be1cXvv0OQBAQ4e1/UmEyehRSazfDQREfbh+dFR2NezvHjSENeqhQy6b35pmflTkrCfKTly50/0xNTWiFz6s/OnoUI8veHEHblFSSCcPL3V8RUYiLuV2Cgcs3VqyOkMyLCu4WRbTbnchcpArFHBJFWrpxnYnf2bMxF0+LIEf1Q1lSCxRTDMAzDMExGwGZTBMLGjfAWZc+O9++9h4H6xYsQUdevY9BPhIVZ1SxYgLWFzp9HEotVqxAutm8fEjxs2qR4EYgw+N2zByFwjx/bz58KDCSKi1Ped+qE9a7u3oUXq0sXlO3iRYQpjhmDAfupU0qIoif4+yPsa9w4DMxbt9ber2RJoqNHkYHPcb0nR2w2hItFRCC9+BdfYFuzZgjB69gRdf3VV8ayxkVHo46HDlVEw6ZNWGdL6/tms+JZvHEDYjhTJtyfTp3s9711C56jf/6BwB0zxnmxZLkekyORkfBu1qyJ52jqVMxjUs9zM5kw365SJbwPCcGcpFKlnJ8jLaxW53W7TCYl2cnOnUracyKE/M2fj/rSS+E/cKAxz1RMDJ5FOX8rlWAxxTAMwzAMkxGw2TDwvncPoWYff4zt8fH4LEsWDExNJoT4LV2K+TNy3SAiDNZfew1CZscOCDA54H/jDXgBAgORhEJN2bJIUqFOTb56Ncqwa5eyrXZteK7i4iCmmjWDuEhKQrhi6dIQeVu3er94r0zAceIE6kNrEF6xIrwZly+7P56PD1HjxkSffqpkLfTxgRArXx7CTDJ7NoRqsWLKHLa2bSGWtm3D+6goiJYzZyBcrFbU9axZ2ue3WhVvUZ48EHDffAPh6phsIyAA937jRngXHalWDVkfmzd3nmO3YwdEWr9+8B4NHqydybBtW/vzHTtG9Mkn8HD27at9DeprsVgQ0jl3Lu63+hzx8RCthw8rdVW6NMR1vXqYpyc/I8K1rlrlnHJdcuAA9vntNwiyhATMfXOXMMUDTEK48hFqs3z5cgoNDaWRI0emWkEyAlwvDPPy0rBhQzp48OCLLgbDMBkIj9uV+/eJfviB6H//U8KyrFasNdS2rbZF/sYNhOf9/DNE061bSpY3Pa5ccT3/RhISggH2O+/Yb793D3NzJI5zjIKD4U2RXrWMzuXLuH69tZqSkhTPjeTIEQhSdynpHbFY4O2JjXX+LHNmZMXTWrjXHXFxeIZGjHB93/bvh7iV2QA9JTER4q1ECe/KSeQ+3T15NqZnzxTDMAzDMExGoFgxeJ7U+PrC06BH+fIIC5O4E1JExoQUEbxVZcs6b1cLKSLnZA3ust5lNNxlm3MUUkTeixE/PyW8MzXJnh3eQHc0bpyy82TJgkyF/yJSkH+SYRiGYRiGYRjm5YXFFMMwDMMwDMMwjBewmGIYhmEYhmEYhvECFlMMwzAMwzAMwzBewGKKYRiGYRiGYRjGC1hMMQzDMAzDMAzDeAGLKYZhGIZhGIZhGC9gMcUwDMMwDMMwDOMFLKYYhmEYhmEYhmG8gMUUwzAMwzBMRsNqTZ3jCJG2x2fsEYLIZkv949ps+vfyeWI245UauLue53S9LKYYhmEYhmEyEsHBRHXrEl24oGzbs4fo0SPPj7VvH1GbNkRRUfbb//6bqHlzoqdPU1bWlDJhAtHixUTJySk/ls1GtGQJ0d69eL9wIY5tseh/58oVonv3nLc/eeK87dYt9wP8CxeIatQgunFDf58//kD9uztWYqLyf3AwUZUqRLdv4/3Ro0SrVrkXxUlJnosSx2dFzePHRCVKoN5SSrt2RP/8o//5kSNE3bsT3blDtGNH2ohUIvJLk6MyDMMwDMMwL4ZNm4hCQ4ny5VO27dhBNGIE0eHDGIDevEnUqxdR7tyuj+XvTxQZSZQjB1FICFHZstieKRMG4nnzYuBfrhyRyeT8/YsXic6dw6BW6/OUcu0a0cmTRN26eX+M0FCideuI5s0jevCAqFkzooYNUUf376Oe9ChalOjNN3F9336rbJ82DeL1lVeUbVOmEH35JV56bNlClDUrUZkyGPz7aPg9LlyAMGvdWv84CQlE5csT/fUXUePGRHfvEvn6EpUujc/r1SPavp3otdeIli8nql5d+zhnzhCNGUP0zjv653Lk11/x6tzZ+bNMmSDAq1RRth0+jLquXVvZNncuUYcOKLse158liGkAACAASURBVK4RFSig/3mmTERXrxKVLIlr/PprouPH8UynIiymGIZhGIZhMhIrVhBNnEhUrJiyLXduDJj9/DAI/+knDDJXryZ6+23778fEEP3yC4TS7dvwsgwZQnTqFNGsWURBQfAwhIcTzZgBb87HHxMNGuRclqpVieLj8f3JkzHATU38/Ylq1SLKnNn4d27eJDpwgCgsDELq7FmUa9Mme1Ho54c6dCUC8+RBnbzzDtHo0UQnThDVqYPvlimD65bMng2hpofNBq9TkyZEM2cSbdgAIdenj/1+fn6oV1fl2raNKFs2iEIiiK/XXrPfZ8wYeNW6dCG6fl37OP7+8Oyor8MdM2cS/ec/+sdzJCaGaPx4ounTlW2rVhFVrOhaTGXKRJQrl/7nfn5EWbKgnkaOhDcuOZnFFMMwDMMwDKPDqVMQOY7elNy54a0gwuDym2/gadqwwVlM5cxJ9OOP+D8oCJ6pmTOVz6tXJ9q8GR6GL77Ay1UIVZ06RNHRRAMGQCykpofK19fz7+TNS/TBB4oAW7AA4qp8ee/K8NZbRGvXYi5QcDCuNyEBA3lPyrtxI9Hrr6OO7t2D+KpY0Xk/I/W3YAHRwIGKZys4mKhaNefjTJ9ONHUq3t+6BQGoxs9LqaDlUXPcHh4Oz5KfH0Rpq1bKZzlyEDVqZOwcao+p3rlMJqKPPkLdfvGFsWswCIsphmEYhmGYjML06Qg3c/QA5ctHFBfnvG9YmPMxzpyB54mIaOdOzL2ZOxdhYaNGEUVEYF5RVBQ8ILGxRGPHEq1caR/WpqZ5c8zzmTGDaPDglF9nSlCHP3qLnEclxUbr1vBs1a+P95GRRKVKGT9ecjLRd98Rbd2K94GB+D8sDPOWNm7E34IFIXp8fCBAgoLg7erQQTnWjh2o69atiZYuxbb9+4kaNFDeqylVCs/Mzz9DFL73nvKZoyh6+hRiVE1cHMR0zpza1yYEQijj4/EsWSwQcAsWQNS6E01qrl8n+t//MO8qLIxozhyigwfxXG7fTlS4sOKtevgQonTaNPfXkAJYTDEMwzAMw2QEbt0iWrYMc2o++sjeM5I/Pwaf9+4RPXuG19atRH/+iQF5jRrKvgUKYD5UjhyY81SjBkLPmjSBZ8XfH9srVkQIYM2aCBd0FXJFhDkrr75K1KOH67kuqUFgIOYylSuXNsdPSiLq2hVzpT74AJ6P48cVIXL5Mq7TKGPHYn7WsmUQq1evQpxMmYKQTSkMPv0UIqpQIcx/un3b2StYsya8WnLOkhAQsEuX4ntatGqFUD5HT5SjmPrkE3iBihdXtu3fj7IdPqztyTKZEKro74/5en5+REOH4kUEr6BRKlSAgLLZEIo6YADqiAjPfZs2CNusWhWi+Z9/lBBFIdJk3h6LKYZhGIZhmIzAmDHIcEaEsLqJExXREhWFweaRIwj5y5MHgmvwYOckFCVK4HX/PgbrvXsjNGr6dAxmz5yBdX/aNAyuW7Uy5u0pUgQhcKtXIwQttThyhOi335T38fGYc7NuHeZz6XlMPMFigRjp1QsCI3t2DOZffx1ewGbNFFHz8CGST7z5pv0xfH2Jdu+GqLh+HfOZ8uTBXJ7WrRE6OWAA3mfPjjlof/2F+UcrV8LrUrkyhHGxYvg/d277uXFE+HzAAOV9SAiSWuh5DV2JDK3tb70F0SJJTISwcxUSKOcp7d6N85nNyjZvBM6NG3jGv/6aqG9fzFnbtw9lO34cnsGePfEsSIYMQZKLDz/0/HwuYDHFMAzDMAyT3jl2DAPUDz5AAopChYjGjVM+N5sxD6pdO2NJIGw2DMjnzoVQCA/H8SZNgkdhzRqIgy++IGrRguj335Ehzh2vvYYkDakppurXd05+8fXX2vueOgWBUrgwBAYRwsRCQuwFGREG5VYrtp8/jzCyx4+RFZEI4mT0aKKAAIi3Fi1Qb19+ibk5jokOhg6Fx0jOGxsxAvdL1psQSIjx+DE8h7dvK+nN/f2VOW+OuEv5vXs3BNfOnc6fJSQgvG/FCntvkx4pTd6wfTuu87PPUG/Dh3t3HHktw4YRtW8PQe3rCyHp7w/vWZ48Sv3ZbLhGPUGZAlhMMQzDMAzDpGcSEuCFWrIE82W08PfH3Jjr1xFq5wqLRbH4y+xzX3yBNZf++ANJK/LkwfaCBTHX5623kNFv6lRFpGhRvDiy6b0oatZEWu5s2ZRtCQnwrDkKsvBw1IVWlkLJ2LH4O24c0m+PHQsPSN26zvv264dwNx8ffW/MhQvwujx6hHA1Oc/N1VpP7sTU5s1EbdtCVMmQRElgIEL09NbSciynXgINI2tR3biBuvbxgahs146of3+Idk8TiQQFwWBQuDDC/vLmVcpqMkEcX7uGclmtSJ+fLRue6VSGxRTDMAzDMEx6Zs4crOvjbs2oGjUQQuZKTEVHIwzv66/hferRA54fsxnhayVLKkkMbDZ4ZmbMgEgrXtx9yFZMjCLEXgQmk72QIsIaTAULen/MixcxXywxEaGW69ejDitXdt73wAGIiYULnetKCKJ334V3xccHHpfJk/GZ2ax/fldi6ulTzGVauhQL5QYHIxU6EYTakiVEixYp60+5w2ZDqvSLF5VtDx8aE1N//YXnauBAhAQuW4YskZGREEVGCQ3F/kWL4n10tPIMLl1KdPo05p3lyYMwV+l1HDbMu+yPbmAxxTAMwzAMk54ZMMC1N0jy5pvI8vbJJ/r75MqlfC7DAV15Zr75Bh4GoxnyTpxAONy/iYsX7ecYecrUqRBBAQF4LwSOOX68874XLqCutESn1YpFe4OD4VXZsAFCgwieo0OHIApOnUIooExUoedVIkIWvW7dMG+sTh2EYzZpAq/Ojz8ik546JbkjjiLJYoF4iYhQtsXHuxcpyclEu3ZBaMq6zpMHXs3Zs5W6M8KCBRBl77+P97174++mTXge4+Jwje3bwxu3ZQvmU82da/wcHsBiimEYhmEYJj1jREgRYcA/ciSy+ulldVNjdH6M3ppCjoSGIqX6vHnG9n8eJCRgbtSKFZ59z2zGdZw9Cy/TxInKZ76+eGmtM+Xnh+QSemWpWxfHjo7Gel5y30aNiDp2xFygu3fhZezWDdkDS5TQPl5sLITHkSPKtlGjkIBhyBB4Hk+ccH2djmKqZk14ttRrcmXN6j7V+IoV8GJqicjjx4maNtX/blSU4nUNC4NXqkoVe4+czQbBlj27/fb69TE3bdo0eCRtNuPPq0FYTDEMwzAMw7wMVKhA1Lgx1hRSC5rAQGQ+c8TXF6Fhjuv0qElOdj9nhwj7DBwIb40RIfe8WLsWnjJPy+Tvj+v5/HMIHHWYmjfZ6RITIUrKl4e3KVcuhN5JQaY1B+vsWYiukiW1j/n99xBN6jT0lSoRvfEG5lAdOeJeBDmKqVGjnPfRKpv6mYiPh7eoRQuEHTqKoL17kSlSjxUrkBKeCPPtpGdLfZxz55AdkQgePknu3PCmde2K98uWaT/rKYDFFMMwDMMwTEZBCNfzV37/Hem8mzTBfKioKISV6VGlirJOjxajRxubLzNhAlG1aq5DBtOCmBj91OhPn2JO0vr13h3bxwfrGZ075335JKdPK+F2Npu9INCjenV4iaxWZ8/O4cMIBZRrMEnOnoU4adkSyRgWLSKqVUv/HEaEshbq8j95oiR+sNnsj7luHdKau1qjTJ2wRC6KLM8hj7VsmSK4ZNjjoUO4/g8+gEf2999dP+tewmKKYRiGYRgmo2CzuZ5DU6ECsvL16oX024ULOydkkBgZ0Lvbz2ol+ukneG88WcRWTUwMFsnVIiEB4WzqOTySs2fhkVi2zHleUFQUsg/On4+yuSq/Kw4edA6HtNmwgLJjqnUirNGllWxh82ZFaJrN9td7/z7E1pMnmEN16BAy40VEwMvUvj2SQMj7+OAB5nEtWaJ4ySwWJGkICsK8uUqVkPyhYUOit99GVr2333a+FqsV53XlnXTk2TN4LCXqlOtWqyK+k5JQ/2vXOh9DZuSrXBnp1GvVUrxLEvms378PL2rNmtj+2ms49rhxWJg6d27MF/vuO/vEGakEiymGYRiGYZiMgtmsrK2jx/vvY25Jr17Y9+OPtfdLTkbImZYoUO/jKtPctWsYqKckW969e8jSVrq08/ywt9/G323btL87fTrElnquzJkzCG10l/jAatUXcRIfH/uFYYkwwC9TRtsLd+uWku5cEh6OpBTlyuF90aIIx/z+e2Sos1gQmta2LVLVL14MAWgyQZisW6cI6MeP4XkKDESIYHIyMgvu3o05c7t2KQLriy+wWPCoUViEN2dOeHFmzCDKnBn7mM0omyvvpCOLF+vPS5LltFhwfb/+SpQjh/N+PXsi+97QoQjBVM/RkthsENNbtyKZBhHqw9cXQnrjRiVMMigIdXf7Nr5jdJ6hAVhMMQzDMAzDZBRy5VJSX7vi3XeJLl+G1+jRI+19ChTAgLdtW/3jJCW5FkpVqrgvizuqVEGYYGoQGgrPya+/ut/39dfdZ5n7808cU03x4vrio2tXZ2Hw8CFEg0SGstWujfPXrQtvkxQ4akwmhPTJbHo+PjiW3H7jBrwyel7BChUgtq5exTpZI0bYnycgAMLME44c0U6+QQQB1KkT0aVLEJt6CwWPHo2XK5o2RRr5QYOUzJObNmERZMfsjKVLw7s3Ywbq25U30kNMQhgJdLVn+fLlFBoaSiNHjky1gmQEuF4Y5uWlYcOGdPDgwRddDIZhMhDcrjDMi8GTMX3q5gZkGIZhGIZhGIZ5SWAxxTAMwzAMwzAM4wUsphiGYRiGYRiGYbyAxRTDMAzDMAzDMIwXsJhiGIZhGIZhGIbxAhZTDMMwDMMwDMMwXsBiimEYhmEYhmEYxgtYTDEMwzAMwzAMw3gBiymGYRiGYRiGYRgvYDHFMAzDMAzzMiJE2u7PMC8BLKYYhmEYhmEyAnfuEF2/bmzfp0+JmjQh2rvX+PFbtyZassS7sjFMBsXvRReAYRiGYRiGSQXu3SPq0oXo66+dPztzhqhyZaKsWfHebCZ6+21sb9CAyN/f/fEfPyYqUcJ5uxBEJlPKys4w6RQWUwzDMAzDMBmBrFmJChYkGjLE+bP69YlatSL64APvj+/vTxQXRxQRoWwTgmjwYKJ27Yi6dvX+2AyTTmExxTAMwzAMkxHwUc3eiIsjunyZqHZtovPniT76yF5I3blDtHMn0SefGD++yUR09CjRs2f22995B3+tViJfX+/LzzDpEBZTDMMwDMMwGY3kZKKmTYnGj1e2TZum/B8cTHT4MNGHHxJlzmzsmCYTvFsNG6ZuWRkmHcNiimEYhmEYJqPh70+UPbt2yB8RvFLh4fpCymYjun/ffo6U1ryoQ4cQQujDOc2YlxMWUwzDMAzDMBkNHx+E+qm9UWqCg11/32QiKleO6IcfiHLlwrZXXyXat4/o7Fm8t9mIhg0jmjqVaNCg1Cs7w6QjWEwxDMMwDMNkNEwm956p2bNdf18IovffJypfXn+/b74h6t49ZWVlmHQM+2QZhmEYhmEyAlarErZns7nf32x2/XmmTMbOy2nRmZcY9kwxDMMwDMNkBJKTFTFlNtuH+cXFEf3+u7IGVXAwUVKS6+MZFUlGhBvDZFBYTDEMwzAMw2QEoqKIihbF/5kzE50+jXlPvr5YG2rhQiXsLzLS/UK9yclEq1YRFSqkv4/ZTGSxpE75GSYdwmKKYRiGYRgmI3DzJlHVqvhfLuBbqxY8UpUqYfvjx0QbNxJ16aIkltBCCAil994jKl1af7/x4zmTH/NSw08/wzAMwzBMRuD8eaQpJ4JXqXNnpDYvXlzZp3BhoubNIZIGDyZ6+FD7WA8eIBSwalXMncqRA6/s2RHWJ9+fO0cUH5/218Yw/1JYTDEMwzAMw6R3rFaiS5eI3noL4qZrV6KWLYk2bSIqVcp+37JlibZtI7pyhahiRaJr1+w/F4JoxgzFmzV6NEIGJZ9/TnT9Ov7PlYto7FiiAwfS7toY5l8MiymGYRiGYZj0zoYNRJ99RhQbS9S/P9HQoUg2cfkyUVAQUWAg5k5JsmeH0KpalejUKftjBQYiYYWkUyeit98mSkhAUoouXeDZslrxfswYorZtEWbIMC8ZLKYYhmEYhmHSM8nJCMn74AOiCxeI5s8natwYn1WujL9jx8JTpSZLFqJ164iaNFG2rV5N9PHHEFCS2rWVRYCJiJo1I4qOVrIBli4Nj9jWrWlzfQzzL4YTUDAMwzAMw6RnIiOJhg2Dl0iKKImvL1GbNkTHjhFVqOD8XZn9T1KrFjxZTZvaH+P0aaICBfA+a1aEFGbLpuzz00+Yn8UwLxksphiGYRiGYdIzjoJICzn/yR1ly+LliDqJBRFRnjz276UHjGFeMjjMj2EYhmEYhmEYxgtYTDEMwzAMwzAMw3gBiymGYRiGYRiGYRgvYDHFMAzDMAzDMAzjBSymGIZhGIZhGIZhvIDFFMMwDMMwDMMwjBewmGIYhmEYhmEYhvECFlMMwzAMwzAMwzBewGKKYRiGYRiGYRjGC1hMMQzDMAzDMAzDeAGLKYZhGIZhGIZhGC9gMcUwDMMwDMMwDOMFLKYYhmEYhmEYhmG8gMUUwzAMwzAMwzCMF7CYYhiGYRiGYRiG8QIWUwzDMAzDMAzDMF7AYophGIZhGIZhGMYL/Lz5UmJiIj158oRCQkJSuzzpmrCwMK4XhnlJSUxM5N8+wzCpCrcrDPNiCAsLo4SEBEP7eiWm7ty5Q1u3bqVbt2558/UMS2hoKMXHx3O9MMxLyO3bt2nEiBEvuhgMw2QguF1hmBdDaGgoVaxY0dC+XompSpUqUY8ePWjkyJHefD3Dsnz5cgoNDeV6YZiXkIYNG9Lq1atfdDEYhslAcLvCMC8GOaY3As+ZYhiGYRiGYRiG8QIWUwzDMAzDMAzDMF7AYophGIZhGIZhGMYLWEwxDMMwDMMwDMN4AYsphmGYfwtXrhBZralzLCGInj3D/xERRHFxqXNco5w5g5crHjzw/Lh//kn05An+j44mSkz0/BgMw7w4kpKIIiP1P4+OJoqJeX7lSSuOHCFau5bIbE7ZcS5fJrp71/U+e/cSJSen7DxqwsJS71hpzaFDRFFRzts3bSIymEAipbCYYhiG+bcwYQJR3bpEsbHeH0MIosOHiVq3JmrQgCg+nujECaKKFV2Ll6NHif77X+d91q0jOn+e6NEj5fX110SXLrkux6JFRN27Y+CkxzvvEP3xh+vjLF+uDCSEIPr0U5SViMjXl6hvX6KJE3GdDMM8fy5eJDpwwH7bkiVEX3xBNHky0bRp9q+WLYmaN9ceABMR7dlDVKsW0dOnaV/2tOT2baKxY+233b+PdkzNtWuuj3P2LOrLlcCcNIno55+JNm4k+vxzz8VQZCTRrl3ogxo3JipShGjxYs+OYZTAQAhMi8XYa/Vq9GlaCEHUvz/RJ5841+uKFUTff++8PQ3wKjW6R2zZAmU4cGCan+qFnvPfiM2GgVFEBFHJkkT58mF7eDhRwYIvtmzekpREtH49UYUKaGwdefQIjcCLxmol2raNyN+f6O23Xe8rBNHDh7hP5csTZcv2Yu9RZCTRsmVEPXsS5c2LRnnZMjRY2bO/mDJpcf++0mH/m8qVEvz9idq1I8qRw7PvxcfDOrdtG15lyhA1akRUtSpRQgJRlixEpUsTBQToH6NePXQ+DRoQhYTge9myEV24gO0dOyr7BgYSvfIK0auvah/LYoFFdvVqokyZiNaswfd9HOx3Pj5E776rXyabjeirr4hGjMB9Dg/H76VFC3yePTvRggVErVrhHIcP41oZhnl+VKlC9OabRJ06wdBCRNSrF14REWhDGjUiMpkgLipXJurdmyhzZu3jHT5M1LUr+p/0TKZMREWLol2XTJ8O41DdungfH0/07bdEGzYQvfee/nHeeIMoZ07X56pfH6Jr1y6Iq6lTlc+fPSM6dgz9e1gYhGpUFO7PP/+gPS9blqhYMaJu3SDI8uVDe2sypbwu1Hz6KeogVy5j+y9diut6803nz9auxbX/+adzOf390Z/J7Y8fExUunLKy65D2YmrVKqKDB5+vsHkR5/SEQ4eI/voLAxJfXwgDHx8o9VatMHjInRtWjc2bYSlISIB46NWLqHNn14Ot5GRYg+TAqFQpiMuwMPwgQ0KI5s83VtaVKzFYOX4cZfrqK6IuXSBYzp3DdcyejX27dUP5GjRIeR1pcfEiGuqtW2H1VoupK1eIxo8n2rHD2SKzZg2s34cPE+XPT/T660RZs0Jo+vrievr2tW/wUsK9e0SjRuH+jhrlWkwFB6NTKVWKqHhx1HORIhBXjpa+58HWrURDhsBS9t57CB348ks8iz17ei9anj2DCP7lF9R7vny4ZikgP/+cqFkzz465Zg3qt04dz7/7b8Xf37OO684dot27YWQoW5aoTRvUS1CQ/X5Gjzl2LNHp0/h/3TqiDz+EYaBWLfy+Jd9/j7ZEj02b0CkfP47yTJuG+9+unf1+vr6uy7NvH8r+2Wd4f/06Bm7q32qWLDjHa69hoFCsmLFrZZiMhhwgExH5+WHg6NivRUejj6pSxXW7YLPB+xwWBiNM5cr6+/v6Eg0fTjR4sCKmJAUKoJ3q3x/tSZ8+MOy4Yts2DJIlT55g8F2tGtGtW/i+uixHjxLVrIlBtRaPHqEdCwhwfc2RkfD+lCih3TZFRiLkzmTCOMKdGNA6hp8fjNtDhihlmzKFqG1b/eP4GRiqq881cSKcCmoyZYJxLUcO9OPymBYLnpENG4jy5HF/Hj0ePMCzVbmy+339/PAcGDV8nzmj3d9ER2Osu2EDris+nmjGDFyfyUR09SrGw4mJeIb++AN9Re3anl2bAdJeTDHONGiAAeDvv+PvsWNQ/+vXw7KzaRO2lS6NQeaOHRBVv/+OBtAVT58ivMfXF4Nx9Y/j2TMIsaxZjZe1a1c0QI0boyH8/HPls2rV8Fq3Do3znDmpb8FQU7Uqfjhbt9pvf/gQDdypU9rzTTp3hoj6z38gmv73P2wXAmKwZ0/8GLdudbace0Px4kTz5kFMuSIhAQ3o118T9eunlGnSJKLt2+33tVjwHLRunfLyuaJ1a4jtQYPwvkMHops3IaJTQp48EI03b8I4sHIlDAfPnhG1bw+rU2AgnjGjDByIBlbLWuWOa9dQ15Uqef7dtMTT30+pUqhXyY0bKTt/7twQ0LdvK57s2FjPOlmLhejHH3GPK1bEIGvrVoT2EGFQVKIE/ldf77lzGKDIbUIQzZxJNGCA0vEHB2MfRwoUgAgsWBAerP/+9993bxkmralSBdZ3SaZMRD16wBsivRrz5qE9f/hQfzC7aRP6APU8nXLliGbN0jcOvvee0mYQoV3q3RtlqFwZ446EBCVUePdu7DdqlP1xrl/HwDcoCP1F6dII+4uIQLkWLkQ7Jz07RAhv++Yb/PYduXZNaQtGjkT/qsXJkzimzYY6kn0yEfqpQYMQcixDxnx9MXaYNUt/TCXHE/HxRD/8QDRmDNoyx3GKyeTc9guBvlgI3NOYGKK5c2E8ypoVQjdXLkVE3bwJoXDxItrs6dNR3x9/jM+zZcMrtTGbMab6/nv0E+rnTw93RjQjCIHneMYMPNtjxuBZGj5c6S/OnIG3rm9fvB8zJuXn1YHF1IvC39/+B2gyIQymc2f8IP78U/GsyYGMuwGNEGgAzp1Dg+S4f5488FZ99JFnZZVeMD2vRI4c+IGnpZCSaLm5ixaFCP3nH9SdFlp1ZzJhTseuXWigt23DHI7UwEh9nDiBTkHtVTGZ0Cns3Gm/76JFsIqltZgicq7j1Ayhy53b/n2ePOiMXn0VHrAePYw/R5kyeecFFQIdm1bH+28lLg4dYVr8xqKiYEzo3h3tko8PDDuy/QkN9cyS99tvsAaePg3P1P37eHbfegvt2mef4X4XK4ZB1bx5Sme4ZQsMN/K8hw/DKzZtGratWQPBJN87kpCAgcqGDTBSPI82iWH+LcTEwAA6fjzajA0b0NZFRmIujRE2bIARrUEDhFeVLQtv0Pz5ECJ6YipzZvu+bPNmiA3pLbJY7KNJ7t7V7s8XLUI70awZjKBXrxING6Z87u8PI6707BDBEKfXd0dH42+FCjBIf/edtqiYMgXGn+Bg+2Q9ZjMMQWfPwpjboQO2HThANG4c2rgmTZT9Y2LQPuXMCcF4+zbauIAAzD3193c9j1RiMiE8MjwcwikqCm2mjw9Ec5Mm6D+Tk3GuY8fg+ZdjhG+/dX8OPcxm3LvOnfHS4/p1RPZEREBsu0oqokZttN6yBWPhkiWVbdHREK4//KAfhbV4McR63bow3s2Zg/GDOyNaWoQt0vMUU5GReFgvXkQ8/zffYBAsEQKWiHXr8PAEBKBi1A+pJ/ulB7Ru6OuvY8Bw/brzfu4egOPH4Rrv3h3eES0KFHD943BVTr3za1lViNBghISgEa1UydkF//Ahfig5c6KxJsKz4YgQCOMjcj2w14u/dlV2IoSZETlnfXFXfiK4j4ODYZErUcL+PO7uV0IC/o4fj45KWmtMJvvY6UOH4BH84QfnY0RHo+6yZcN1OJ7z+nV0IjYbvHeFC2vPxUpMxOf58zt759THNJuxX7FieJY8RatOqlTBOcPDYVGTHawQsLbFx6P+te7v3bsos7pzdHfNU6fCI/lvFVNPnqADlsTHI8SubVs8K6nREVgsivUud26E4VSrBg9SyZII2ciaFXV44oR97L1EK0PV4cNKmFHz5ggb7NYNHd6IEWiv/fxg/KhXD/ehf39YyH/7TRFSRPC63bhh35muWkU0dKj9fgzDKOTOrfRp1aqhLfnzT0StuJuDlJQET3DFijBOyna1eHHMeZJZNNU8fqz0Zb/+it9nmTLoz+rUUX6/OXMS1aihlG3vXudjxcZirOgqbNtbr0bfvmiDVq609+YTwaizdi08LIMH2382Zw7GVgsX2n+vUiWiDz5wDsHLmROCjUiJMFILq3KfxwAAIABJREFUP+mRM0L79vg7fDjquEYN9L0HD6L/WreOqGFDtNHZsytJeJKTEfqobieFIPrpJ9zDokWVfl56yWbPVgz8ZjPE0aVLEJJ6c7VOnoSIHT0a7bijEVgPdR924wY8j9J7RIQx1YoVzl5L9bU0b47nMiIC/dP8+RCyJ08q+4WHY3yk3jZhAqKU1FFWqcDzyeb39CniWY8cwaBm0SJYPdQ/zMGDMYB8+BA/5DNnYMmcNcv+WEb3S69IEfXKK55/d+lS/P3Pf1zv59iQpAUbN+KHfOQIrEFFi+J/IjQwHTrgh3D0KBqkWrVgAXN0wV++jMZiyxa8unTRP6c3g8zkZEyS9/GxrzdX5ZfMmYM5YocOoVxvv62fnejZM3RGZcpg3lBICI5fqhR+D40bw9AgkY3vnTtoJJKSMJD86CPMIxECbvXu3WEx+/RTCHFpGVqxAgPYqlUR5tCgAd4XK4aGS826dWiYTp6EwWP8eO1ruHQJwqd6dQx+f/kF269exf3z9YVRQwrfpCQ0WEWLOp9Tze3bGLQHBCiN9pkzEA9//w0LVPHi6Mwk+/ahES9ZEnVp9Jr37FHmE40bh/o0EpbwPHn8GM+CfIWEIAa+fn37LH9mM96rX3FxqEvH7dJjExsLAVqrltJeEKHTMpkQSnr8ONpWIhh2WrRQwvIkAQEIyezWDcf6+29sz58fnbyfH8R2tmwY3Mn/M2XSn5uolXFJLaTi4/GsayWeIcIgxWJxXbcM87IhxcujR+733b4d7c9XX2l7b9RhfJLQUPSXp0+jrZZ9oI8P+k6Zwe/hQ7Th8r3WnOC//0Zbp4X8bXtrTHrlFRhw5sxx/mz+fLQ1WuOLhQvR/2hF9GTPrm/EFULxTK1dm7K26fBhokKFMPZdtgzta4UKaFvz50cfmzOnImoPHoQIunxZOYaMepk8GVEgQ4bgJcXjwIHKtq++guj4/nvXSS8++AD3y9PoFfU99PODcGvTRnk1bAgjqNbzJr8vHQYjR2Is0LIlnsHwcBiHExMRndC6NTTIxYvYNmwYRGkq9xXPxzP19CmUq3TVduuGC1+8GFaMQ4cQGz9xIm42keJaHT4cnqfcuY3vl1755x+4NqtW9WzuiET+cFxl7EoJISEIhXPEUUAIgTjdYcMwybB3b7j8Z8zAgLBaNWTw2rABA7rJk3HdHTvCXTt8OAZcz55BoEybpnjTsmeHFcZbTp/GOX190bgvX45OZvVqZQDprvxEaNBmz8bxfH0RttS0KZ5PLff69euIbz55Eo2fZPt2uOYPH4YY+uQTiBmZcaZUKSQAWbyY6P330XAQIZRz3Dh0SA0bYt5QxYpotPv3h0Vr82bU1YYNsBgJgdj1SZNQViKI2V69IIDkgLlLFwgkR1atQnmfPUO9jBgBgVi/Ps5RqRKOL+f1Zc6Mbd9+q5zPkdhYzG8hwnNAhM5cZiSqXh3bSpZE3RQrht973boQbur5c0auuWlTiIo9exBWVq+edrleJFWqoENxR3w8rqtIESWM9d49iFjHcNcrV2DBk9uHDkXdJCXhPvn5QVQXK4YOaNQo1OPWrUqCGTXr1qHDtlrRscmsfpUqwUgWHo7f7YkTuMenTinf1ZuX6C597f79sKyPGuXswTab0cd8/z3+MgyD39TevfA4uEv6QKQsOaBnsNCidm0lDHjgQCUBgcmEtl0aRP76C/2GFHeO68NZLOhLEhLQjhGhfZGJDXr1wvH0xJSR9Nd9++J17hzGIfK8c+agz3ec+5SYiH3btPF8PvWxY2gLq1eHAatiReekEEYID4eBq2tXjI9+/hliiEgpkxDoB2Tq9E2bIP68Mco78uSJvqjxFvU91DOu2Wzuj7NzJ4yon3yC56x/f+39YmIw7jpxAn2VkYQeHvJ8xFSpUvYxry1aYMC/dy869bVr8VCow278/eFu3rMHHoFWrYzvl564exdWgEePIErGjYOlwJv0vtIrkVZpouPitK1bjuE+JhMaJpmdxmLBgywXEM2SRRm4DxigWBiaN8cgODISDcOMGWhYO3VSju0uzbg7smaFpcVsRkNtsaC8p0/DuiHnOrkqPxFC7j79VAk5aNAAEz61nr8dO2D5Wr3a2dpXqRK8MD/9hEZywQKEIcybZ589zZFixSDyZIcgB9OOdeznh+dLNl716iEOW/LNNxAnas9Dy5bac89++EEJl1u1CoP+OXPQAZYogXs5bx6MHfnzo4Fftco5sxwRrH1bt0JkFiwIQ4lMJDF9Ou6TFFJEaCTHjsVguWVLXF+pUvbHNHrNGYXcufHcqNmzB0JHTjqW7N0L8eO4XU2lSvi9Xb4MofbgAeoxOtq5PcqbF/Vvs9nfJyLc94IFYeF8+BCWwYYN8WwQ6VsE3S1WvHYtjtmihXJcyaxZKL9jJjGGedmIiECfEhOD8L6dO2E4MpJ4Kjwcf/WmCXhKYqIycLXZYLyRIspsth9I+/pCbPj4oP0QAvvKyIPhw9EOqUOgPaVrV4yv5s5Vopk2bUJbN2CA8/5PnqAc3tTHypUwij94gHYrJAQePHUouxHWr1fC/gMC0McFBsLgOXs2si02agTj4qNHqNd16+wN3+Hh+vO0ZHt8/77z+oZnziD6JTBQCTl8XrgTU48eYbw0apQSXXL0qPYi7mYznp0nTxAF1KuX9v1OAc9HTDnGuJpMeCAePsT70FAMnh1FgLQ+ygG80f3SEyVKKBb5lCIHuhERqXM8R157TXswNnOm849w6lQ0It99Zx9+JJEWFbWFQgoN+eMOCsK9Ve+T0jVkqlSxT888bBg8mhMmQIj89pv78kdGIs5XvV6Bv7/2HJyDBxEOt3u3fiadrFkhFPr0QXnWroX7vEgRhLBqUaAABMmZM+gwpfXPsY4d57Nly6bUb2wswuWklUuiV8fq41SqhDADdfa4YcNQf9Onwyhw8iSslFrpY/v00Td87NjhHNufNSs8tkePKvN9tGLn3V1zRufGDe15h0ZZuRKGgYoV8Vq5Ep7STz913nftWtRtUJB9fbvrBC0WPHePHqFz27oV9zs2Ft/VsgDHxmIgcvkynv158+BlzJIFYm/sWAw6Umt5A4ZJr6xbhxcRQudnzFC8/+6QwsedYcMIQsBrIPuTiAj8hgsVwvvTp+0z8plM9gPcmzdhMGrXzr59OXNG/3zuyJEDgkpGxGTPjj6raVP0aWqDKZH39ZGQAG/8l18qnv3JkzHo/+EH45lGhUDoY48eMDQXLgwD14ULEEeffQaP38GD6BtHj8b7GjXsvVIhIYhiCQhwnvstr+3kSW1D/KJFaJP12mZvUN8rqxX3VI69ZHld9dkJCRh3zp2L8kly5MBYITHR/lqk0bxgQfQdJlOqJ6J4cdn8YmMVy3LevNorO8ttMnTP6H4vG0lJGEQ0bgwr1LFj9gtsvgiWLIHlJzAQg+7jx+0/13qIHbdFROivG5Fa+PhAMK1YgQZ25kyUw1X5pYXnzh33x69VCx7Hrl3ReahT0QYH4wcvvUKlSsEj9MsvCKGbM0dfTFmtsHaFh6NByZ7dOdbcXR0/fYoGxVEIGyV/fnt3ebFiCC2YMQNWxNmzvZvkGR+vbRAoUQIeLImRZ0hvW0bl+HHX6z9pYbOhzqOjIYLVc6nkmigyVb6aW7cQq+9Yv2YzDA56YX45c8JbWK4cnttq1TDA6tFDf0A0axayS8mkJ717o0zz5yO0qFs371LkM0xGo2dPJILwJhW2DAUMDja+BpAeMlxeGvrmz0eougzzc2f0PXkSfe/w4egPpQhzdT4j9OsHQ+TKlYiq2LMHERRayORGwcHGji1Ztgztkhy0EyGcumRJZc1GI+za5bxvoUIwRJUoYX/Nr7yCec1Tpti34UQQrWrhqkaKlnbtUrbOlCeoy52cjHGSuo85etS1B/LpU0SpOI4Pq1bFsQcMgFewUSNslwbYqlVT7xoceD4JKMLD4UKUPHoEC6Oco1KpknMWDiLMzzCZlIfA6H4vG3/8gQeoTx+o8qVLXQ+QN2/GA5xWXLqEQfXEiWgMJUYbO0mZMrBQaKXbNBJPaxQ5GJQLprorf6FCaGCXLXMux5Il9u+zZoWVUIYrqus9IkJ7Dtrw4TAcyJSuWsybp1hl1EYET+o4IADXfPKk9vfc1fHdu85zjkaMQLknTMC9q1HDeHkkr76K0AVHsSob3TSId84QWCzw8nTo4Nn3bDaEoNavj3qvU0f5zBsh+vgx7tOQIfjbubN9hqxlyxCSUrw4BhgBARBgM2dqexufPoX3Vb1GSO3aeO7btkWnm1refYZJ72TNqiR88RSZRc/dGolGcBcN4G4MsmABPC2DBsGoKJMI6fVxRr1HdesiQkWG+hUq5LyYuMTXF+c+eNB4eGFSEvqubt1QVnV54+IgzBo21P++zHJosyGRUqdOzn3xyZOIIFBvz5ULAqtuXWUtvkuXjJX5eaOuk06dnJNe1a2reFe1vqPlYZOYTIiSad4c3s3nxPMRUwkJUIhbtyKjRo8e2C6zynXvDutF9+6wPIeEIAvM1KkY1MqECkb3Sw8IgcbEyHoDch+ZqUXNqVOYXO7rC8/Ab78hPK1PH+1jBwXhvJ54fORxtFIhy8/Vn8kYZymCHjyAmE5KghiOjlYaWnVjIH8sslF8/31lYrn8TLrhtcSixaLfoOrVs82meHSkF8Vd+ePj8QwGB2OORmIiPhs7VrHsCIFj22wItVi+HEkmBg2ybxQmT3ZO4PHkCc4jkxBI17r0JF25grlGZrPyXWlgSExUDBcWi3MjLIRSR76+8GCeOmVvmdOrY3W59+/HfXQMbSxfHl64X37Rzn4kO1BXz73MZCjn2BDhOmTYhEReh/oa3V0zkRIK9uwZrtExJX56ZdkydNJGVqBX4+eHtvi77/BdtVj1RkxduqSIbPkbUKN1TFeCaNgwiHPHyIPq1THHolq1l8v7yDBpRa1ayGq7cCHaX9nmy0QWepEGNhuiOwoXhmGGyDncumhRjN/+/htC4+ef7ZfHUXP+PPrfli1hVJ0wAfOlL17EuQ4dwlhHvsLCjBtYTSZ4p44fxzX27et6PDRiBI79/vv2ToFnzzDn+OBB+/337VPWuHNs/7ZsgXBzFY4s+3IhlDGy1Wp/L06fRiSSWrDu2YPEHTdv4pxPnjg7Hv4tqMcS0qimRqs998SAXrEixKZ6vbA0Ju1NvD4+sB6+9hoeIrMZneKSJYp6DgiAhb5vX0WxZ8mCSef/+59yLKP7+fqmzgrLacWzZxCWFgsG5AcPwoLvGK+amIhJhjK0qW9fhPD4+mIwevs2vEzr1yvf6dMHP9TPP4eFv18/DJBiY3GcJk0w2DXKw4dwhxMh2+CFC8qaS7Gx+LFevYprWbkSjV+DBohN7dMHFq6yZRHSs38/vC4TJ2JeDBH+Vq2K70uLzPbtcG337Ys44blzcY7XX0ejSQQRXaECJqFbrQg5OnYM4mL3blg2ZH3KrH3yGkaNQiMeFoYY7tu3YfWWWfjclX/mTIiF06fx3M2cicbhv//FRNHERMWKduIEPLHNm8OgIFOwyqx8kZGwsst0nQ8fItSqVy9lnoqPD747axbq/+ef8VuaNg3ehKpVMf8oRw6E1uXPj87q8GHU6z//oOENC4MgefAA961GDZT/2DHM0dq0CceQ1pyRI3GuqlWRzadjRwjb5GQIx61bIeAdGTUKn6mfM4sFokWm0F6zBh13sWLODeebbyJr0bhx+M3Xr4+Qx44dlWNGRSEEQt7T8uXxPBq55ldfhedv4ECUYfFiY7+FF41caX7IEOd5bZcuwUO9aZP+9915LW/fdp4Y7e47Wp/v3q2ss2K16hthJHfv4re6bBms6er5HX/9hcGU2ttmtaIeNm5ErP1XX2HpjfHj0dekVlw/w2RkGjSwN5z064f+belS9KufforfVJky8LTcuWO/XpLk/n1kgG3cGJnvVqyA0TAoyH5Ms24dfpvvvIN9p09XDOtqkpIwplu6VPktt2+P7xw/jkF1gwb2YWGLFnk2L7ZnTwie5GT9DHCSxo3Rxw8ZgjDIWrXQBl28iPayTx/7/dVJsqxWRQRYLBB+a9c6n0PuIwTGRMOGYZwnk4bYbIpBMCgIhko/PyV87eRJiL6TJ5WMwK1aGasTd+2zK/buRV9NhPp48kTxbv7yi35WSGkcVWc2dkVYmH459UTWtm1pP01ERdqLqfnz//9MfnhAHj9G3KijEm3QAKF/Dx9CTRYvrp19xsh+8+enzgTK/2vvzuObKPM/gH/TNi0UoeVyOQTkkmVxxQVUQK5VYEVFRYqiIHiAyK4oqyiogAuyHKICgj9AflQELFcREVFuWK4i9yVQl6stpbXY0oujR5LfH5/f85pJMkmToS00/bxfr7zaJJPJzGTmeZ7vc01JuXDB+d47hYU4Lo0aOS+XmYnWCG9N7sOGadN1Ky+8gILnunVoJj5+HMHAxx97vpu0J2fOIEBQs8mkp6PQWq2aNoOKCoxEkLC2aIH7wWzciOb0++/Heg4fxnqSk1HoUbPlpaWh1e2ll7SamKws9NleuxYFxJMnURBu1w6DRfv21SY2KCjAMf3kE207MjK0hPzMGRTGXLs/Wa3oV9uokXNNUbVq3rffasVFGheHhDE5GQGAGrORnY1zUv2+iYk47uPHa9+RmIhz9+RJXBvr12Nfq1VD4KCmmlW+/x7j4e6/X7tT+KFDyLw6dMA+tGyJ875zZ2yrSuRE8JslJCAIVc8LChDMHD2K2sRLl5DRORxonXv8cS2zTUxEIn7wILoSbNvmeUaivDwk9vpuJtevYx365vzTpxEsGdVCjR6NY71pEwbODhuGChklLQ2tg88/j+eXL2P7fdnnGjWwH/v2odBQUrNferJvHyqT6tRxT7tSUtAqOX26++eOHcNxT0pC5q4KGjt3ohvc99977vPucBSdae7d6575qooK/eBg5dAhVBLoXb6MbjNqEoz8fO23EcF2R0fj+q5XD5nt8eO4tj/8EAG8CqZ+/hkBnn6q8507cZ13745jYbUinZsxA+dCjRpIGx5+GNeFma5ORGXVqFGoWPCmVy/jsedqrGXt2iiUr1qFtDc3F61VTzxh3G37hx9QKJ40CWn5c8+hwvWDD1BZ3KiR1u1Q9dhQ4ypjY5GGfPAB0i6bDUHORx85T6BgsaACpXZtpCGuaXZIiOfu3/XqocJFv74aNZDP5uU5zwobHo5j6Dr+8vXXEZwsX458q1Il5ElPP+29TKUPpqZPR7Cqv4G8CNaVk4PJJGw2VATu3es8bMVuR9qck4MKw3//G69HRGA7Pv8cn4uMRN5y//2obDIKVkVQdp40CUMNUlKQl5hJK//wB61hw7XrordAyUwAV9RshK5CQ1EZV7Mm8qESnpzI4nD4O5BFJCYmRhITE2WUql0nEeFxIRIRDDoeOVK731Q50aFDB9np2uXDiOri6+lmj74qKEBFi7rZpLeubuvWIZD1tn0bNqBVST/dekwMXl+wwH35CRPwG+tvXbBgAZ6rQFt1ix00CJnrqFEIkowGOxcUYDt79kQAtn8/pkG/fh0tnepeaFFRxhVtaWkItObPxzZMnKhNWEFURvmcrtxMrtOcK5mZWqXIhQuoRLlyBcsXFKCHwBdfIO3Kz8fEGX/7m/extikpKMTrW6Czsm7NCcgWL0ZvkfffR0uTpxls1XCNoCAEoq4tOl9/jZa9t95ChXJoKI7X558jjRs40Dn9v3ABlUsNGniujHc40POnb1901y/Ncadt2qBnia+/2bff4pi43g5FBJXU+fnu465EUBEwZw66Y/7976h084M/ZXoGU8WIx4XKrVmzUACuUgWZp+pWWY6UeqHHbkcm4svtAnJyEID4O3lHTg6CNaNAzWhqWU/T5169iu000wUvIQGBmK+t6tevo2B3K3f1JvJRmQimioNqYQikCYbOnkXLU2TkjVWeJSWhgkpfAZWejjTdW4tSenrRXekSEoyDlJJUnNOSZ2YiKPO2vuPH0TLpZ/7jT5k+gM5a8ktMDLqIeVOjBprHiYoycya6lHbpgtouKnlBQb7fd82fm0T6+jmjzMtTZnUj3e38zehv9F50RFT6AimIUlyHbpilbp+i58t4I1+WKe1ASqR4JwzyZTr3EpwSXQnAs5d8ct99RV/oN9oNicqPffswyUOzZpxZjYiIiMoNBlPlVdOmzvdQIroRVapoE4IQERERlROcQ5aIiIiIiMgEBlNEREREREQmMJgiIiIiIiIygcEUERERERGRCQymiIiIiIiITGAwRUREREREZAKDKSIiIiIiIhMYTBEREREFimXLROLiSmbd338vkpNTMusmKqMYTBEREREFis2bRRYudH4tOdn5ud0ucvq0/+seM0Zk7lzz20YUgEJu9gYQERERUTEJDRW54w7n1/r0EenUSaRWLTw/flxkxQr8rVfP93VbrSJt27q/fuCASJMmIhER5rebqIxiMEVEREQUKIKDjV/v0kXkkUfw/9KlIhkZ/gVSat3Llons36+95nCgJeyee0Sioz1/P1GAYjBFREREFCiC/n8Ex+nTCHzef18kxKC4Z7H4v26LReTZZ0U6dHB+/Z//9H9dRAGCwRQRERFRWXbypEhsrEjlyiLr14s0bChSoYJIpUoiSUnGwZQZZgIwogDHYIqIiIioLGveHJNDOBwiU6aIDBggMny49r6ZIMhuF/nHP0R69dJau7KyRPbtE7l+XVvm00/xnffee+P7QVQGMZgiIiIiCgTx8SKpqSL/+Q/GSD3wgPnWpKAgzNz31FPahBbffuu+3Pbt+E6icorBFBEREVEg+O47dOlr2xYtRpcvi6xebX59oaEijRtjpj5PgoKMZ/gjKid4nykiIiKiQLB6tUhUlEhYmMiiReiWd+yYyJUrIrfd5v/6rFbflrPb/V83UYBgyxQRERFRWXfgAKYnDw/H8woV0FJVtapIWppI3br+r7Ow0LflbDb/100UIBhMEREREZV1c+eKjBwpMnMmJqIQQQCVlyeSni5Su7b/68zPx72jbr/d+zIFBea2mSgAMJgiIiIiKstOnhRp3x7jmxwOLZgSEdm5U6RzZ7RUGbl+XeTwYfdxT3a7yDPPiLz7rkhkpOfvDgsTqV79xveBqIzimCkiIiKisuzECZGBA/G/3e48hik2VqR/f8+fzczEDX5drVwpsmQJAqk1a7R1OhwYj6UCtoEDRaZNY+sUlVsMpoiIiIjKst69tSnQbTYt8Dl3Do+oKPfPqGVSUjBJhV5amsjatdrzpCSRV1/F/xYLgq/x4/E8PFzkD38Qee45TkRB5RKDKSIiIqJAYbPhUVgoMm6cyOzZ2k13lchIka1bRUaNwmPePMz4JyKSkYF7S+lvwtunj8j8+SIXL+J5//4iH30kkpuL5y+8ILJ3r0hMTMnvH9EthmOmiIiIiAJFYSEeX3whMmaMSMOG7st0744ufOnpIq1aYfKKSpXw3sqV6LL3wgva8jVrIuhSE1E0bSoyZYr2mZAQkeHDRRo0KNl9I7oFMZgiIiIiChTDhok0a4bWqLAw42WCgkR69DB+b/BgPFxNmuT8/O23nZ+/9Zb/20oUABhMEREREQUKffc8IipxHDNFRERERERkAoMpIiIiIiIiExhMERERERERmcBgioiIiIiIyAQGU0RERERERCYwmCIiIiIiIjKBwRQREREREZEJDKaIiIiIiIhMYDBFRERERERkAoMpIiIiIiIiExhMERERERERmcBgioiIiIiIyAQGU0RERERERCYwmCIiIiIiIjKBwRQREREREZEJDKaIiIiIiIhMYDBFRERERERkQoiZDx05ckQWL14sK1asKO7tKdMyMjIkPz+fx4WoHIqPj5fWrVvf7M0gogDCdIXo5sjIyJA2bdr4tKypYKply5ZStWpVGTVqlJmPB6yYmBhJTEzkcSEqhzp06CA7d+682ZtBRAGE6QrRzaHK9L5gNz8iIiIiIiITGEwRERERERGZwGCKiIiIiIjIBAZTREREREREJjCYIiK6VeTnl8x67faSWa83v/0mcvWq92XMbNevv5rbHiK6dTgcnt+7GelVSTh3TiQ19cbXk5FR9DH5/fcb/56y6tIl4/PpzJlSO5cYTBER3SpefVXkpZdEcnNvbD1XrohMnizSrx8ymXXrRLp1E7l40fNn9u4VWbHCPfM5eFAkL8/5tdWrRXJyvG/DnDkirVu7f1avZ0+R2Fjv6zl2TMRm0563bo3tFBFJSRF5/XWR3bu9r4OISs758yKXLzu/9uOPIrNmGT9efx3pnKeC7tatIj16uK+zrNm9W6R9e5Fr17TX9GmZUlDgfT0//ijSrp33NLdfP5Fp07DsypXmgojr10V27RIZO1bk7rtFDhzwfx2++O9//Vv++HEElJ707Svy4ovuAdX774sMHOg9cC8mpqZG98uZMyJZWSKtWpX4V93U76TSc+GCiMUiUrfuzd4S79LTkQA0bXqzt8R/R49iuytWREJ0+LBIixYioaE3e8s0+flI7Nu2xfkQKCIjRW67zf/P5eaKbNuGQGfDBvx+d98tkpwsUqGCSHa2SJ06nj/furXIBx+IfPUVMmRl9WqRf/1L5KGHtNcmTBB57z2Rt982XpfDIfLttyIjR4qEheGaveMO9+UuXhT5y1+879fzz4v06YMMPisL+/nYY3ivdm2RESNEOnbEa7NnB9a5QFQWVKsm0qmTyGefaenEffchDapWTcRqFQkPx+tr14osXizSqxdaU26/3X19+/cjvahatfT2oSSEhWn5qDJ+PNJHlRYXFOC4LVgg0rmz5/U0bixSubLn77JaRf78Z6yje3eRX35BmqmXl4dySVoaWswuXEDr2X//i3Jzbi5+j1q18Hvu3IlydHGnqW3aiIwa5XxcvImJQf40e7b7ewcOoLxilPaHhWE/1OsOR4nlDyUfTI0fjx/kzJkS/6qb+p3+2LULBZT4eO3TY9g4AAAgAElEQVS18HAEBz16IDGyWFDbs2aNyKZNWCYiAu9FRRVd2Nq1S2TmTFwc4eFYX4sWqJ1es0Zk4kTftnXZMpGffkINkcUi8vDDKNjUqiVy5IjI8uWoNRARadQI2/bgg/4fE1/88gsKccuWiURHoyZCBN1+3n0XCXDNmqjx+sc/RIKD8X5sLPZBNYOHhOAiCw4Wuesukd69Rf70p+LbzuRkkY8+QqF0xAiRf//b87K5uSLjxmHbrVaRoCCRJ59Ea8C8ecW3Tb5atw7XT1wcEtnDh3HMDxxAU3qNGubWm5kpsmoVMlJVCxccjMChZUvUqvm77tmzRYYPx/Xx8MPmtutWY7WKVK/u+/IJCSJbtuD6zMpC5vTTT3hdnf8iIqdP47z3JjgYrUkdOiDTWbNG5IkncE62b49jrcyeLfK3v3le1759yKwzMnD+jx+P67BnT/fvrFTJ83pOnsR5+M9/4vnZsyhUqIKZiMidd2Jb778fwVvDht73k4h8Z7M5pyVGqlQRefllkQEDUEAXQV5csya6+o4YgdaZ9u2R5u/ejXTFk3XrkO8odjtaZSIiEBCEhTkvn5mJ9ZYG1eLjbfsVozQ3Px8PVX5JTUULyr33el9PUUGA+o2sVgRmO3Y4v5+SgrzittvwiIwUqVcPZcrGjRFkVatW9D4ZcThECgvx3b6w21FOq1XLt+WPHTPOb+x2kXfeQZnwrrtwru3dq72fliZy6hQqGTMyRCZNQiVfvXq+fa8fSj6YIncPPojApmpV/N24EQnEp5+KdO2KBGnBAhQShg1DIXTrVpHt21ED643NhsDim2/QFUa//PbtIs8+i1oBXz37LC68xx9HgXfYMO29li2x/Q0a4KS9fNlcjbqvmjcXefNNkaVLtdcuXRJ59FFcaC1bIrh7802RpCSRqVOxTFQUWlSefFLktdcQZAYHiyQmoqDXogUCGtdaHLNq10ZGMHeu9+Xsdmxbo0Y4B0JCEPC9/LLIf/7jHEw5HCInTmBbS1L37gig4uLw/IknEEjdaHN/ZCQSzyNHRGbMwL716oX1vvIKWj42bvTv3IyKQjDatq3/25ORgWuudm3/P1uSfMmg9Ro0wHFVTp9GoFNU4ceTxo2RGWVmal1TrlzxHvAYGTdOZNEinE+fforCVI8eeE9fONPv7/XraEHTmztXpH9/rUb21CnUvrq6916RH35Amvntt/jekkyLiG5FXbtqXahCQrT0oX9/rTA+bx4K76dOea64OX9eZMwYVH5dvoygqGdPpNOeCqL9+iGtUKKjUZYJD0ee27Il0vc+ffD+jh1IC7p0cV5PejoqaC9e1LoAx8Yibdu2TWT6dARW+rR71iyUe1591X27UlLwHTYb8uW+fY23/8IF7GNGhsj//I/W+i2C/Dc6Gvtx7BjSrb/8Bd0VX3jBc6Cj0jfV1fqRR/C72O1aWlehAsonERHG6xDR0svDh/HXZnPv8peRgfw1JAT54kcfoWJJVW7Xro3fyFVhofO2+iM+HufEjz+i50P9+qh0Gz7ce/BXVMWer6ZNQ8+FDh1QRu7SBeuuUgX7U7Ei8o4aNfD46qvi+24XDKZulshIXESVKmmJwuefo3C5cKHIU0+hsCmiNQc3alT0eidORJNxXJx7IbNTJ9Tgeuqa44naPqMuQiEhaBa+dq3kCy9BQe6F34ULUXi65x48HzUKzdKffoqLXBUCVZfA8HDtYmrQAIW1xESRDz9EUOZPYd7bdvrSunDkiMj69c6tBjVqoJbFdTt27EBtXkkHU67H2OiY3wh1Dt1xB45R9+7IpLp3RxB59Kjv66pbF93SzJg1C995qwVTN0N2NiaLUN1R69UTmT8fgbQIak7/+Eff17dhAwow99yDAkpSEgo6//43ahGHDBFp1gzpRWqqyJdfIsObNg3dOTp0wHrOn8f1OWQIClAiaHWz27XnrvbuRWXLtm0I2tnlj8qTuDh0hxowAIHN6tX4/9QprYdEVhYq7TyN0/nlF61r1PDhKHecOyfy9dcigwYhzzJSvTq6/iojRiBdUV25cnLQa0Nduxs2oELZNZiKiUGw164duilv3y7yySd4LygIgUTVqs4t5YsWea5oTk5G75Vq1VA+eOYZ48Bh2jSkVenp7mN6/v53tNo/9pjIG2/g2G3fjkD1rrucy1o5OdjHypWRHp0/jxaRn39GPm+1+jbRkMOBstxvvyE9PXkSQWWlSsi7cnPRsqPKDhUrokwZGYnHsmX+V4LpzZmD38Zb2j90KI7FxIn47s8+E3nrLZRjXnjB8+f0x//oUZTF9MFkXh56nOgDWldbtqA8N2gQfv+XXkKPHpV/iOA3r1sX51EJK71gyuFAzfPx44iWe/Z0jxBTU3GBXbqEQlePHsZNt74ud6tzvaAtFrSwxMWhm6IKplStRFG1zefPI4Do1s1zbX3LliJ//au57fRW+1JahRbXY/bQQ1ogJYIEZdAgJOTJyUjoRDwfO4sFCcb69eiaVBzBlFpvUcckMRF/169HYq1UrIgWQeW331CzqF+mJBmdlyW1bhGtW+uxY8ggSjoo374dtXbdu5fs9xQXmw0BxVNPoYW4uFWujIyoWjUEIOHhKEzUrIn3Dx0yroAxGtR78SIqONLTkYYtWoTKjR07UFn0yito9eraFWnUkiWoTa5VC7W+7dtr67rzTnxOf02uW4dClLdMdvRoc8eBKBA0b448UAQtJ926oZfG6NFFj1FxODBg32ZDwVRfgfvuu1qPBU9WrkTZLjQU5bthw7T0fMkSVJg1aYLn16+7f95uR6XhokX4fHAwynj6LuCe8vKiupgNGIAgZ+NG9y5jV6+iUu/VV0U+/tj5vR9+QGDxxhtIH5UhQ1DOcB27XbkyWvVEEGzceSeCQ+Xnn71vp2KxaOnu+PFIN8ePRx66fTu299NPUS6IjsZ21K2LVnqHA2mw/rg5HJiUKCMDlYgqL1YTYsyerZ0fV6+iVXLTJrTmeBqrNX8+9k+VETp3RqXc8uXegyl9mWLLFpHvvkP+ppw9i+D9l1+Mx9o6HOjqOXQoAtNx4/Db6suCnkyfji7h+rymGJROMHX9Omo5t25FK8a5c9osTmpAu7rQrFZcbKdO4WB9/71zjYOvy5VVasYSM5MrfP01EiPVncYTfVe9kvLrr+g2d8cdKIyFhyNBqlsX3QYWLkSNdHQ0WuMmT8bn5sxBC5GSnY3aLtV9wHWGGqPB6xERSMAbNPBtW1Xipm/18bb9ysGDKCCGhKB25cknsa1GwWdmJmpsLlxAQTIqCjVvFStifFdSEr5PJWZDhuBvQgICqaQkJFAnT+L879wZQdj//i9aEnbsEHngAdSuWa0YL/jll6idOnECY0liYnBMVq50Hlfy3/+ihadqVVRQuB5jtR/Z2UjcV69GAjpjBrYjPh6ZRWYmjteoUcjQ8/JQYxUXh+PiKYjPyUHiWLmyVpOWlYWKgcJCrD84GOdIy5Z4/9IlJPLz5iEhbtHCt33euhV91QsLkTHVrInM8w9/8O1cKQ1xcWg5U/LycE7v3o3j7W0Qsi8KC9EVdsgQZD4WC86jJk1wDj38sFY5dfAg/nfNpMLDRaZMQZr7668ovDVvjsqyzz5DAS4qChUUnTujtlBdT54KPRaLe7CtD6RsNpE9e5B2GLl0SQsAiQjpZrduSPcSEopuYY6LQ348YYJ7T5iwMPdWJBEEG5s2oYvXmDEo1/Xoge9evFjrznbpEtJhldbu3+9eeblmDfIPb12xzHRHE0H+8913yMddg6mlS1GR9/LL7sHUjBlIc43GmRc1ec6WLdj/1FTfxwcZ2bMHrYl//SvyeBWsRkSgEr1WLZR51K0ojh5Fl8LNm7Xx4BaLc8uhUliIoHDoUOdGCX0A6Inr+NSGDfE9RoGynr5sFBKC1lR9S+OePRj3bxRIqc+r7oszZyKPf+wxkcGDcR6qPLJpU5Q3Vcum6gK5bx8CqmLs8lc6wdTFi8ikU1Kwk6oP/apVqIE/exa1IU89hYsvNBSf6dRJ5LnnEHxZrb4vV1YlJ2O/IiM99+v1Rg28UzU/nlSp4v+6RXDReapN0nM4EDz36oXm7WvXUBMyfjy67Vy4gN/yxAn0Te7RAwnyiy/iYlCz9dlsCLq7dtVqet55p+jt3LEDCYPrIFURJOgXLiChT0lBAPrdd7iQO3XybftFcDE+8wz+1qiBroa9e+N/FQjp2Ww4PydNcm41/OYbnLuTJ6PgP2kSfnuV4TRogIzQasX3jRqF1xMT0Uqxdi1aWH7+Gevt0AGfv3gRGeOFC6i1efppFG4ffxyBU0wM1pOcjM+sWIH9Lyx0bibXe/99ZMz33IN1PvIIAp1mzbTj9847KFSL4Pg3a4ZzxlMg5XCgUC6C38xiQfDQpQu+r08fLDN4MBLP/ftRIEhKQmB5+rTWQuLLPv/1r6hN69YNhXsz461KWrt2qFEuSno6uqfWqqVlgqmpCE71wZgIAp6LF/F6djYylIUL0fUnLAyBdHQ0gtWvv8a5n56OYxQT4946OWeOFrRaLGg9bd4c52JGBh4LFqC1UcR5MiBPNctFTeV74ADOz+ho97FVIigEjRmD84iI4NQp/DWaNc/Vtm3460/vlccf11rMp0zRPmux4HXVMjVzJtJdFaSdPeu+rk6djGfwczgQCDz3nPmeEkFBqPQZOxZ5v+ri7XAgXXz6afdKtcJClCc6dvS/y9yZM0h3O3VC/hgaimPgr2vXUAZ4+mlU2E6YgHKAxYK0NDQU/99+u1bpvGYNAj2VF98If2bAO3AAy/vTw8dTmd2X6cxPn0aaP3gwAjlPk3ZdvoyAbdUqrUK2mJVOMHX77Yj8VSvUG2+gYKqCqcWL0e9y+nRtmTp1UDB77TVEqR07+r5cWZKUhO3PyMAF06oVomhvUxh7ou4hU1JdHtevN74xXEKC+8UWHq41o1asiAAvKQnP//xnBFCff46m4K5d8Xq/fgiyVfP0woUoPK9bp623f3+tlsHIhQuowT940Pj9Q4fw+YICBDdbtuDCd+0+5W37RdDK1L+/1oz+0EMI8o1aw5KSEGDNnat1O1R69cI2vfYamu779UOC+9VX3msR8/LQIqVa01SfYLWNHTuiUL57Nwrcavazzp0xVkt57z2sQwWSISHIsIy6IkyZou3f3XcjmPrsM1yPHTsisV+yBIm9uj6XLTPOQKKj8bseO4YEcdIkrUvDvHmobevdG88tFnTLW7QI27tqFa6Tbt1QYFd83edAUb26e9C0axcyUtdgbNs2ZHTegrQnn0RAs3UrzoGFC1Era1Q7+MADqPULDjYeOB0Rgevh0CH8Lm3bajW+noKmooKp1atRGLr3XpyH+oLC+vXo7vHkk97XQVReFBYiPV68GJVKvszUpvIPX3t1FEV/mwc1MYAqn+hn5FTb+8knCHpuvx3p/pUrqHC02xFUbN7suXDvS+H7xRdR+I6O1sbb7t2LdGraNPfl1URFZo7H8uVo5Q8ORt7VrRvKAHl5/t1iZMMGrXWpa1dUmB0/jrLY/v04RiNGIDhMSMBxWLkSXTtvtIt+YiImeIiOdi+7GJk4Eb+z6mbqiX67PLU0FvV75uejPPDKK0VvV3g4es7ccw96rPTujZapYlQ6wdRttzmfPFYrMmI1ZuTECXTPcA0gVNeSc+eQIfu6XFlSrx5O+vx8HJcbOflVzUl2dvFsm6vHHtNaEfRat0bhV7FYEMw4HCjk/PgjWkD0kzKo2mn9+BiV2KvWr8WLMbuYvp+3t4kd7HZMobxkieeuUGp2MeXiRexX166obR8ypOjtz83FeJDBg7X1REaikO8qPh5B2apVnhOj5s1R2I2NRUCxZw+CggMHPE860rQpavauXUNCd+gQXtffEDA4GA99plWtGlp0RHDOrVjhvB8ino+xvmaue3cUstW0+CJoSWrTBr/byy9rCXv9+u7revllrMNmc6+Zio3FuvWJbO3aKERv2qRlpkY1WkXtc6BLSLixSTU2b0YQ36SJdi0NHapNRqH3ww/4+9NPzumW3a5Ne1+hgjYNr1JQgNazzEwUoLKysFxBgeeCkt2OQtX69Tj3hw/XJpiw2VCYMFsJRRRIoqNx3V67huurVy904/WFmtnNqOXXXw4HggfVQyQ1FRU0qoVs1y7n26iEhDjfRuS339DV+803ndc7aZLn7yuKuv3Ml1+idSc4GBVSzZqhQjEry3l5s8fD4UC6+Pe/o2LUasVvcv48KgCL6h6ot2QJKsE2bUJaWqsWjqW+XBQVhZaw7dsxE7CI8+1CfvgBY8Xq1nUP5IzGTCmXLqElZ+VKBCHeulguX44Kr0mTUG7zRv9b2Wwov+grBs+e1Y69p89PmIBWxs2bUfYXwXl+9ar7dtpsKFd+8QXK3PHxuA9aMY4Hv3mz+Tkc2g9ntRpfCKqmUhWafF2uLCqOm6G2bo0E6pdfvA/QLg1HjyIRfPFFBC/79zu/b3QSu7529qx/XRInT/Z/6vc6ddBC1qkTWj9UFz1v25+Zib/p6UWvv2JFXNxvvIGASf87p6Sg0B8RgX3v0wfjxQYMQLfBqVONb1KnxMYicRg/Hp9xbaUo6hinpiKBMZOgWCxIlPRT4bZujQBp4kRsz7x5xl0elaAg48Q5JcX5jvFK/fqoRczPRwbtyznk6bVAdfCgb4Nwjaipg995R/tdrFY8jFq0zp1D4OZ6fG02ZMLTp6MbbG6u89T6hYVoPfztN3S/2LgRwVbNmvisUT/22Fhk6s2a4Xm7dugi/I9/oEa5Zk10AScq7zp3Rk+H8HD0AvHnnjpqXE9Cgn/3uzPicCD9VxWmixYhX1DDEHJzvX/+yBF0+fvyS7R0FDVWypdgSgTrevpppDutW6P3hKdWnOrV8b0JCb6tW9mwAS1R6qb3Ikgra9dG/ujrRELx8fgNVet/aCi6+8fGonKxTRtUcrZti3HMo0ejHDRunPP+6LtiuvI0ZsofcXFIf595BhOV+KOgQJtmXtmzx/OskSIoGw4ejHN782bt9UGDcLxHj0b5TQXuaoy0L93nTTI5ks9Publo2lSuXkU/XjV4rVEjNFmqlipFZcCqj6Ovy5U3q1bhZFGFiaVLvXeZOXrUt6k5zUpN1RL0gQO1wpGviZ1SqxYuGqNtdV1XdDQKVFFR/m+vymwyMrDeorZfJbBr17qva+tW5+f16yOx3rPHeYClCGqStmxxfq1SJYxZqVjR+02n161D4PjNN86tsf4cYzVYX3/zaL2i1vX77+5TtX/wAbY7JgY1aY884vv2KA0boiXQtZYwNBTvGY2FI1i/3v8Z/woKEIi3aoXKGP14CTODvTMy0A10+HAUVvr0ca5dnjsXNYr9+2vX7DPPoHbSKJAqLERtp75FuW9fFFg+/RTbvmRJ+QqaiTxp3BjX1KOP+n9zUtW1XbU63wh9LwkjReUvMTFoPapfH/lISor3zxX1fcrjjyPdmTMH42eDghDkGQkLQxq2bVvRwZ+i7in17rv4X7+9hYWomFXd6o3o8+O1a9Ei5LpvJ04gyNKvu1YtVHzl5Wk3R790ybdtvhFHjqC1r2NHtDz6kmfot7tNG/f7gzVvjgo3Txo39nxuWyzIw9q00SZ0KwWlE0ylpeHivnwZhfwPP0RApab+Vn+HDdNqpI8fR4Tdvr3WN97X5coKm817U6ailjFaNj0dBfKQEBSGhg713P9XBM3Mri0kvn6/pwCtsND5vT170HqjBnPabEiIbDZcRAUF2vL6i0r9r/526YLPzZ/vvow+wFq4EAVvfXe1nBznwpe347x8Of4+9RQuxKK2PyQETeibN6NZW9m61fn+FCoh7doV3Rdmz3bvbvHFF+7HtUIFdD9o1QrPVSFRVUhkZ6MLQXCwVnuounbabNr9Q+x294xHn7hXrIgarfXrnbvrGR1jV2fOoGXCteWpY0dci0OHIkF3nWxAZQrefo8XXsC2L1vm/Hp8vHP/aNfzRaTofRbREvu8PLzuevPDsmrnTlzX/nZ1Vi1PL76ILn767pxmApT4eK11zOFwLwjUq+e+3pUr0UXFyLRpuDb1E+tYLGjtHTECrVO30myMRGVVt26osJo61f2ef5mZnmfSFEHrjaooF3FP49WECT/+iNbvBQvcx00ply6hXNO3LwKpTp0wxiUtDWlKcjJuYKseV6/6XpFotaKSdM0atJ737Ws86YUydCjy/zfecE/LNmzQ9lfZsgXd+8LC3POeuDjsh7cb9G7YgL+FhSg3q5v86u3Ygd5H+mOclITtbNYMx/rqVefx5iXh11+1Sam++873ik79/rRrp/U4UCIi3I9RUWNq9R5+GOUoNQFSKSidbn6dO2s3GKtcGQHA4MHaFNj33ouT+u23UWNQtSomEvjzn51rHH1driw4cwaFuXPnUJjzNManoEAb7zFrFgKM4GB89vx5jBvQ31fl88/x3ogRSGRefx0FpNxcJGIJCQhm/aEK2seO4YTW1zxkZWE7cnJwMderhwsrKAhB78sv4/MFBdieESNQK62azZOScDGJIIEUQctjvXqolYqJwXrS0tDyuGIFlvn6a9RYnT+PRK5+fRwfVXhLTdWmWxfRMoaTJ9G8X6sWEuxvv0WQ06kTAhsR37Z/+nQEDU89hfPb4UDCplqmUlLwmpoUZORITN//2mtoelZjUDZvRgvThAkYU5WVhfO7fn18RgS/d4MGaIUqLEQ/89atsU19+yJxTknBNq9ahevggw9wjAsK0J1KFTaTk9GidPUqMrLp07HvDz+MgK9iRe04qJusqrFsU6di8G5eHprTp09Hv2M99d1PPOE+MNTh0BK3Y8c8t6D07YsuIWPGaDdu/OYbJI76+x2pcXqJiUgDRHzb5zvvxOtTpqC7xMiRNz7deGmJi9OuF73sbJybixaZTwcLC9279hRVQDF6f/t27T5pvlYYPfMMgsDJk51rbY8cQc8DNfukEheHQs60aRgrdeYM0jXehJnIN++84xzMPPooJnCJiUEB+b77cB03bIh0ddUqpD2urTgFBcgTjx5FYDFrFoYauAZLK1dizE7DhngcOoQJl1w5HCi3zJqlVey8+y7y/NWrkabk5zu3FPmaziiDBiHd+O23ou/fOHAgKi+/+gqtSo8+iu/btQvpkGsLStu22nbbbM5BwMcfYziBN4cP429IiDbe2G7XArkjR9At7rbbtGPw++9obIiORi+A9esxhMHTjZn1/O0xpNezJ8pRjz/uPu368OHuU6cr/gRGiqff12hdFgvOFX9uNn+DSj6YGjUKJ0Hz5uj2k5iIQrHrTBpvvokZNrZvxziMu+7CFM2uNdu+LPfee2gFu1Xt3IkLcexYPJ8/H4VZVSBUzp9HANSzp9Zs63rTvOef194TwQU4fz4KsjExKJDa7WgWHTAAiYg/ha0VK7R7IIlgnEJUFIKRI0dQC6O6ry1ciGDvwQfRPL10KS7mmTMxKHLtWiybmIgLcOxYFIIOHtTuNTR2LPaxTh1ciD//jC4+u3ahMPzhh9ifIUPQjLtnj+f7IaiEesUKFKjVPuzcib+hoTjmcXHOgxEbNfK+/arWZP9+JI5qenE1/WliIjKOsWMR4Kh7oD3xBMYUqe5MdesimMrNRSvahQuo2XnwQQQ0+kGvq1ej73irVqips9tRgD5wAAnuqFEIEnJyEHBs2ICB+mPHYj9698Y+dOiAx4IFyCQeeAD7P20aAouePXGM161DJtOsGY5RgwbITPr0QaA7eTI+a6RFCyTs+vtqZGYicG3cGNuUn4+JKp57zv0aDw5GreHcudr9r+67D+mHOib79yOoGzsWGfddd6Fiwpd9btQIBYMNG3A9eLqXRUk5eRLbbOTMGRyr2Fj39w4dQn/7sWPRJ165dAmtM7Nna7M+GSmqsLFjh/trdjuOq+t4PLU9rjc+LizEeanOjfx8rQVQBLWX//kPKtQyM3HNzZqF86tTJ1RgqJkX09IQsM+bp1XgZGfjGCQkaPe2efZZVM41aoS0qV8/c1MZE5V17dsXXYC87z5ca67DJdRY47ZtERhNnYq8cudOXGf/+pd7dywR5IGrVmF8pLof05w5uHZXrkTaXKMGAiuHA2lKQQHKPBMm4DNvvaWN15k/HxVo+klvQkNR+fXHPyJtb9jQ+RYelSt7DhwiI7HP+tbrZs1QUXrlinOFYGgo9l8/aVJQECrrH3sMedby5Uhb2rTRbgCrp0939MHUjz9i2XvvdV7eakV3tOXLseyCBah01W+XChbtdgRM6p5XFSqg3DFoEPLL1q1R8ditG8aFuX6XcuUKymvVqmnngZlx+3ffjXzeaEiCt4nQbDaUZ3wdE3/8uPE9ztS6jDRvjl4SDRuiXFTCjS0Wh8P/sDQmJkYSExNllLrnDYkIjwuRiKCl9KGH8ChHOnToIDtVoO5NTg4qCRo0cJ89yVd16iCT37YNQdCwYd4HD2/ciJYrb1PET52KAEU/8HfpUrR2GY0PfPttbIe+tXDpUmToTZvi+cGDKACMG4f9Hj0aBZLevRHw6Lc5Kwu1xR99hMqw2Fh0PbRaUWGxbBlaYPv2xXfoqZk3x45Foa5tWyxvNJMkURnic7pys9hsqHBVLf7KlSuobN21CxXDahzslSsIfAoKUFG2f7/WgrVgAdbnbbrr3bvxXfqZO3fswDV/q01C9s03qICeMwcVlCNGGBfqP/8caXNQEALG4cOdKxkXLkRgOmQIGiPq1sXra9bgGI8e7dyrYNMmVHz27+/53lbJyQhQZ85EYLtpU/Htd1EqV8Z4eF9vsj5pEsoTRhW4EyagQnHGDPf3tm9HnrJuHT7vZ7dHf8r0DKaKEY8LlVsHDqDlsEoVFK43bixb3W6LQakXevLycI8u10lAjJw/j0KML8vqnT6tTcfrKj3dvVugvnul6/dXrOj72Cb9FOnx8cj427XzLfjcvx/jq0rqfntEpeiWD6aKy9Wr6K4WSBUgu3ejEqlRI62CyQ0qz+kAAAZoSURBVIx9+5De61vjUlMxjECNrXaVno4WxqJuwLxsGbrplWZLvqd8wozDh9G929P6HA70bvD1Xms6/pTpb97U6HRzHT6Mi9Gb8HDvs84QKY8+im5Z1aujG1c5C6RuirAw34Mj11pjX+knfXBlNHWypwzN3+/Xnz/NmrkPUPbGn1sjENGtITw8sAIpEW12xBvlOjZZBBVcRpVcSvXqRQdSItr41tJUnBMGeerKqFgsxt1TixmDqfIqIaHoG5lGRjKYIt98/z3G0ERFoX88ERERUTnAYKq8evJJPIiKwwMPeJ6QgoiIiChAlc59poiIiIiIiAIMgykiIiIiIiITGEwRERERERGZwGCKiIiIiIjIBAZTREREREREJjCYIiIiIiIiMoHBFBERERERkQkMpoiIiIgCxeHDIlevlsy6L14smfUSlWEMpoiIiIgCxaxZIq+84vyazea+XEGB/+t+5BGRadPMbRdRgAq52RtARERERMUkLEykSRPn1559VqRjR7wnIpKcLPLttyIbNojUrev7ukNCRO67z/31y5dFIiJEglhHT+UPgykiIiKiQBFiULRLThZp2FCke3c8X75c5PbbRWrV8n/dW7eKpKZqrzkcIh9+KNK1q8iMGSIWi/ltJyqDGEwRERERBQrVOnT1qsjevSJduiAICg0VqVAB74WGilSrJhIc7P+6W7QQuf9+59c3bMBfu93/dRKVcQymiIiIiMqykydFYmNFKlcW2bVLpGZNkfR0kXPn0CJl1FplhsWCFq077iie9REFAHZuJSIiIirLmjcXGTNGZPhwkZwcjI+aOhUBVoMG5sYy2e3oDpifL1JYiIeI9n9hId6bPBljpojKKbZMEREREQWClBSRU6dE4uPRzS883Py6LBZMXDFuHFqjREQGDsT6T53Slhs7Fi1hrjMIEpUTDKaIiIiIAsFPP+FvhQoi3bqJPPqoyHvvmVuXxYKxVc8/7z47oN7bb4v07m3uO4gCAIMpIiIiokCwbJnIQw+ha9/o0SKtWiGoys9HYOQvq9W35ex2/9dNFCAYTBERERGVdcnJCJj+9Cc8r1sXY6YaNhRJSxOpU8f/dfoaJDGYonKMwRQRERFRWTdzpsg77+BmvA4HXuvYEf+nppoLpvLzRaKjtTFTnpZRk1MQlUMMpoiIiIjKsowMTH/eqZPIypVaMCUicvgwZvurUsX4swUFIomJIo0bO79ut+OmvsOGidSu7fm7f/75xia6ICrjODU6ERERUVm2Zg3GSIkgkNIHUz/8INK3r+fPZmXh5r6u9u8XSUhAIHX6tPa6w4EATZk/X2T37hvbfqIyjMEUERERUVkWFYUZ/EREbDZtDFN2NoKpQYM8f/b33zHeSi8/H0FScDCef/UVuvuJYJa/2bMRwImgVWrbNpFp04pvf4jKEAZTRERERGVZpUra//pgauJEkSlTRG67zXl5qxWtS+vXI1D65BORK1fwnt2Om//WrKkt/9JLIq++KpKerj0fMEDk2jU8/+ADkQ8/FNm+vWT2j+gWxjFTRERERIGisBAtSytWiLRvL9Kli/sy3btjrNPy5ZgB8IsvtIBsxgyRBQtEDh3Slm/cWKRtW6316/77RR58UJs6vXJlkX79RJKSSnbfiG5BDKaIiIiIAkXXriItW2JCiqZNjZepXFnk44+N33v9dZH+/Z1bpiwWkR078FdEJCgI3Qf1PvmEE1FQucRgioiIiChQeJtswhdWq3MgpahAyhN9V0OicoRjpoiIiIiIiExgMEVERERERGQCgykiIiIiIiITGEwRERERERGZwGCKiIiIiIjIBAZTREREREREJjCYIiIiIiIiMoHBFBERERERkQkMpoiIiIiIiExgMEVERERERGQCgykiIiIiIiITGEwRERERERGZwGCKiIiIiIjIBAZTREREREREJjCYIiIiIiIiMoHBFBERERERkQkMpoiIiIiIiEwIMfOhhIQEWbdunVy+fLm4t6dMO3HihGRnZ/O4EJVD58+fl5EjR97szSCiAMJ0hejmOHHihNSuXdunZU0FUxEREdK0aVPp1q2bmY8HrODgYElLS+NxISqH1q5dy2ufiIoV0xWimyM4OFhsNptPy5oKpiIjI6VJkybStWtXMx8PWGlpaZKYmMjjQlQORUZG8tonomLFdIXo5lBlel9wzBQREREREZEJ/wdtGQl9maNDRAAAAABJRU5ErkJggg==;" vertex="1" parent="QOJpFYP4T8yH6UuzxTqu-1">
          <mxGeometry x="10" y="40.000000000000114" width="431" height="202.58" as="geometry" />
        </mxCell>
        <mxCell id="QOJpFYP4T8yH6UuzxTqu-2" value="" style="shape=image;verticalLabelPosition=bottom;labelBackgroundColor=default;verticalAlign=top;aspect=fixed;imageAspect=0;image=data:image/png,iVBORw0KGgoAAAANSUhEUgAAA04AAAA5CAYAAAABb3tlAAAZyUlEQVR4nO3dd3wUdfoH8CfZBJCWIAhEEBATwYIivKR4oUnxhKOI7URUBPFEUU+RIhzVitgOOJoCQiASOYoQuAjCCYSDIB6YENSAaYaSmEYKSQi7+/vj85ub2d3ZndlkQwj5vF+vvMLuTmYnQ+a7z/N8y/jZ7Xa7GIiMjJT09HSZNm2a0aa1Cs8LUe0VHh4usbGx1X0YRHQNYbtCVD3MxvT+V+h4iIiIiIiIaiwmTkRERERERAaYOBERERERERlg4kRERERERGSAiRMREREREZEBJk5EREREREQGmDgREREREREZYOJERERERERkIMDMRmlpaRITEyN5eXlVfTw1ysmTJ6WgoIDnhagWSk1NlalTp1b3YRDRNYTtClH1OHnypISEhBhuZypxCgoKkrCwMBk4cGClD+xaYrFYJCsri+eFqBbasWMHr30i8im2K0TVw2KxiNVqNdzOVOIUHBwsoaGhMmDAgEof2LUkKytL0tPTeV6IaqHg4GBe+0TkU2xXiKqHEtMb4RwnIiIiIiIiA0yciIiIiIiIDDBxIiIiIiIiMsDEiYiIKs/EpNqrar9ERFfa5cvVfQRUSUyciIiqyzvviKxZI3LpUuX3dfiwyPLl+PehQyLvviuSm+t++59+EsnIcH1e72dSUkTsds/v/49/iIwcKVJW5n6bWbNEEhI876e01PFxp04i0dH497lzIosXixQUeN4HEVW94mLHxwUFIidO6H8lJIi8/rrnNikyUiQqSsRmq9rjrk7ffy/y+ONoy3zpuedEEhN9u0/S5fvEyW6/8n/01fGeRESVlZQksnWrcVLiTn4+go2BA0X69hX57DMkQ8XFImvXilx3nfufDQkRGTRI5O23HZ//9FOR55/Hd+WrVy+RTz7xfCzR0SK33CJSt6779njbNpHMTM/7GToU7ykiUlKCBK9HD/WYw8JEOnYU+fJLz/shoqo1e7bIihXq47p1RfbtwzV77pzI+fP4OndOZPp0kU2bRP75T/f7+/prBP9+flV/7FeKc9vesyd60adN87ydJ7m5rsW2mBiRevUqdozkFVPLkXtl/HiRgwdx4Vwp1fGe3khJEblwwfG5+vVFWrYUadxYfS43V0RvKcTbbkODZOSXX1DNyM4WadsWwVTDhiJHjoh06+bdMZeUiOzahWNv2xYBVn6+SECASIsW3u2LiPQFBop07Wru+hYRyckR+fe/0U6cPSuSmiry3Xci33wjctdd2J+IyOnTIk2bek6cgoNFliwRGTxYZMYMtB3duuEav/lmkb/+Vd126VKR/v3d7ystTWTvXpE+fUQ+/lhk9Wr0pHXp4rhdQIDInXe6309WFgKvlSvV/bZoIdKsmbrNAw+IfPihyKhRIuHhIjfd5H5/RFR13nxTpFUrXKPDh6Mde+klvLZ1q8i334q8+KLIli0izzwj8tBDIhaL/r5sNpH9+0UWLry2Eqenn0ZPvNI2i4iEhoqUl6s96SIiGzeKtG+PZFRhtYqsWuXas7dqFbb96iuROnXwnMUiEhRUdb8H/Y/vE6fyct8MO7na39MbdetiGM2ECfjDfuwxDGfZtk3kjjsw9KRzZwQVhYUijz6Kquy4cSITJxo3Iqmp6KYVQRLZvTsCjiefRALUrBmq0mYlJYmMGIHj6N4dCWnnzthXdDQTJyJfcRdEuFO3LhKHRo3w+PRpJDRdu1bs/fv2RRW4vFzk55+ROJWU6FcuPR3rRx+hR+rllxEANG+OxM2ZUVu2di1+vzZt8PiXX5AQOhs1SuTUKbRFKSki7dpdW8EWkRlz54okJ+PfAQG4Dp54AoG5IiYGhYhVq9R2w1l5uUhEBD7fs7JEbrxRZNgwDCnTBvzOmjYVGT1avdZ//VWkdWu0UyNG4Pq95x7ENUqA/8MP+u3VkSOIhywWFH9tNpEpU0Tuvx/Jx6xZKAYrx1NWJjJnDn6vm2/WP76iIpFJk5CATJyIOEbPxYsoHuXmYjjh3Xc7vv7TTxgGHR+PdqZrV8RaYWHuz43i8GGcy06d1Oc6dnTdTm/uk8WCwlb9+iJNmqjPa4taCn/OvLlSfJ84kasbbxT5y19QienQQe3aTk7Ghdynj8jJk6jc9Ool0rs3go8ZM9w3CIrERPzM44+jeqwEDz174rkpUzC+2BtjxqAyNHcuHg8ejEDFuXosIrJggcjkyd7t350LF0Q2bMC5IiJXDRtWfh/KB3TA/zf/Dz6IIk7Pnnick4NeZrOSkkRiY5E42e3oMdqxQyQuDvuZPx+95nXq4BrfuxdBwMqVmId1663YT3o6ErCHHhJZtw7P/etfCKCUx1q33IKgacoUkRdewPsweaLa5IMPMHy1e3dcW1u2iLz1FgqljzyCbU6cwPC4RYv0E6e8PLQBcXEopHTogGLE00+L7N6NnmNPPv9c/feOHTiG4cPxOCMDPSNLluCx1Yrr9ehRJFRaERHqcOPFi3E9DxiAdspqRW9UmzZqj7XVKnLsGHrO3fn5Z8RbgYE4D4cP62+3fDmO8dIlHJc2cYqIEHn2WRSgBw5EkvnllxhOHB+vnwRpBQaiV1ybzOoJDtYvNrVq5f5nUlPxO4qg4LVnD4rzdjt+79mz3SeLVGFVmzhduIAKRJs2jkMttNLTRX7/HclFSIj7fZnd7mrl5+daxW3fHtWhFStEvvgCiZKIOrzGaLxqebnIn/+M7T76yDVo8PNDYPLMM+aPs7gYE8ufeMLx+ZAQVGK0kpMxZMZXidPMmfj/JartIiJE7rsPyYGvlZWhqDJqFK5zPz9Ue4cNw+snT6K32uy+pk/HsMGlSxHc3HCDyLJlGMYTHy9y4AASqFtvRVt1003Y5tAhx6HKrVujLXnySbV3KyoKx/rHP7o/BiVAJKqN+vdXF4XJzUUSNWECenwCTIR4EyZgmO62bZhfqDh1ynEomTsFBUhimjRBktCli9ojEhODY9L2kMyb55o0FRejYLN4MYrB69ahJ0vLYkHSpMx3LCoSadDAsSfGnZEj0ZbEx7v2YNtsWNjmscdcCzQJCSJjx6I4vX27Wri6fBltnJlCjZn/A+2xmLVnD5It5ctuR3LWoAFe37/fN4U2clE1iZPdjnHu06fjg9XPD9UDbYCdmCjy1FOoGCj69hVZv94xeDa7XU2l/A56q0QZXZQ7d6KK8tJL6MrVExiILmWz6tTBvubOxbCd7t3V1wYPVudipKaKDBmCRjE2Fj+nzKPKyEClKj8f1ZhBg9RAyG5HwCSCQCoqClWcbdtQEXv+eewvNBRzwIiudYcOIWBQXLyIseubN2PomrvhNd7YuBHXWXAwPlg/+AABRJ06CLyUD2xlQvd99zn+vMWCnqLAQARU4eHY16ZNaCtGjcJQmN9+Q/U6PByJVFiYOoSoY0cUhcLCcG3Xq+d4jfv7OxZn7HaR48dR2dUrvNnt7GEi0rr+enVYW1qaceHl1Cl8Bj//vGPSJILr9LXX9H+uuBiFzqAgDMc7fRrtmL8/CuapqdguMxMJjvJYRH8RhIgI9JR5up4rc60//DB6r5cvR5KktXs3Cvxr1rgmTu+/j7Zx7VrHJCQgAO2dGf7+aH+PHvW8XXy863zNAwdwXuvXx+dCfLyaOB49iqRx/ny042VlSFqV82S1ot0ln6uaxCklBdn4N9+gV2XSJHTP9uiBzD0/H12wTZui6/T22/GhPHo0qocHD+I/3+x2NdnBg/geHu79z27ahO/OQY6zfv3M7zMwEKu9zJqF/b7yCrp7g4Mx/lhx/DiGESYloau4fn0kTjt2oIL19dfoERs6FAnX6tVonGbMQEP9+utI+nbtQqCldO1nZWF/zZoxcaLaoWdP1w/hKVNct8vJwYdk48bq8JTMTBRdtImXCK7Ls2fxfF4ehsV164YApW5dtKUzZqBw89VXSKpsNlyXK1e6zmt47TUkQitXos2dOhW9VaNGqSs8paYiaDp/3jFQcjdHwqi6+uuvGGWQnIzPFGcffIDfoU8fz/shqk3y8vDdzAprMTH4/thj3r1HgwbqKJdly9BbbLEgScjKQnwggoQqL099LKJ/3ffurT9fyG7HsEOlZ7yirrsOcWNEBNoNpVdGBG1keLhjfKO8d0wM2ufKLEBTXIxedL2pDlphYeqwZUWvXvgSQdw0bRpiMufFvkpL0a5rz1FZmfdzaMmUqkmcGjXCSk9Kb8pnn2Hc69q1+CNYvx4frjt3ql22w4cjWJg1C71Md95pfruapKgIww79/TGmdvdudAX/6U/e70uZFNq8uW+P8W9/Q8Py5puo9q5Zg6ryhAlqt/OIEeje37NHXZhCBI1Qp07q/9eIEai2iKD6tWIFGoB9+9CVnJSESk67dpin0L274/6ICJo2xWRobe/y99+jgOKceH33HSZhK8/PnOm6P2UO47x5CE7mzsWQGm0vs2L8eLRT/v76AUxJCYKjzEwES9pkyd0yu0aJU3Q0eqvj40XuvRfVdMXPP2N1Qb0Ek6i2OnUKw/67dPE8N0aRlITvRnOp9WjbAe2/w8LwuS+C5C05WX0s4hrMZ2YiFgoJQQ9WRgYKMIsXi5w5g/jP+T0U3izh/dxzeJ+vvsKcJREUeKKj9RfPystDUagi50arsBDxVFGR56FzvXt7XgV1xQrcOkJvheSkJMe5VnY7hhPW9I6Fq1TVJE433OA4jC4oCBXO06fxOC4OzzmPc1Uy64QEJERmt6tJLl3CsLQzZ3CeYmNF/vCHiu1LWaLS11UFPz9UnocPx/dt21DliIxEj5I2gHE2e7Za6Tp7Fl/apTSVYUfDhiEAVCYu8m7aRMach+RmZKAdqagTJ9CDVVqKYtSWLSh06E14PnAAidOqVY4fyHY72ukRIzCsJDwcX9On4/Xycv33NkqcIiNRHe7WDUNm5s1TX5sxAyMZBgzw7vclutbExODztLBQ5D//QXuwdq25n714Ed/NzBMy69gxtQc8MRFD+bQ94s6f9S1aYAlyZVW46GisYqcUfd57D9+NFqkwcs89+Fq2TE2cli5FQWrkSBR/tHxxbi5dQg9c8+a42XlRERbf0LNsGaZdTJjg+tr+/Whnp03DuUlIcOwlTEhwXNCitNTzaohUKVduVb169dQlw8vK9OfkKM8pF5bZ7WqS6683PzbWSNu2qPL6+g7UiltuwZC73btRcT58GBVpT41yjx4iP/6IMdNt2rj2hikBF5fOJKq8EydQlKqoTz7BXEWl0GW3Y5/ON8UVwYfz9de7VjGtVlSIt25F5bNRIwwrVFy+jCrv0aMYQbBqFZK1oiK8pjd5Oi4OH/59+uD9rrsOiVuvXggUf/yRN8AlEkFvxk03IS4aNw6rUmqHonmiDPnNyvJN8mS3IzlRYpyYGAwl1sY8yiJYWtp4ICEBy5FnZhrf+sSbxRRE0Ov00ktoPzp0wNDjsWMxzM05cdKem4pKSUFiFhyMdq5xY/fx35Yt+r2ENhsKSBEROE+33aYmk0rytHOn44JexcW8GW4Vqpro1Wp1fGyzqffaEEHAr4zN11J6pNq392672iYjAwHHgw/i8Z49nrf3pjtbxPFO4CKY/3D4MBqAzZs9/+zq1RjPO28ehvxxnhJR1dm7F9enN8rLMUF6/HgkMdoV6ywWfNWr5/oVEKAfkBUWIsDp3BmFktBQx+rniy9iGODEiWgPxo7Fv48fd7/i1Jw5SOqUJO211xBwxcXhuDdudL8gDlFt0qsXrucFCzCPx2zSJKLOu9m/3zfH4hz7VUR0NK7/119HMqHQi2O8TZxGjUKStHw52pCcHPe3P2nYEMXj2Fjv30eRmIgecz8/c8Vi5V5XWkpPlJJU2Wwir76KXrPERCRJcXG4/52ioMC7vwPyStUkTmlpGFqh/KFHRWGSb+/eeNy7N/7zP/xQ/ZmiIqzE17q1Osbe7HY1hd1uLolRtnG37Zo1CDhGj8Z5+PJLnHN3+1q40LsbBCuLTmi1bInVt5yrGNpjLC1FN/Po0Y4JkzeJm7dJHlFtlZqKIpJSQDErMBDXaZ06KD5pq7oVGROfkoJ5je3aobepeXPH1ZyGDHFdGXDTJvdDSaKj8aHfv7/6XL16mKfVsyeGDd97r/fHSUSOhg5FgvD+++g11rLbEZgbuXQJcZmI+1FA588jUVmzxnNydewYjmPAAAyjmzxZnYvpi8QpOBgLi61bhzhy4EDPKw8++SSmVSxb5vpaZibiWk92767c7RJ27sQwx3XrMN9zzBhMhzh1Cu3j5s2Ij195xbE9zcnxfH8rqpSqGap3xx2oFm7ejC7k7dvRfTtmDF4fMgTLQ771FsbkhoSg4vH775hDo1QhzW5XE1itSCyUBsYTZZucHMd7VtlsmNxYWIjHDRogAOnXD8HT1187rkxz+TJW4XrwQf1KhjvffotK9Nix6nMFBZi/MG6c+lyDBqhenzmD4T09eqAR3bdP5I03cHHv3o1tMjLw+yhz0pzPg8WC/89ff1UrKPffb/6Yia5FhYX6y5Hb7ag6LlzoeUKxO/7+uBZ//LHyx6i9B5TNZq7qPHAg2vcNGxyHp+TkYEEa5+JNbi4ChqFDsZpXmzYYpsLJz0TmbN3qGEx36oRY7dNPMYSte3eslnnzzSjErlqF4WtHjujvLz8fo0oCA3E9LlqEeE877zw0FPts2VKka1f0+Li7R5zNhgWpli7Fdd24MXqGBgxA74rNpg75FcFUjor0cI0fj4XHjh937NHSM3ky3nPiRCSRw4bhPWNj0cu3YYP7wtXFi4hbP/7Y/LE5J4edO6OwNXIkRgZoe5HatUMsvHSp6/22fvvN94uG0f/4PvMYMQJ/SH374oJMT8d4+RdfVO8B5OeHXqhNmxBYFxcjSH/2WVyACrPbPfSQ6wISV5PYWFyodjsm9r39NhZe6NTJcbvUVCQ/u3bhcb9+qAhbLGgk0tIQWCj3QRJBN/DRo6g43H47qhAdO+Jc2Wy48I3ubO3s7rtxvFFR6PUrK0O16PHHHec+PPwwqh0dO2KYwAMPYJWr+fMxQXXsWMx1+v57rJi3cKG6CtYXX6CBVW5y5+eHbZcsQQO1fbt3x0x0tSosxDWkp6QERYTsbNfXjh/HNbd+veNwOpsNCyMMHYq2zx2joCI21rXXRxlW7by8uQiqwXpzDhIT1Xv0lZc7/q4nTmBVrZwcJD8ZGQgkwsLQto0Zg7ZdBIWeV19FGxAUpO4jJgZV5+nT8Tvv3Yt7+82fj4DmkUccb6RLVFsoBUdPlNEfzosOvPEGPrfHjUNCNXOmWiwNDEQc53zPI0VeHmKPQYNQJBfBdTp/PhKd4mKMhgkKwr6V2xN89BEKyBs2oC3R3irl73/HnEZl8S8RxDNDh2JupdWKYon2Brhz5hifHxHHc9S7N5b9Li52XM1YGUqnXWyrYUMU6ydPxjSEJUvwfLt2OF+ehkkvWoR4SSls2WwoCH/6qf726emuC+nceCNWD9XTvj2SpvXrcey7dmGeWsuWSKQqM/eVPPKz243HRkVGRkp6erpMmzbtShxTjXHVnZesLPTY2Gy4qLS9Vd44exYXbGEhJmr6+WFCol7Xb1kZgj/ta2fPokreqBGSxTNnUFU2Ux3OzkYjycUj6CoXHh4usbGxxhv+9BOGWrRrV7HeoXr1UHFU7pGyYAGSBU9DlffsQWCkvXG4s6eewmIOcXHqc1FRWPxlxw7X7SdNQiChDJ1R3sdqRQAlgoAoKAhB1L59GJv/3nsoqPXrh6BHWQUwLQ3Fkm++QdK0aJHIo48i4LLb1YLTrbei8KYdJnzhgsi776IYc/kyeqc/+8yxoEZUA5luV0Tw+RsQ4LuVdfPykJC0aGE8SiUqCgVg7XVZWIhrdtcuFE1++w2JkrPnnkPQryQ0q1fjfV9+2XVbqxW/3zvv4OeU4k1JCZKQN9/0fJwlJThGbfxx+TLaGOfCkd79kBSXLmF4XoMGSFA8xTMpKWgLtcc2dSreT2/hHREkqmZXCj11CgtbTJ+uFo3On0cy9/nn+H1/+IHJk5fMxvRMnCqB54Wo9vIqwPGFsjL0xA4fbrzU7H//i6LHM8+438ZqRZVTe5+SgwcxxESvknrkCIbeaG9HcOyYfm//t98iAOnRQ70xprtjsFgQcAUG4gP/l1/QS922LW7V4KmIkp2N3ushQ1DcIarhrni7UpXsdrVXvaQEPSo2G3pFlIA/ORmv33VX9R6rLx05gnmY2uTq9GkMZVRGXjkrLTW3El5GBoZYDx6sn7wtW4ZeO+cb+pIhszF9DZokRERUi9Wta36icZcuxneqt1hcb+7o6Z5yejdedDdE2uz9lZRKuXYeV4cO7u914qxZM/SsEdHVx88Pq196WgHzWlwdWa+tDA31/DNmlw9v3Rpf7rzwgrn9UIUxcaot5s0zXra8VSv9O2gTEREREdVyTJxqi1mz8EVERERERF7jDHwiIiIiIiIDTJyIiIiIiIgMMHEiIiIiIiIywMSJiIiIiIjIABMnIiIiIiIiA0yciIiIiIiIDDBxIiIiIiIiMsDEiYiIiIiIyAATJyIiIiIiIgNMnIiIiIiIiAwwcSIiIiIiIjLAxImIiIiIiMgAEyciIiIiIiIDTJyIiIiIiIgMMHEiIiIiIiIyEGBmo+zsbElISJCNGzdW9fHUKHFxcZKdnc3zQlQL8donIl9ju0JUPeLi4iQgwDgtMpU4lZWVSW5uriQnJ1f6wK4lWVlZkp+fz/NCVAuVlpby2icin2K7QlQ9srKypEmTJobbmUqcWrVqJX369JGpU6dW+sCuJZGRkZKens7zQlQLbd++ndc+EfkU2xWi6qHE9EY4x4mIiIiIiMgAEyciIiIiIiIDTJyIiIiIiIgM/B/rO1i/Ar8AhAAAAABJRU5ErkJggg==;" vertex="1" parent="QOJpFYP4T8yH6UuzxTqu-1">
          <mxGeometry x="12.5" y="237.57999999999993" width="426" height="28.7" as="geometry" />
        </mxCell>
        <mxCell id="QOJpFYP4T8yH6UuzxTqu-4" value="转到“自动线程”子页面" style="triangle;whiteSpace=wrap;html=1;fontStyle=1;fontColor=#FF3A24;fontSize=17;" vertex="1" parent="WIyWlLk6GJQsqaUBKTNV-1">
          <mxGeometry x="1310" y="1050" width="310" height="105" as="geometry" />
        </mxCell>
      </root>
    </mxGraphModel>
  </diagram>
  <diagram id="fz7cI436G5N97hvkywFc" name="自动线程">
    <mxGraphModel dx="607" dy="774" grid="1" gridSize="10" guides="1" tooltips="1" connect="1" arrows="1" fold="1" page="1" pageScale="1" pageWidth="827" pageHeight="1169" math="0" shadow="0">
      <root>
        <mxCell id="0" />
        <mxCell id="1" parent="0" />
        <mxCell id="TyzmrGfH8VlSfOGpgInq-1" value="" style="edgeStyle=orthogonalEdgeStyle;rounded=0;orthogonalLoop=1;jettySize=auto;html=1;" edge="1" parent="1" source="TyzmrGfH8VlSfOGpgInq-2" target="TyzmrGfH8VlSfOGpgInq-6">
          <mxGeometry relative="1" as="geometry" />
        </mxCell>
        <mxCell id="TyzmrGfH8VlSfOGpgInq-2" value="动作顺序号n=1" style="rounded=1;whiteSpace=wrap;html=1;fontSize=12;glass=0;strokeWidth=1;shadow=0;" vertex="1" parent="1">
          <mxGeometry x="1800" y="110" width="120" height="40" as="geometry" />
        </mxCell>
        <mxCell id="TyzmrGfH8VlSfOGpgInq-3" value="" style="swimlane;startSize=0;dashed=1;dashPattern=8 8;" vertex="1" parent="1">
          <mxGeometry x="1760" y="165" width="210" height="185" as="geometry">
            <mxRectangle x="90" y="135" width="50" height="40" as="alternateBounds" />
          </mxGeometry>
        </mxCell>
        <mxCell id="TyzmrGfH8VlSfOGpgInq-4" value="PLC通信" style="text;html=1;strokeColor=none;fillColor=none;align=center;verticalAlign=middle;whiteSpace=wrap;rounded=0;" vertex="1" parent="TyzmrGfH8VlSfOGpgInq-3">
          <mxGeometry x="20" y="10" width="60" height="30" as="geometry" />
        </mxCell>
        <mxCell id="TyzmrGfH8VlSfOGpgInq-5" style="edgeStyle=orthogonalEdgeStyle;rounded=0;orthogonalLoop=1;jettySize=auto;html=1;entryX=0.5;entryY=0;entryDx=0;entryDy=0;" edge="1" parent="TyzmrGfH8VlSfOGpgInq-3" source="TyzmrGfH8VlSfOGpgInq-6" target="TyzmrGfH8VlSfOGpgInq-7">
          <mxGeometry relative="1" as="geometry">
            <mxPoint x="280" y="125" as="targetPoint" />
          </mxGeometry>
        </mxCell>
        <mxCell id="TyzmrGfH8VlSfOGpgInq-6" value="等待流程指令？" style="rhombus;whiteSpace=wrap;html=1;rounded=1;glass=0;strokeWidth=1;shadow=0;" vertex="1" parent="TyzmrGfH8VlSfOGpgInq-3">
          <mxGeometry x="60" y="10" width="80" height="80" as="geometry" />
        </mxCell>
        <mxCell id="TyzmrGfH8VlSfOGpgInq-7" value="出发指令" style="rounded=1;whiteSpace=wrap;html=1;fontSize=12;glass=0;strokeWidth=1;shadow=0;" vertex="1" parent="TyzmrGfH8VlSfOGpgInq-3">
          <mxGeometry x="40" y="115" width="120" height="40" as="geometry" />
        </mxCell>
        <mxCell id="TyzmrGfH8VlSfOGpgInq-8" value="&lt;h1&gt;自动控制流程&lt;/h1&gt;&lt;div&gt;共有6钟工序号，取值0-5&lt;/div&gt;&lt;div&gt;&lt;p style=&quot;margin-left:18.0000pt;text-indent:-18.0000pt;mso-char-indent-count:0.0000;&lt;br/&gt;mso-pagination:none;text-align:justify;text-justify:inter-ideograph;&lt;br/&gt;mso-list:l0 level1 lfo1;&quot; align=&quot;justify&quot; class=&quot;15&quot;&gt;0-&amp;nbsp;视觉检测工位移载到出料小车命令&lt;span style=&quot;font-size: 11pt;&quot;&gt;&lt;/span&gt;&lt;/p&gt;&lt;p style=&quot;margin-left:18.0000pt;text-indent:-18.0000pt;mso-char-indent-count:0.0000;&lt;br/&gt;mso-pagination:none;text-align:justify;text-justify:inter-ideograph;&lt;br/&gt;mso-list:l0 level1 lfo1;&quot; align=&quot;justify&quot; class=&quot;15&quot;&gt;&lt;span style=&quot;font-size: 11pt;&quot;&gt;1-&amp;nbsp;&lt;/span&gt;焊接工位2移载到视觉检测工位命令&lt;span style=&quot;font-size: 11pt;&quot;&gt;&lt;/span&gt;&lt;/p&gt;&lt;p style=&quot;margin-left:18.0000pt;text-indent:-18.0000pt;mso-char-indent-count:0.0000;&lt;br/&gt;mso-pagination:none;text-align:justify;text-justify:inter-ideograph;&lt;br/&gt;mso-list:l0 level1 lfo1;&quot; align=&quot;justify&quot; class=&quot;15&quot;&gt;&lt;span style=&quot;font-size: 11pt;&quot;&gt;2-&amp;nbsp;&lt;/span&gt;中间工位移载到焊接工位2命令&lt;span style=&quot;font-size: 11pt;&quot;&gt;&lt;/span&gt;&lt;/p&gt;&lt;p style=&quot;margin-left:18.0000pt;text-indent:-18.0000pt;mso-char-indent-count:0.0000;&lt;br/&gt;mso-pagination:none;text-align:justify;text-justify:inter-ideograph;&lt;br/&gt;mso-list:l0 level1 lfo1;&quot; align=&quot;justify&quot; class=&quot;15&quot;&gt;&lt;span style=&quot;font-size: 11pt;&quot;&gt;3-&amp;nbsp;&lt;/span&gt;焊接工位1移载到中间工位命令&lt;span style=&quot;font-size: 11pt;&quot;&gt;&lt;/span&gt;&lt;/p&gt;&lt;p style=&quot;margin-left:18.0000pt;text-indent:-18.0000pt;mso-char-indent-count:0.0000;&lt;br/&gt;mso-pagination:none;text-align:justify;text-justify:inter-ideograph;&lt;br/&gt;mso-list:l0 level1 lfo1;&quot; align=&quot;justify&quot; class=&quot;15&quot;&gt;&lt;span style=&quot;font-size: 11pt;&quot;&gt;4-&amp;nbsp;&lt;/span&gt;上料到焊接工位1工序命令&lt;span style=&quot;font-size: 11pt;&quot;&gt;&lt;/span&gt;&lt;/p&gt;&lt;p style=&quot;margin-left:18.0000pt;text-indent:-18.0000pt;mso-char-indent-count:0.0000;&lt;br/&gt;mso-pagination:none;text-align:justify;text-justify:inter-ideograph;&lt;br/&gt;mso-list:l0 level1 lfo1;&quot; align=&quot;justify&quot; class=&quot;15&quot;&gt;&lt;span style=&quot;font-size: 11pt;&quot;&gt;5-&amp;nbsp;&lt;/span&gt;视觉检测工位移载到NG出料处.&lt;span style=&quot;font-size: 11pt;&quot;&gt;&lt;/span&gt;&lt;/p&gt;&lt;p class=&quot;MsoNormal&quot;&gt;&lt;font style=&quot;&quot;&gt;其他值&lt;/font&gt;&lt;font style=&quot;&quot;&gt;-&lt;/font&gt;&lt;font style=&quot;&quot;&gt;无定义&lt;/font&gt;&lt;/p&gt;&lt;/div&gt;" style="text;html=1;strokeColor=none;fillColor=none;spacing=5;spacingTop=-20;whiteSpace=wrap;overflow=hidden;rounded=0;" vertex="1" parent="1">
          <mxGeometry x="910" y="76" width="190" height="340" as="geometry" />
        </mxCell>
        <mxCell id="TyzmrGfH8VlSfOGpgInq-9" value="" style="edgeStyle=orthogonalEdgeStyle;rounded=0;orthogonalLoop=1;jettySize=auto;html=1;" edge="1" parent="1" source="TyzmrGfH8VlSfOGpgInq-11" target="TyzmrGfH8VlSfOGpgInq-13">
          <mxGeometry relative="1" as="geometry" />
        </mxCell>
        <mxCell id="TyzmrGfH8VlSfOGpgInq-10" value="" style="edgeStyle=orthogonalEdgeStyle;rounded=0;orthogonalLoop=1;jettySize=auto;html=1;" edge="1" parent="1" source="TyzmrGfH8VlSfOGpgInq-11" target="TyzmrGfH8VlSfOGpgInq-15">
          <mxGeometry relative="1" as="geometry" />
        </mxCell>
        <mxCell id="TyzmrGfH8VlSfOGpgInq-11" value="n&amp;lt;=5?" style="rhombus;whiteSpace=wrap;html=1;rounded=1;glass=0;strokeWidth=1;shadow=0;" vertex="1" parent="1">
          <mxGeometry x="1760" y="380" width="80" height="80" as="geometry" />
        </mxCell>
        <mxCell id="TyzmrGfH8VlSfOGpgInq-12" value="" style="edgeStyle=orthogonalEdgeStyle;rounded=0;orthogonalLoop=1;jettySize=auto;html=1;" edge="1" parent="1" source="TyzmrGfH8VlSfOGpgInq-13" target="TyzmrGfH8VlSfOGpgInq-16">
          <mxGeometry relative="1" as="geometry" />
        </mxCell>
        <mxCell id="TyzmrGfH8VlSfOGpgInq-13" value="读取模板工序n对应的运动参数并赋值" style="whiteSpace=wrap;html=1;rounded=1;glass=0;strokeWidth=1;shadow=0;" vertex="1" parent="1">
          <mxGeometry x="1790" y="500" width="120" height="60" as="geometry" />
        </mxCell>
        <mxCell id="TyzmrGfH8VlSfOGpgInq-14" style="edgeStyle=orthogonalEdgeStyle;rounded=0;orthogonalLoop=1;jettySize=auto;html=1;" edge="1" parent="1" source="TyzmrGfH8VlSfOGpgInq-15">
          <mxGeometry relative="1" as="geometry">
            <mxPoint x="1850" y="470" as="targetPoint" />
            <Array as="points">
              <mxPoint x="1980" y="470" />
            </Array>
          </mxGeometry>
        </mxCell>
        <mxCell id="TyzmrGfH8VlSfOGpgInq-15" value="n=0" style="whiteSpace=wrap;html=1;rounded=1;glass=0;strokeWidth=1;shadow=0;" vertex="1" parent="1">
          <mxGeometry x="1870" y="390" width="120" height="60" as="geometry" />
        </mxCell>
        <mxCell id="TyzmrGfH8VlSfOGpgInq-16" value="执行动作指令" style="whiteSpace=wrap;html=1;rounded=1;glass=0;strokeWidth=1;shadow=0;" vertex="1" parent="1">
          <mxGeometry x="1790" y="585" width="120" height="60" as="geometry" />
        </mxCell>
      </root>
    </mxGraphModel>
  </diagram>
</mxfile>
